<svg width="160" height="30" viewBox="0 0 160 30" fill="none" xmlns="http://www.w3.org/2000/svg">
<g clip-path="url(#clip0_272_47300)">
<path d="M0.737954 29.0416C0.538114 29.0416 0.365219 28.9691 0.219268 28.8217C0.0733174 28.6743 0.00146484 28.4998 0.00146484 28.298V10.4663C0.00146484 10.2645 0.0733174 10.0899 0.219268 9.94258C0.365219 9.79521 0.538114 9.72266 0.737954 9.72266H9.81383C11.563 9.72266 12.9933 9.94031 14.1048 10.3711C15.2163 10.8041 16.0403 11.448 16.5792 12.3028C17.1159 13.1575 17.3853 14.2299 17.3853 15.5177C17.3853 16.1071 17.2618 16.6354 17.0171 17.1047C16.7723 17.574 16.4782 17.964 16.1414 18.2769C15.8045 18.5897 15.4902 18.821 15.1983 18.9661C15.8899 19.2608 16.4961 19.771 17.0171 20.4987C17.5357 21.2265 17.7962 22.0495 17.7962 22.97C17.7962 24.3508 17.4953 25.4866 16.8936 26.3799C16.2918 27.2732 15.4206 27.9398 14.2822 28.3819C13.1438 28.824 11.7449 29.0439 10.0855 29.0439H0.737954V29.0416ZM6.8342 16.98H9.13123C9.53091 16.98 9.81833 16.8463 9.99122 16.5787C10.1641 16.3112 10.2517 16.0323 10.2517 15.7376C10.2517 15.4429 10.1641 15.1572 9.99122 14.8828C9.81833 14.6062 9.53091 14.4679 9.13123 14.4679H6.8342V16.98ZM6.8342 24.2941H9.37598C9.8318 24.2941 10.1551 24.1422 10.346 23.8384C10.5369 23.5346 10.6334 23.2353 10.6334 22.9405C10.6334 22.6095 10.5279 22.3012 10.319 22.0155C10.1102 21.7298 9.79587 21.587 9.37598 21.587H6.8342V24.2918V24.2941Z" fill="#2A211C"/>
<path d="M19.1619 29.04C18.998 29.04 18.8566 28.981 18.7376 28.8609C18.6186 28.7407 18.5602 28.5979 18.5602 28.4324C18.5602 28.3598 18.5692 28.2941 18.5871 28.2397L24.6834 10.6302C24.7373 10.4284 24.8652 10.2266 25.0651 10.0226C25.2649 9.82077 25.5478 9.71875 25.9116 9.71875H31.8439C32.2077 9.71875 32.4906 9.82077 32.6904 10.0226C32.8903 10.2243 33.0183 10.4284 33.0722 10.6302L39.1684 28.2397C39.1864 28.2941 39.1953 28.3598 39.1953 28.4324C39.1953 28.5979 39.137 28.7407 39.018 28.8609C38.899 28.981 38.7575 29.04 38.5936 29.04H33.537C33.1912 29.04 32.9397 28.9629 32.7847 28.8042C32.6298 28.6478 32.5243 28.4959 32.4704 28.3485L31.8147 26.5256H25.9363L25.2806 28.3485C25.2268 28.4959 25.1257 28.6478 24.9798 28.8042C24.8338 28.9606 24.5778 29.04 24.2141 29.04H19.1575H19.1619ZM27.3352 21.1455H30.4248L28.8665 16.0125L27.3352 21.1455Z" fill="#2A211C"/>
<path d="M41.4403 29.0416C41.2405 29.0416 41.0676 28.9691 40.9217 28.8217C40.7757 28.6743 40.7039 28.4998 40.7039 28.298V10.4663C40.7039 10.2645 40.7757 10.0899 40.9217 9.94258C41.0676 9.79521 41.2405 9.72266 41.4403 9.72266H50.5162C52.2654 9.72266 53.6957 9.94031 54.8072 10.3711C55.9186 10.8041 56.7427 11.448 57.2816 12.3028C57.8182 13.1575 58.0877 14.2299 58.0877 15.5177C58.0877 16.1071 57.9642 16.6354 57.7194 17.1047C57.4747 17.574 57.1806 17.964 56.8437 18.2769C56.5069 18.5897 56.1926 18.821 55.9007 18.9661C56.5923 19.2608 57.1985 19.771 57.7194 20.4987C58.2381 21.2265 58.4986 22.0495 58.4986 22.97C58.4986 24.3508 58.1977 25.4866 57.596 26.3799C56.9942 27.2732 56.123 27.9398 54.9846 28.3819C53.8461 28.824 52.4473 29.0439 50.7879 29.0439H41.4381L41.4403 29.0416ZM47.5366 16.98H49.8336C50.2333 16.98 50.5207 16.8463 50.6936 16.5787C50.8665 16.3112 50.9541 16.0323 50.9541 15.7376C50.9541 15.4429 50.8665 15.1572 50.6936 14.8828C50.5207 14.6062 50.2333 14.4679 49.8336 14.4679H47.5366V16.98ZM47.5366 24.2941H50.0784C50.5342 24.2941 50.8575 24.1422 51.0484 23.8384C51.2392 23.5346 51.3358 23.2353 51.3358 22.9405C51.3358 22.6095 51.2303 22.3012 51.0214 22.0155C50.8126 21.7298 50.4983 21.587 50.0784 21.587H47.5366V24.2918V24.2941Z" fill="#2A211C"/>
<path d="M69.4882 29.3182C67.739 29.3182 66.1942 29.0507 64.8537 28.5179C63.5132 27.9851 62.4713 27.1553 61.7236 26.033C60.9759 24.9108 60.6031 23.4847 60.6031 21.7548V10.4663C60.6031 10.2645 60.675 10.0899 60.821 9.94258C60.9669 9.79521 61.1398 9.72266 61.3396 9.72266H66.6972C66.897 9.72266 67.0699 9.79747 67.2158 9.94258C67.3618 10.0899 67.4336 10.2645 67.4336 10.4663V21.646C67.4336 22.3261 67.602 22.8521 67.9389 23.2194C68.2757 23.5867 68.7809 23.7726 69.4567 23.7726C70.1326 23.7726 70.6356 23.589 70.9746 23.2194C71.3114 22.8521 71.4798 22.3261 71.4798 21.646V10.4663C71.4798 10.2645 71.5517 10.0899 71.6976 9.94258C71.8436 9.79521 72.0165 9.72266 72.2163 9.72266H77.5738C77.7737 9.72266 77.9466 9.79747 78.0925 9.94258C78.2385 10.0899 78.3103 10.2645 78.3103 10.4663V21.7548C78.3103 23.4847 77.9376 24.9108 77.1899 26.033C76.4422 27.1553 75.4025 27.9828 74.0733 28.5179C72.7418 29.0507 71.2126 29.3182 69.4814 29.3182H69.4882Z" fill="#2A211C"/>
<path d="M89.144 29.3162C87.1209 29.3162 85.4525 29.0396 84.1412 28.4886C82.8299 27.9377 81.8442 27.2099 81.1885 26.3076C80.5329 25.4052 80.1871 24.4484 80.1489 23.4373C80.1489 23.2718 80.2073 23.1289 80.3263 23.0088C80.4453 22.8886 80.5868 22.8296 80.7507 22.8296H85.9443C86.2362 22.8296 86.4585 22.8705 86.6134 22.9543C86.7683 23.0382 86.9367 23.1516 87.1186 23.299C87.3005 23.4282 87.4869 23.5438 87.68 23.6436C87.8708 23.7456 88.0909 23.8182 88.3356 23.8635C88.5826 23.9088 88.8498 23.9315 89.1417 23.9315C89.7615 23.9315 90.2577 23.8635 90.6327 23.7252C91.0054 23.5869 91.194 23.3987 91.194 23.1584C91.194 22.9385 91.0885 22.7548 90.8797 22.6052C90.6708 22.4578 90.3093 22.3241 89.7996 22.2039C89.2899 22.0837 88.5781 21.9681 87.6665 21.8593C86.2272 21.6575 84.9788 21.3174 83.9212 20.839C82.8636 20.3606 82.0485 19.7032 81.4737 18.8643C80.8989 18.0277 80.6137 17.0006 80.6137 15.7877C80.6137 14.5747 80.964 13.432 81.6668 12.4753C82.3674 11.5185 83.3441 10.7726 84.5926 10.2398C85.841 9.70698 87.2938 9.43945 88.9531 9.43945C90.3206 9.43945 91.5308 9.61856 92.5884 9.97678C93.646 10.335 94.5374 10.8043 95.2672 11.3847C95.9969 11.9651 96.5515 12.5864 96.9355 13.2484C97.3194 13.9104 97.5193 14.5452 97.5373 15.1528C97.5373 15.3184 97.4789 15.4612 97.3599 15.5813C97.2409 15.7015 97.1084 15.7605 96.9624 15.7605H91.4949C91.2389 15.7605 91.0346 15.7242 90.8797 15.6494C90.7247 15.5768 90.5653 15.4657 90.4014 15.3184C90.3093 15.2254 90.1409 15.1211 89.8962 15.0009C89.6492 14.8808 89.3348 14.8218 88.9531 14.8218C88.4973 14.8218 88.165 14.8898 87.9562 15.0281C87.7473 15.1664 87.6418 15.3546 87.6418 15.595C87.6418 15.7605 87.7249 15.9169 87.8888 16.0643C88.0527 16.2116 88.3536 16.3409 88.7914 16.4497C89.2293 16.5608 89.858 16.6696 90.6776 16.7807C92.4986 17.0006 93.9626 17.3566 95.0651 17.844C96.1676 18.3315 96.9692 18.9799 97.4699 19.7893C97.9706 20.5987 98.2221 21.6031 98.2221 22.7979C98.2221 24.1424 97.8247 25.3009 97.032 26.2758C96.2394 27.2507 95.1594 28.0012 93.7919 28.5249C92.4245 29.0486 90.8752 29.3116 89.144 29.3116V29.3162Z" fill="#2A211C"/>
<path d="M100.953 29.0416C100.753 29.0416 100.58 28.9736 100.434 28.8353C100.288 28.697 100.216 28.5179 100.216 28.298V10.4663C100.216 10.2645 100.288 10.0899 100.434 9.94258C100.58 9.79521 100.753 9.72266 100.953 9.72266H106.31C106.51 9.72266 106.683 9.79747 106.829 9.94258C106.975 10.0899 107.047 10.2645 107.047 10.4663V16.2636H111.474V10.4663C111.474 10.2645 111.546 10.0899 111.692 9.94258C111.838 9.79521 112.011 9.72266 112.211 9.72266H117.568C117.768 9.72266 117.941 9.79747 118.087 9.94258C118.233 10.0899 118.305 10.2645 118.305 10.4663V28.298C118.305 28.4998 118.231 28.6743 118.087 28.8217C117.941 28.9691 117.768 29.0416 117.568 29.0416H112.211C112.011 29.0416 111.838 28.9691 111.692 28.8217C111.546 28.6743 111.474 28.4998 111.474 28.298V22.3352H107.047V28.298C107.047 28.4998 106.972 28.6743 106.829 28.8217C106.683 28.9691 106.51 29.0416 106.31 29.0416H100.953Z" fill="#2A211C"/>
<path d="M122.057 29.0416C121.857 29.0416 121.684 28.9691 121.538 28.8217C121.392 28.6743 121.32 28.4998 121.32 28.298V10.4663C121.32 10.2645 121.392 10.0899 121.538 9.94258C121.684 9.79521 121.857 9.72266 122.057 9.72266H127.277C127.477 9.72266 127.65 9.79747 127.796 9.94258C127.942 10.0899 128.014 10.2645 128.014 10.4663V15.9326L131.103 10.3303C131.195 10.1829 131.326 10.0446 131.498 9.91537C131.671 9.78614 131.905 9.72266 132.195 9.72266H138.237C138.401 9.72266 138.542 9.7816 138.661 9.90177C138.78 10.0219 138.839 10.1648 138.839 10.3303C138.839 10.4414 138.812 10.5411 138.756 10.6341L133.834 18.9706L139.218 28.1347C139.272 28.2096 139.301 28.3093 139.301 28.4386C139.301 28.6041 139.243 28.7469 139.124 28.8671C139.005 28.9872 138.863 29.0462 138.699 29.0462H132.466C132.102 29.0462 131.833 28.96 131.66 28.7832C131.487 28.6086 131.382 28.4839 131.346 28.4113L128.011 22.3941V28.3003C128.011 28.502 127.937 28.6766 127.794 28.824C127.648 28.9713 127.475 29.0439 127.275 29.0439H122.054L122.057 29.0416Z" fill="#2A211C"/>
<path d="M139.962 29.04C139.798 29.04 139.657 28.981 139.538 28.8609C139.419 28.7407 139.36 28.5979 139.36 28.4324C139.36 28.3598 139.369 28.2941 139.387 28.2397L145.484 10.6302C145.537 10.4284 145.665 10.2266 145.867 10.0226C146.067 9.82077 146.35 9.71875 146.714 9.71875H152.646C153.01 9.71875 153.293 9.82077 153.493 10.0226C153.693 10.2243 153.821 10.4284 153.875 10.6302L159.971 28.2397C159.989 28.2941 159.998 28.3598 159.998 28.4324C159.998 28.5979 159.939 28.7407 159.82 28.8609C159.701 28.981 159.56 29.04 159.396 29.04H154.339C153.994 29.04 153.742 28.9629 153.587 28.8042C153.432 28.6478 153.327 28.4959 153.273 28.3485L152.617 26.5256H146.741L146.085 28.3485C146.031 28.4959 145.93 28.6478 145.784 28.8042C145.638 28.9606 145.382 29.04 145.019 29.04H139.962ZM148.135 21.1455H151.225L149.667 16.0125L148.135 21.1455Z" fill="#2A211C"/>
<path d="M32.8141 7.01604H28.6376C28.4019 7.01604 28.2851 6.73037 28.4513 6.56259L34.5498 0.402561C34.5992 0.352682 34.6665 0.325475 34.7361 0.325475L39.1169 0.316406C39.3527 0.316406 39.4694 0.602076 39.3033 0.76985L33.3328 6.79839C33.1958 6.93669 33.0094 7.01377 32.8141 7.01377V7.01604Z" fill="#2A211C"/>
</g>
<defs>
<clipPath id="clip0_272_47300">
<rect width="160" height="29" fill="white" transform="translate(0 0.316406)"/>
</clipPath>
</defs>
</svg>
