<svg width="447" height="64" viewBox="0 0 447 64" fill="none" xmlns="http://www.w3.org/2000/svg">
<path d="M25.9497 61.976C25.7448 62.0616 25.411 62.0196 25.1595 62.0793C24.1041 62.3228 23.6928 62.3188 22.728 62.4532C21.3161 62.7275 17.0213 63.1653 17.0273 62.1969C17.0273 62.1969 17.0273 62.1969 17.0273 62.1968C17.0272 62.1879 17.0276 62.1789 17.0283 62.1698C17.0421 61.997 17.3907 61.8032 17.4378 61.6057C17.4844 61.408 17.4223 60.1472 17.8877 60.0594C18.5599 59.9531 20.222 60.1193 20.588 60.046C20.835 60.0037 21.1261 59.846 21.4362 59.7753C22.439 59.5427 22.9891 59.5124 23.8094 58.9919C24.2048 59.0635 24.6051 59.1268 25.0088 59.1815C25.4538 58.976 26.2202 58.9543 26.4974 58.8428C26.724 58.7531 26.8133 58.5824 27.0466 58.4887C27.3082 58.3825 27.7645 58.3565 28.2309 58.1325C28.9912 57.7623 28.9766 57.3845 29.4001 57.1258C29.838 56.8564 30.63 56.6302 31.1213 56.1776C31.1707 56.1025 31.2194 56.0272 31.2673 55.9518C31.1726 55.9123 31.0784 55.8723 30.9846 55.8317C31.2344 55.626 31.4453 55.6937 31.6932 55.5276C31.9832 55.3312 32.0293 55.0929 32.2153 54.9544C32.3676 54.8408 32.652 54.7864 32.8394 54.622C33.1104 54.383 32.9258 54.2879 33.0473 54.1368C33.1098 54.0848 34.0425 53.0441 34.0796 52.9782C34.4737 52.5389 34.7012 52.6678 35.0213 52.3094C35.9027 51.3065 36.3864 50.0095 36.7205 48.8777C36.8741 48.3681 37.0452 47.8467 37.2022 47.3391C37.4813 47.9423 37.9522 47.5257 37.9815 47.193C38.0016 46.9842 37.8547 46.8456 37.4106 47.0418C37.678 46.459 37.4657 45.9789 37.573 45.4124C37.64 45.0427 37.8067 44.7928 37.819 44.2526C37.8428 43.2826 37.3275 42.3188 38.023 41.9508C37.7505 40.8512 37.7222 39.824 36.9747 39.6495C36.8564 39.399 36.9629 38.5814 36.872 38.2595C36.8462 37.9415 35.7936 35.7937 35.5112 35.4994C35.2854 35.1785 34.8444 34.6449 34.574 34.4454C34.2268 34.1842 33.5821 34.4851 33.5626 33.407C33.3488 33.2466 33.1782 33.1215 33.0258 33.0048C32.6867 32.7445 32.4561 32.5344 32.0259 32.1794C31.913 32.0875 31.9606 31.9787 31.8879 31.9336C31.7375 31.8406 31.4347 31.7621 31.1531 31.6221C30.6904 31.3923 30.524 31.045 30.4133 31.4109C30.0789 31.3206 29.7425 31.2412 29.4048 31.1718C29.3225 31.0591 29.2382 30.9469 29.152 30.8352C28.9521 30.8435 28.753 30.8551 28.555 30.8699C28.9439 30.4176 27.6019 30.3189 27.9105 30.7501C27.3183 30.4451 26.7022 30.1678 26.0715 29.9231C26.2876 29.3164 24.6257 29.5998 24.7252 29.9691C24.6517 29.9592 24.5776 29.9498 24.5035 29.9408C24.3702 29.89 24.2345 29.8547 24.1012 29.8298L24.2244 29.8347C24.0304 29.8293 23.7739 29.8083 23.4547 29.6371C23.1374 29.476 22.804 29.0799 22.723 28.6681C22.5597 27.8366 23.0177 27.2449 23.5293 26.9825L23.6076 26.9459C23.9148 26.8156 24.2301 26.6583 24.6177 26.518C25.3687 26.236 25.3305 26.3116 25.6931 26.4299C25.8489 26.3143 26.002 26.1961 26.153 26.0749C26.5035 24.858 27.2297 26.0835 28.1236 24.4549C28.8738 24.4392 29.6326 23.2019 29.9492 22.3731C29.9886 22.2769 29.908 22.2256 29.9514 22.0951C30.0676 21.7847 30.5256 21.0873 30.2213 20.9928C30.2691 20.9374 30.3161 20.8813 30.3624 20.8245C30.4979 20.6553 30.6304 20.4735 30.7574 20.2844C30.7724 20.0404 30.778 19.7971 30.7744 19.5558C30.6799 19.5358 30.5854 19.5158 30.491 19.4958C30.9201 19.1165 30.8939 18.3445 30.991 17.9847C31.0115 17.9122 31.1471 17.9051 31.1934 17.673C31.2496 17.4013 31.2089 16.8894 31.2314 16.5592C31.0776 16.4387 30.9221 16.3228 30.7652 16.2106C30.6373 15.6521 30.9906 15.4018 30.9681 15.0519C30.9734 14.9882 30.7217 13.8727 30.69 13.8162C30.5186 13.3855 30.2867 13.5249 29.976 12.5137L29.9893 12.5528C29.9544 12.4541 29.9172 12.3444 29.8766 12.2222C29.7991 11.9893 29.8261 11.7615 29.7358 11.5546C29.5907 11.1761 28.7615 10.2851 28.5047 10.3594C28.5161 9.7958 27.6087 8.88868 27.399 8.57656C27.3384 8.47779 27.4598 8.3224 27.23 8.0472C27.0449 7.81959 26.3804 7.45508 26.1024 7.2207C25.8094 6.9666 25.7839 6.75684 25.6438 6.64742C25.5105 6.54498 25.3112 6.56968 25.1198 6.44996C24.5246 6.07574 24.0437 5.59384 23.5235 5.35267C22.7696 5.00372 21.9469 5.11801 21.2588 5.08798C21.1065 5.01584 20.9706 4.89074 20.8004 4.8438C20.7298 4.82425 20.6588 4.80498 20.5873 4.78601C18.5795 4.26413 16.0798 4.05145 13.8823 4.02833C12.829 3.98615 10.1361 3.74851 10.9376 4.5433C10.5925 4.70591 7.94587 4.79581 7.47221 4.95016C7.01452 5.06104 6.69328 5.3034 6.3596 5.42854L6.32714 5.43875C6.31227 5.44405 6.29731 5.44911 6.28225 5.4539C5.36228 5.76423 4.63253 6.03571 4.23409 6.89182C4.1374 7.11805 4.22837 7.41119 4.19231 7.53602C4.14675 7.68654 3.9329 7.83995 3.90412 8.09384C3.89978 8.13342 3.8963 8.17629 3.8939 8.22244L3.89323 8.2411C3.83966 9.11712 3.85626 10.5515 3.82126 11.3156C3.81367 11.4654 3.65578 11.5161 3.60501 11.7302C3.40624 12.5642 3.42876 13.5049 3.93018 13.3359C3.65009 14.4088 3.92541 15.3997 3.96174 16.3948C4.03401 18.4977 4.04548 22.3568 4.30587 24.2055C4.43116 25.0912 4.59064 25.2835 4.59188 26.0853C4.59135 26.3386 4.57501 26.6546 4.53656 27.0628C4.50106 27.4443 4.45055 27.8218 4.40874 28.2864C4.31015 29.3699 3.91572 30.3701 4.43567 31.1825C4.33265 32.3861 4.44747 33.3396 4.04026 34.2409C4.14565 34.3434 4.25105 34.4459 4.35647 34.5483C4.36261 34.6954 4.36878 34.8427 4.37496 34.9898C4.27801 35.0381 4.18106 35.0864 4.08411 35.1347C4.08376 36.1902 4.52156 37.5165 4.54277 38.409C4.57701 39.906 4.53403 43.7587 4.45239 45.1821C4.40777 45.9313 4.61963 45.969 4.2035 46.4153C4.23975 46.585 4.27576 46.7455 4.31222 46.9154C4.41076 47.0187 4.50928 47.1205 4.6078 47.221C4.63039 47.754 4.61021 48.3376 4.59634 48.9081L4.59582 48.8975C4.58829 49.3673 4.58272 49.8202 4.60966 50.2214C4.69549 51.6689 5.13896 53.6347 5.63044 54.8628L5.64434 54.8957C5.70186 55.061 5.75744 55.2138 5.81249 55.3643C5.9237 55.6798 5.99729 56.1535 6.21826 56.4263C6.54543 56.8181 6.85825 56.6885 7.32517 57.0945C8.08434 57.8211 9.94712 59.1026 11.1088 59.3592C11.4432 59.4452 11.6292 59.3668 11.8625 59.4098C12.8425 59.5828 13.6647 59.7176 14.6409 59.6255C15.6448 60.0223 15.5435 60.4018 15.8592 60.8233C16.0932 61.1415 16.8917 61.8577 17.0128 62.1209C17.0965 62.3081 16.7901 62.5507 16.9061 62.7568C15.5048 62.9141 14.9083 62.6855 13.822 62.2754C11.7572 62.039 9.67545 61.5681 7.71492 60.589C7.58868 60.3979 7.46955 60.2053 7.35611 60.0104C7.35623 60.0101 7.35636 60.0099 7.35648 60.0097C6.71659 59.4855 6.27742 59.5095 5.86878 59.2737C4.85886 58.6856 3.69107 57.5633 3.0082 55.9719L3.02132 56.003C1.99957 53.7814 1.93794 51.2372 1.88706 49.0398L1.88656 49.0297C1.85658 46.9298 1.8724 44.9521 1.84846 43.4036C1.8328 42.4657 1.59395 39.4402 1.76044 38.7934C1.80359 38.6257 1.9761 38.5749 1.97893 38.3991C1.83324 36.8269 1.69015 35.2546 1.54915 33.6818C1.69635 31.2028 1.55935 28.664 1.44232 26.1525C1.40384 25.3829 1.36353 24.6113 1.33196 23.8435C1.12012 18.617 0.812184 13.3872 0.986934 8.11883L0.986337 8.13541C0.874717 5.5133 3.31915 3.18212 5.49304 2.67539L5.4625 2.68499C7.08355 2.15614 8.71377 1.85403 10.3422 1.66079C12.0762 1.45041 14.2851 1.22919 15.998 1.37834C16.7138 1.44119 16.9878 1.73092 17.9425 1.60723C17.9453 1.68303 17.948 1.75883 17.9506 1.83463C18.7713 1.8259 19.3187 1.71978 20.2535 1.87584C20.493 1.9172 20.8666 1.98925 21.2773 2.09101C22.1859 2.31104 23.2798 2.70088 23.7231 2.90708C24.0572 3.05921 23.8769 3.13617 24.1889 3.27004C24.7218 3.49125 25.9301 3.88733 26.621 4.33739C27.2575 4.72611 28.1532 5.61691 28.5851 5.98537C30.1724 7.26645 31.7865 9.04269 32.5416 11.187C32.588 11.3171 32.6282 11.4594 32.6621 11.6042L32.6771 11.6485C32.7729 12.1325 32.797 12.6353 32.8371 12.7732C32.9389 13.1195 33.1352 13.1836 33.213 13.4188C33.6258 14.6129 33.6376 16.6308 33.5413 17.8869C33.4727 19.1646 33.228 20.4821 32.756 21.7387C31.6252 24.6206 29.4387 26.7161 27.13 28.1919C26.4624 28.6127 25.6311 29.0801 24.6911 29.479L24.7789 29.4379C25.157 29.2392 25.5425 28.8012 25.4171 28.0763C25.3547 27.7168 25.0541 27.3488 24.7824 27.2127C24.5092 27.0664 24.3207 27.0629 24.2047 27.0609L24.3405 27.0663C26.3839 27.2453 28.4494 27.8339 29.7592 28.4136C30.211 28.6143 30.0175 28.748 30.3978 28.9019C30.8178 29.0759 31.0966 29.0613 31.2968 29.1427C32.1089 29.4697 33.4834 30.1361 34.6094 31.0347L34.601 31.0279C35.372 31.6234 36.0213 32.2736 36.381 32.7413C36.5486 32.9582 36.5645 33.2062 36.6704 33.3274C36.7237 33.3891 36.9232 33.4613 37.0947 33.6559C38.5849 35.3872 39.3367 36.9532 39.9655 39.0925C40.7214 41.7168 40.8833 44.7765 40.303 47.664C39.9835 49.3439 39.348 50.9645 38.4728 52.3551C37.9446 53.1947 37.2879 53.5396 37.2122 53.6478C37.036 53.8852 37.0805 54.1648 36.7192 54.6581C35.5184 56.3276 33.209 57.816 31.6229 58.806C30.8446 59.3144 29.8017 60.1081 28.9694 60.5135C28.3112 60.8552 26.6429 61.3296 26.3645 61.5224C26.1962 61.646 26.1715 61.8821 25.9497 61.976ZM37.9914 43.6776C38.3516 43.785 38.0073 42.5994 37.8417 43.0578C37.8073 43.1577 37.9022 43.6488 37.9914 43.6776ZM17.9856 3.72801C17.9869 3.82851 17.988 3.92901 17.9889 4.0295C18.1572 4.00542 18.3209 3.98236 18.4908 3.96172C18.4064 3.89068 18.3213 3.8201 18.2367 3.75008C18.1536 3.74237 18.0699 3.73501 17.9856 3.72801ZM12.7269 33.8625C12.6299 33.8948 12.4832 33.776 12.3639 33.7799C11.8723 33.7947 11.6798 33.7237 11.2363 33.7217C10.5644 33.7086 8.6636 34.1771 8.51178 33.29C8.51178 33.2899 8.51178 33.2899 8.51177 33.2899C8.51024 33.2811 8.50888 33.2722 8.50769 33.2632C8.48404 33.0914 8.61671 32.8767 8.60973 32.6794C8.60284 32.4819 8.36947 31.2378 8.61179 31.126C8.9525 30.9731 9.87462 31.1684 10.0571 31.1317C10.1866 31.1046 10.3378 30.9693 10.5005 30.9288C11.0388 30.7974 11.3304 30.8509 11.7901 30.4924C12.0028 30.6374 12.2168 30.7835 12.4238 30.9314C12.6735 30.8335 13.0769 31.0216 13.2302 30.9996C13.3564 30.9813 13.4247 30.8465 13.5567 30.8324C13.7042 30.816 13.9402 30.9432 14.2116 30.9094C14.6504 30.8555 14.722 30.5142 14.9886 30.4626C15.2657 30.4094 15.7041 30.5852 16.0586 30.464C16.1032 30.4263 16.148 30.3888 16.1929 30.3513C16.1604 30.2669 16.1277 30.1826 16.0949 30.0982C16.2769 30.0581 16.3546 30.2313 16.52 30.2351C16.7148 30.2399 16.8167 30.077 16.9493 30.0797C17.0587 30.0821 17.2011 30.2163 17.3412 30.2115C17.5454 30.2053 17.5063 30.0143 17.618 29.9821C17.663 29.9676 18.4825 29.897 18.5305 29.9002C18.8821 29.9123 18.8963 30.1743 19.1731 30.2162C19.9387 30.3325 20.7522 30.2061 21.4844 30.2282C21.8108 30.2377 22.1449 30.3048 22.4579 30.401C21.8505 30.9717 22.852 31.6726 22.6272 30.575C22.9537 30.7845 23.258 30.558 23.5858 30.6767C23.7968 30.7541 23.9149 30.9281 24.2233 30.9987C24.7661 31.1208 25.4854 30.9035 25.4253 31.662C26.0953 31.728 26.5356 32.1778 26.9956 31.6527C27.1765 31.6777 27.4426 32.2063 27.5971 32.3322C27.7532 32.4384 28.9308 33.2117 29.1159 33.3459C29.3101 33.4653 29.6485 33.6817 29.8418 33.7383C29.8917 33.7528 29.9528 33.7445 30.0183 33.7301L30.0269 33.7357C30.2849 33.6853 30.6417 33.5652 30.5435 34.2891C30.9949 34.5675 31.1242 34.7166 31.4039 35.1214C31.4538 35.1954 31.376 35.2849 31.4111 35.3211C31.4831 35.3953 31.6686 35.465 31.8001 35.5982C32.0172 35.8188 31.9302 36.1119 32.2041 35.8467C32.3819 35.9653 32.558 36.0911 32.7305 36.2216C32.7136 36.3233 32.6953 36.4242 32.6758 36.5244C32.803 36.5681 32.9306 36.615 33.0576 36.6638C32.5323 36.8548 33.2037 37.3222 33.3444 36.9513C33.4558 37.3543 33.5433 37.7565 33.6097 38.1558C33.0308 38.3747 33.888 38.9485 34.1718 38.7635C34.1885 38.8054 34.2049 38.8475 34.2211 38.8896C34.2112 39.3158 34.4595 39.6095 34.4895 40.0995C34.514 40.5859 34.4383 40.5591 34.1963 40.7655C34.2385 40.8662 34.2796 40.9676 34.3196 41.0697C35.2064 41.4757 33.8677 41.6231 34.5914 42.4856C34.1412 42.8502 34.4563 43.558 34.6029 44.0707C34.6204 44.1296 34.7164 44.1307 34.7454 44.2103C34.8179 44.4064 34.6723 44.8957 34.9804 44.8971C34.881 45.0668 34.7785 45.2321 34.6729 45.3948C34.7154 45.54 34.7555 45.6867 34.793 45.8348C34.8889 45.8465 34.9847 45.8582 35.0806 45.8698C34.7188 46.1166 34.7673 46.5767 34.6428 46.7823C34.618 46.8225 34.4862 46.8049 34.4215 46.9296C34.3456 47.0753 34.3125 47.3729 34.2204 47.5439C34.3426 47.6548 34.4633 47.7681 34.5826 47.884C34.5554 48.2468 34.1435 48.2392 34.0476 48.4164C34.0352 48.4497 33.8126 49.0763 33.8008 49.1111C33.735 49.4031 34.0936 49.48 33.6044 50.2234C33.5148 50.354 33.351 50.4033 33.2726 50.5199C33.2243 50.5914 33.1702 50.7303 33.1217 50.8893L33.1296 50.8775C33.0472 51.1716 32.9815 51.538 33.0828 51.6644C32.6646 51.7322 32.2463 52.4184 32.0172 52.5294C31.9494 52.563 31.7983 52.4456 31.6218 52.5706C31.4813 52.6708 31.2699 53.0938 31.0899 53.222C30.8998 53.3583 30.7307 53.2911 30.6461 53.35C30.5661 53.4054 30.582 53.5632 30.4799 53.6473C30.1576 53.9097 29.7337 53.9687 29.4723 54.1523C29.0935 54.4174 28.9616 54.9636 28.7097 55.3188C28.6122 55.3493 28.4867 55.3283 28.3975 55.3801C27.2925 56.0227 25.9608 56.5486 24.7499 56.8816C24.1838 57.0544 22.6695 56.9258 23.2636 57.6661C23.104 57.88 21.575 57.8642 21.3019 57.8938C21.0257 57.9374 20.8306 58.1264 20.6108 58.1607C19.9472 58.2609 19.4725 58.202 18.6663 58.3876C18.4585 58.4353 18.2381 58.6293 18.1109 58.631C17.9581 58.6327 17.791 58.4572 17.5962 58.4473C17.1294 58.4295 16.2559 58.4576 15.8084 58.3867C15.7266 58.374 15.7108 58.215 15.5993 58.1556C15.1677 57.9252 14.6683 57.8711 14.6874 58.3808C14.1436 58.0182 13.5668 58.1754 13.0186 58.0639C12.3776 57.935 11.4652 57.6416 10.6237 57.3027L10.6661 57.3194C9.87801 57.0412 9.09467 56.5582 8.58241 56.1573C7.89562 55.5858 7.61526 55.6554 7.28002 54.4222C7.22104 54.1537 7.19619 53.8906 7.16919 53.5905C7.10924 52.882 7.45487 52.2918 6.90347 51.9026C6.95928 51.2321 6.83632 50.7517 7.23241 50.269C7.12619 50.2233 7.02001 50.1776 6.91381 50.1314C6.90632 50.0573 6.89881 49.9823 6.89146 49.9097C6.98786 49.8803 7.08425 49.8509 7.18064 49.8215C7.17989 49.7745 7.17568 49.7264 7.16859 49.6774C7.09462 49.1774 6.72493 48.6 6.70469 48.1876C6.66424 47.4278 6.73154 45.4816 6.83615 44.7623C6.89101 44.3827 6.68024 44.3684 7.1033 44.1357C7.06994 44.0525 7.03661 43.9692 7.00329 43.8857C6.90671 43.8364 6.81015 43.787 6.71358 43.7375C6.6911 43.2532 6.81664 42.6711 6.7986 42.2101C6.76519 41.3685 6.46195 40.115 6.60425 39.2657C6.64014 39.0521 6.82616 38.7824 6.81688 38.5746C6.80359 38.2733 6.4776 38.2111 6.45843 37.8291C6.42615 37.1711 6.75857 35.9314 6.70608 35.3109C6.69078 35.1266 6.56718 35.0466 6.54936 34.9185C6.47357 34.3888 6.46546 33.9466 6.25744 33.4452C6.33364 33.295 6.41801 33.1882 6.50832 33.108L6.50706 33.0594C6.81101 32.3865 7.17337 32.5448 7.51624 32.4929C7.70015 32.4776 8.01569 32.5084 8.23262 32.6633C8.46583 32.8043 8.51411 33.0878 8.38296 33.2268C8.25586 33.4353 8.76052 33.5969 8.65018 33.8278C8.93496 33.7694 8.96265 33.7354 9.0354 33.6986C9.0956 33.6619 9.13915 33.6198 9.1783 33.5605C9.25512 33.4469 9.3053 33.241 9.25806 33.0399L9.25663 32.9847C9.19917 33.1714 9.10288 33.3638 8.98803 33.5983C9.04175 34.5935 9.09019 35.5858 9.13704 36.5791C9.02757 36.673 8.91809 36.7672 8.80861 36.8615C8.80836 36.8615 8.80812 36.8615 8.80787 36.8615C8.69126 37.2483 8.98689 37.3979 9.05988 37.6022C9.75837 39.5484 9.39117 43.4293 9.41784 45.5866C9.42182 46.0522 9.64738 47.5523 9.48357 47.8787C9.44049 47.9636 9.2682 47.9962 9.26553 48.0837C9.3566 48.5647 9.44981 49.0431 9.54635 49.518C9.60576 49.8195 9.66447 50.115 9.72488 50.4055C9.55886 51.9975 9.99136 53.6201 10.7892 54.1683C11.0254 54.3598 11.3229 54.5122 11.6778 54.6323L11.7092 54.6446C15.0731 55.8819 18.8959 55.7289 22.3877 54.8647C23.1527 54.6763 24.0503 54.2399 24.7831 54.026C25.0871 53.9375 25.3283 54.139 25.6214 53.7737C25.6573 53.84 25.6932 53.9062 25.7292 53.9724C26.027 53.731 26.1559 53.4755 26.5062 53.2664C26.803 53.0965 27.5662 52.6161 27.8243 52.4658C27.96 52.39 27.9925 52.5385 28.1121 52.4535C28.3186 52.307 28.6226 51.8325 28.8756 51.6161C29.1103 51.4221 29.5971 51.1908 29.7458 51.0045C30.157 50.5021 30.4711 49.8876 30.7976 49.3219L30.8073 49.3076C30.9081 49.137 31.0115 48.9677 31.1233 48.8029C31.2534 48.6148 31.5503 48.4248 31.5776 48.3532C31.6303 48.2161 31.4857 48.1044 31.503 48.008C31.5941 47.5251 32.0239 46.8608 32.133 46.3711C32.5078 44.7985 32.3886 43.0149 32.0363 41.4325C31.8423 40.413 31.1414 38.8659 30.7073 38.0396C30.618 37.8575 30.8072 37.7903 30.7069 37.6502C30.5939 37.4952 30.4264 37.4947 30.3642 37.4331C29.9649 37.0092 29.034 36.2932 28.5857 35.9089L28.595 35.915C28.5643 35.8877 28.536 35.861 28.5104 35.8352C28.4295 35.753 28.4389 35.5804 28.3796 35.5449C28.3497 35.5268 28.2292 35.5748 28.1303 35.5291C27.2552 35.1322 26.6436 34.7869 25.7569 34.4144C24.0492 33.7012 21.866 33.4541 19.9019 33.1598C19.4735 33.0943 19.1979 32.7732 19.1358 32.7714C19.0001 32.7674 18.8989 32.9622 18.6241 32.9952C17.7128 33.1006 16.4955 32.8635 15.6277 32.982C15.1974 33.0384 14.6207 33.3146 14.2071 33.3926C13.8746 33.4524 13.0806 33.405 12.941 33.5303C12.8557 33.6052 12.8314 33.8265 12.7269 33.8625ZM24.5084 31.244C24.3579 31.5642 25.0938 31.462 24.8954 31.2138C24.8501 31.157 24.547 31.1598 24.5084 31.244ZM26.6329 55.6253C26.6815 55.7127 26.7301 55.8001 26.7789 55.8875C26.8425 55.8111 26.9053 55.7343 26.9672 55.6573C26.8954 55.6259 26.824 55.5941 26.7528 55.5619C26.713 55.5831 26.673 55.6043 26.6329 55.6253ZM9.78122 9.2103C9.71528 9.2518 9.58442 9.15057 9.49845 9.16672C9.14338 9.23305 8.98981 9.18522 8.66933 9.23798C8.52316 9.26281 8.306 9.33996 8.07981 9.4181L7.9746 9.45795C8.19405 9.36396 8.17796 9.3262 8.21024 9.26667C8.22942 9.21051 8.22719 9.14012 8.18983 9.08242C8.11335 8.95534 7.91134 8.97345 7.6 8.98523C7.59998 8.98523 7.59995 8.98523 7.59993 8.98523C7.59102 8.98529 7.582 8.9853 7.57287 8.98525C7.39888 8.98972 7.21247 8.9103 7.02145 8.86575C6.83547 8.82015 5.5467 8.71871 5.57894 8.29518C5.60476 8.02845 5.8462 7.62586 6.16834 7.37661C6.48876 7.11794 6.84868 6.9944 7.10963 6.9231L7.04812 6.9464C7.0668 6.94142 7.08216 6.93606 7.0936 6.93014C7.19505 6.8776 7.28411 6.7189 7.41585 6.64837C7.83795 6.42449 8.08948 6.43465 8.40586 6.01782C8.61088 6.1306 8.81467 6.2463 9.01273 6.36575C9.20092 6.2384 9.5618 6.37807 9.68412 6.33973C9.78414 6.30797 9.81634 6.16813 9.92361 6.14004C10.0433 6.10801 10.2555 6.20945 10.4687 6.15033C10.8214 6.05455 10.8346 5.71042 11.0477 5.63501C11.2723 5.5568 11.6475 5.69449 11.9267 5.54537C11.9598 5.50431 11.9923 5.46341 12.0253 5.42255C11.9905 5.34113 11.9557 5.25977 11.9202 5.17852C12.0654 5.12404 12.1463 5.29028 12.2838 5.28112C12.4444 5.27084 12.5137 5.10095 12.6238 5.09359C12.714 5.08777 12.8426 5.21105 12.9579 5.19609C13.1266 5.17517 13.0788 4.98769 13.1687 4.94754C13.2034 4.92951 13.8804 4.80295 13.9189 4.80339C14.2118 4.79227 14.2377 5.05294 14.4677 5.07717C15.105 5.14482 15.7712 4.97127 16.3807 4.95252C16.6522 4.94378 16.9309 4.99244 17.1911 5.07124C16.6916 5.6729 17.5137 6.31476 17.3317 5.23529C17.5177 5.3657 17.6921 5.2939 17.8742 5.26761L17.8371 5.26141C17.924 5.24792 18.0122 5.24438 18.1017 5.27538C18.2847 5.33961 18.3863 5.50538 18.65 5.55942C19.1123 5.65149 19.7501 5.41465 19.6558 6.16458C20.2277 6.2078 20.564 6.63863 21.0103 6.11794C21.1655 6.13959 21.3456 6.65269 21.4623 6.7719C21.588 6.87378 22.5055 7.60698 22.6451 7.73185C22.7972 7.84452 23.0583 8.04596 23.2195 8.0982C23.4155 8.15954 23.9742 7.73248 23.7328 8.57331C24.0865 8.79944 24.1819 8.92295 24.3847 9.26231C24.4211 9.32419 24.3408 9.41112 24.3683 9.44035C24.425 9.50035 24.5852 9.54512 24.6919 9.65066C24.868 9.82525 24.7621 10.0914 25.0384 9.82988C25.1916 9.9165 25.344 10.0083 25.4948 10.1042C25.4711 10.1949 25.4464 10.285 25.4207 10.3745C25.5366 10.3991 25.6528 10.4259 25.7691 10.4548C25.2605 10.6773 25.8649 11.0096 26.0218 10.674C26.1027 11.0108 26.1656 11.3471 26.2115 11.6815C25.6424 11.9264 26.4461 12.3257 26.7305 12.1435C26.7452 12.1776 26.7597 12.2118 26.774 12.2461C26.7499 12.6085 26.9838 12.8349 27.0015 13.2428C27.0147 13.6487 26.9408 13.6296 26.6975 13.8185C26.7371 13.8986 26.7762 13.9809 26.8137 14.0614C27.687 14.3405 26.3535 14.5432 27.0706 15.2061C26.8014 15.3995 26.8091 15.6667 26.8903 15.9476C26.9454 16.1406 27.0339 16.3313 27.0995 16.4954C27.1184 16.543 27.2143 16.5412 27.2453 16.6054C27.3221 16.7633 27.1924 17.1642 27.5006 17.1603C27.407 17.3019 27.311 17.4356 27.2121 17.5719C27.2604 17.6907 27.3067 17.8105 27.3509 17.9314C27.4471 17.9406 27.5432 17.9497 27.6393 17.9589C27.2891 18.1659 27.3613 18.5431 27.249 18.7136C27.2267 18.7465 27.0947 18.7306 27.0377 18.8321C26.9709 18.951 26.956 19.1977 26.8766 19.3364C27.0044 19.4319 27.131 19.5298 27.2562 19.6302C27.2537 19.9338 26.8486 19.9143 26.7682 20.0586C26.7577 20.0853 26.5916 20.603 26.5844 20.6316C26.548 20.8757 26.8954 20.9564 26.5035 21.5666C26.4322 21.6734 26.2818 21.7075 26.2213 21.8032C26.1206 21.9724 26.0051 22.6227 26.167 22.8037C25.78 22.8417 25.4694 23.431 25.2706 23.5188C25.2118 23.5452 25.0596 23.4294 24.9121 23.5311C24.7939 23.6136 24.6504 23.9832 24.5004 24.0902C24.3428 24.203 24.1835 24.1295 24.114 24.1777C24.0484 24.2231 24.0801 24.3694 23.9974 24.4404C23.7361 24.6616 23.3669 24.6863 23.1561 24.839C22.8513 25.0592 22.7908 25.5649 22.6041 25.8857C22.522 25.908 22.4106 25.88 22.3385 25.923C21.4415 26.459 20.3563 26.8869 19.3786 27.1588C19.3719 27.1607 19.365 27.1625 19.3579 27.1643C18.8917 27.2943 17.6912 27.1489 18.2317 27.8799C18.1177 28.0826 16.8832 28.0577 16.67 28.0965C16.4534 28.1435 16.3171 28.335 16.1466 28.3752C15.6321 28.4947 15.2501 28.4565 14.6472 28.7C14.4913 28.7631 14.3474 28.9744 14.2503 28.9878C14.1333 29.0035 13.9813 28.8459 13.83 28.8571C13.4698 28.8865 12.8136 29.0331 12.4687 29.0417C12.4057 29.0431 12.3653 28.8894 12.271 28.8508C11.9042 28.7 11.5221 28.7554 11.6411 29.2482C11.1688 29.01 10.7858 29.3059 10.3764 29.356C9.74516 29.4335 8.73469 29.4472 7.95729 29.5454L7.86471 29.5487C7.35123 29.5459 6.98617 29.4714 6.49598 29.1735C6.01016 28.8885 5.61284 28.2293 5.53506 27.7645C5.50769 27.6387 5.49286 27.5278 5.4839 27.4261L5.4855 27.4904C5.33511 27.106 5.14426 27.0859 5.30041 26.4282C5.33723 26.2748 5.38906 26.1195 5.4329 25.9314C5.53625 25.4935 5.93627 25.0774 5.42213 24.7663C5.5332 24.2787 5.42625 23.8966 5.84139 23.5242C5.73699 23.4859 5.63259 23.4476 5.52819 23.4092C5.52341 23.35 5.51864 23.2907 5.51386 23.2314C5.61122 23.2093 5.70858 23.1873 5.80594 23.1653C5.81649 22.742 5.39371 22.2175 5.38377 21.8599C5.36628 21.2586 5.46904 19.7038 5.5826 19.1297C5.64277 18.8252 5.43222 18.8157 5.85821 18.628C5.82594 18.5611 5.79368 18.4947 5.76143 18.428C5.66551 18.3888 5.56959 18.3496 5.47367 18.3103C5.45718 17.9218 5.58925 17.4567 5.5761 17.0871C5.55174 16.4133 5.26078 15.4089 5.41201 14.7268C5.45015 14.5557 5.639 14.3382 5.63203 14.1719C5.6221 13.93 5.29687 13.8809 5.28219 13.5736C5.25742 13.0448 5.60683 12.0494 5.56534 11.5497C5.5532 11.4015 5.43104 11.3355 5.41557 11.2329C5.34945 10.804 5.35057 10.4506 5.15465 10.0424C5.45421 9.59144 5.8555 9.62191 6.25617 9.47452C6.55857 9.36291 7.2578 9.02898 7.52379 8.97831C7.71065 8.94252 7.9546 9.05497 8.16007 9.00606C8.33691 9.53036 8.16067 9.75656 7.88057 10.1937C7.9113 10.9866 7.94324 11.7797 7.97623 12.5727C7.86548 12.6479 7.75475 12.7231 7.64403 12.7984C7.64378 12.7984 7.64354 12.7984 7.64329 12.7984C7.52156 13.1071 7.81536 13.228 7.88581 13.3905C8.55928 14.9459 8.1616 18.0557 8.15082 19.7905C8.14825 20.1639 8.34276 21.3728 8.16921 21.6356C8.12394 21.7036 7.9509 21.7283 7.94588 21.7991C8.07197 22.4259 8.19863 23.0518 8.32592 23.6773C8.11973 24.9003 8.34846 26.1429 8.45899 27.3631L8.46004 27.405C8.46576 27.317 8.43699 27.142 8.33968 26.9957C8.23174 26.8293 8.09742 26.7519 8.02835 26.7207C7.9499 26.6888 7.93674 26.6818 7.84432 26.6763L7.77761 26.6787C11.0901 26.3658 14.3044 25.9629 17.2751 25.106C17.6382 25.0013 18.0382 24.8208 18.4214 24.6563C18.6863 24.5451 18.936 24.4441 19.1703 24.3804C19.4132 24.3132 19.6285 24.5238 19.8381 24.1924C19.874 24.2586 19.91 24.3247 19.946 24.3908C20.1693 24.1804 20.2528 23.9448 20.5219 23.7748C20.7528 23.635 21.3397 23.2507 21.5419 23.1357C21.6487 23.0773 21.6943 23.2176 21.786 23.1498C21.9443 23.0328 22.147 22.6255 22.3383 22.4543C22.5155 22.3014 22.9131 22.1394 23.0205 21.9885C23.4143 21.4502 23.6211 20.7657 23.9791 20.2247C24.0798 20.076 24.3438 19.9391 24.3628 19.8823C24.3993 19.7734 24.2487 19.6738 24.2554 19.5974C24.2927 19.214 24.6577 18.7171 24.7346 18.3387C24.8866 17.6388 24.9018 16.8784 24.8273 16.114C24.773 15.5677 24.6742 15.0319 24.55 14.5198C24.3837 13.736 23.7974 12.5679 23.4648 11.9036C23.3965 11.7575 23.578 11.678 23.4964 11.5679C23.405 11.4461 23.2505 11.4633 23.1989 11.4159C22.8462 11.0703 22.0037 10.4429 21.7143 10.074C21.6613 10.0012 21.7003 9.84116 21.6568 9.8101C21.6349 9.79419 21.5253 9.84264 21.4512 9.80378C20.7934 9.46485 20.3555 9.15999 19.6962 8.84226C19.0127 8.51844 18.1998 8.32625 17.3746 8.22665L17.3462 8.2219C16.6179 8.11545 15.8794 8.05172 15.1694 7.96937C14.8348 7.93048 14.6056 7.62746 14.5569 7.62953C14.4499 7.63418 14.3801 7.83498 14.1683 7.8856C13.4673 8.04908 12.5043 7.89732 11.8458 8.08399C11.521 8.17339 11.1131 8.49506 10.8107 8.60867C10.5674 8.69598 9.96105 8.72483 9.87887 8.86294C9.82845 8.94508 9.85145 9.16447 9.78122 9.2103ZM18.89 5.78877C18.7535 6.11257 19.3816 5.97838 19.2223 5.74171C19.1854 5.68726 18.9251 5.70338 18.89 5.78877ZM20.8517 26.0413C20.9003 26.1286 20.949 26.2159 20.9978 26.3032C21.045 26.2335 21.0918 26.1635 21.1375 26.0934C21.0738 26.0586 21.0104 26.0234 20.9474 25.9879C20.9156 26.0058 20.8834 26.0237 20.8517 26.0413ZM93.9786 60.137C93.6936 60.302 93.22 60.3764 92.8648 60.5225C91.3696 61.1221 90.774 61.2312 89.3766 61.6038C87.3432 62.3337 80.9766 63.0652 80.9892 62.025C80.9892 62.025 80.9892 62.025 80.9892 62.025C80.9891 62.016 80.9897 62.007 80.9908 61.9979C81.0124 61.8256 81.5308 61.6281 81.6005 61.4289C81.6702 61.2294 81.5829 59.9732 82.2691 59.8682C83.2643 59.7517 85.7032 59.7321 86.2344 59.5854C86.5955 59.5033 87.0147 59.2938 87.4653 59.1602C88.9126 58.7201 89.7032 58.5432 90.8487 57.7597C91.4108 57.7119 91.976 57.6449 92.5428 57.558C93.1575 57.1881 94.2139 56.8603 94.5854 56.6233C94.8899 56.4326 95.0011 56.2124 95.3113 56.0085C95.6575 55.7791 96.2724 55.5414 96.8712 55.0687C97.8462 54.2857 97.7853 53.8711 98.3074 53.3552C98.8445 52.8191 99.8202 52.109 100.364 51.2891C100.416 51.1725 100.466 51.0557 100.515 50.9386C100.395 50.9511 100.274 50.9625 100.154 50.9728C100.436 50.5808 100.699 50.53 100.976 50.1795C101.298 49.7661 101.319 49.4524 101.52 49.1669C101.683 48.9338 102.01 48.6803 102.2 48.3598C102.476 47.8908 102.25 47.8926 102.366 47.6255C102.436 47.5295 103.313 45.5831 103.336 45.4636C103.369 45.388 103.401 45.3192 103.432 45.2561C103.738 44.6195 103.985 44.58 104.237 43.9522C104.997 42.0292 105.255 39.8812 105.444 37.9623C105.53 37.103 105.641 36.2076 105.751 35.3442C106.306 36.7769 107.053 33.753 105.931 34.8271C106.143 33.8657 105.89 33.1605 105.96 32.2373C106.004 31.6392 106.154 31.2244 106.15 30.3619C106.14 28.8299 105.673 27.1618 106.399 26.6914C106.204 24.8825 106.394 23.2894 105.71 22.6606C105.649 22.1905 105.984 20.9626 106.015 20.4281C106.029 20.1923 106.039 19.219 106.06 18.1827L106.059 18.1575C106.109 16.9926 106.137 15.7713 106.13 15.4437C106.123 14.8263 106.076 13.7545 105.973 13.251C105.849 12.6372 105.197 12.2968 105.676 11.2046C105.698 11.1645 105.723 11.1292 105.749 11.0913C105.447 10.2849 105.186 9.98342 104.493 9.55C104.363 9.48488 104.377 9.36953 104.291 9.34822C104.109 9.30458 103.813 9.37122 103.583 9.46557C103.216 9.6051 102.846 9.74047 103.169 9.93112C103.099 10.0592 103.04 10.2068 102.992 10.374L103.009 10.3386C102.976 10.4898 102.953 10.682 102.945 10.8916C102.845 11.0143 102.75 11.1554 102.66 11.3073C102.713 11.5596 102.779 11.8153 102.854 12.0744C102.292 11.7354 102.656 13.673 102.956 13.0286C102.936 13.2841 102.922 13.5389 102.897 13.8555L102.895 13.7989C102.848 14.5827 102.803 15.3679 102.759 16.1541C102.129 16.0406 102.808 18.4503 103.136 18.2278C103.142 18.3475 103.147 18.4672 103.153 18.587C103.041 19.6435 103.225 20.6009 103.169 21.8882C103.11 23.1754 103.043 23.0573 102.77 23.4574C102.797 23.7578 102.823 24.0599 102.848 24.3607C103.673 25.9287 102.323 25.6733 102.937 28.3823C102.446 29.2505 102.673 31.3828 102.755 32.8126C102.765 32.9783 102.861 32.9851 102.88 33.2068C102.919 33.6576 102.785 34.6692 102.911 34.9917C102.937 35.0608 102.975 35.0983 103.028 35.0938C102.905 35.5738 102.772 36.0495 102.63 36.5205C102.642 36.9203 102.648 37.3205 102.646 37.7231C102.742 37.735 102.838 37.7468 102.934 37.7587C102.498 38.5091 102.385 39.7677 102.162 40.3603C102.119 40.4777 101.985 40.4736 101.858 40.8375C101.71 41.2632 101.524 42.0788 101.32 42.5769C101.398 42.8201 101.473 43.0642 101.544 43.3127C101.299 44.2622 100.802 44.4375 100.557 44.9467C100.53 45.0437 99.7554 46.7416 99.699 46.8266C99.346 47.5724 99.8323 47.5811 98.3929 49.5525C98.1278 49.8972 97.823 50.1045 97.5738 50.4043C97.1621 50.9509 95.8758 52.6205 95.8858 52.901C95.0717 53.284 93.3022 54.7131 92.6569 54.953C92.4681 55.0314 92.3344 54.8955 91.7774 55.1495C91.3995 55.3244 90.5865 55.8312 89.9619 56.0988C89.8367 56.1532 89.7235 56.198 89.6251 56.2312C88.9955 56.4401 88.7189 56.3585 88.4368 56.4407C88.17 56.5167 87.964 56.718 87.5974 56.8228C86.4511 57.1467 85.3573 57.1533 84.4406 57.2876C83.1161 57.4802 81.9541 57.9396 80.8005 58.1148C80.5149 58.0905 80.2372 58.0041 79.9397 57.9941C76.255 57.8942 72.1519 56.7479 68.9625 54.8955C67.3878 54.1319 64.466 51.0359 64.7792 52.41C64.2079 52.2072 61.7774 49.289 61.179 48.2033C61.1163 48.1071 61.0677 48.0323 61.0304 47.9772C60.5649 47.2881 60.0921 46.7939 59.7754 46.2116C58.8467 44.4448 58.4345 43.1002 57.7218 40.8247C57.5418 40.2358 57.2322 39.6248 57.1699 39.2647C57.0946 38.8312 57.1962 38.3392 57.1322 37.7815C56.9603 36.4515 56.7461 33.9922 56.7606 32.7363C56.7615 32.5063 56.9169 32.4232 56.9612 32.096C57.1338 30.8224 57.1403 29.4152 56.6341 29.6581C56.9387 28.0434 56.7231 26.5554 56.7382 25.0816C56.7481 24.1321 56.7739 22.9514 56.7697 21.7036C56.7973 20.0376 56.9724 18.5952 56.9347 17.2606C56.9559 15.9751 56.5247 14.7857 56.4574 14.9699C56.4576 14.9711 56.4579 14.9724 56.4582 14.9738C56.0507 14.681 55.8653 14.7412 55.7355 14.75C55.5893 14.793 55.6109 14.7112 55.259 14.8551C55.101 14.941 54.8972 15.1097 54.7366 15.4546C54.7343 15.4596 54.732 15.4646 54.7297 15.4697L54.7531 15.3827C54.4659 16.3024 54.0305 17.8177 54.2721 18.713C54.3098 18.8767 54.3593 19.0364 54.4231 19.1922C54.2976 20.992 54.3659 22.4122 53.921 23.7243C54.0219 23.8809 54.1228 24.0371 54.2238 24.1936C54.2236 24.4111 54.2236 24.6282 54.2237 24.845C54.1249 24.9116 54.026 24.9783 53.9272 25.0449C53.8822 26.6012 54.2864 28.5579 54.3212 29.8475C54.2996 32.0308 54.7189 37.52 55.1823 39.4853C55.3785 40.5403 55.6043 40.53 55.3666 41.2432C55.466 41.464 55.5685 41.685 55.6726 41.9019C55.8098 42.0141 55.9478 42.1249 56.0864 42.2342C56.0925 42.2516 56.0987 42.269 56.1049 42.2864C56.5487 43.5426 57.079 45.0467 57.7067 46.1648C58.8245 48.2668 61.2165 50.8985 62.8564 52.5964C63.2589 53.0323 63.6963 53.6687 64.1566 54.0346C64.8292 54.5628 65.1851 54.4332 66.0658 55.0356C67.5544 56.1044 70.4978 57.9888 72.2091 58.4918C72.708 58.6535 72.9777 58.6101 73.3253 58.701C74.7853 59.0729 76.0044 59.3361 77.4515 59.3409C78.944 59.8291 78.7965 60.1877 79.2628 60.628C79.6138 60.9608 80.7849 61.6892 80.9678 61.949C81.0916 62.1363 80.6352 62.3789 80.807 62.5851C78.7443 62.7301 77.8678 62.4497 76.2783 61.9208C73.2592 61.452 70.3165 60.4949 67.5944 59.1049C67.3987 58.8773 67.2081 58.6479 67.0218 58.4163C67.0219 58.4161 67.022 58.4158 67.0222 58.4156C66.0755 57.7385 65.516 57.7165 64.9492 57.4264C60.8688 55.5046 55.3905 49.4167 53.5226 43.2047C52.814 41.0569 52.4025 39.0089 52.1379 37.3132C51.8533 35.9166 51.3498 31.3462 51.544 30.3841C51.5838 30.1341 51.7556 30.0604 51.7564 29.7971C51.5942 27.4479 51.5304 25.1034 51.456 22.7781C51.5487 21.4352 51.5995 20.0849 51.6028 18.732C51.6489 17.3263 51.7038 16.1971 51.969 14.7076L51.9831 14.6551C52.3172 13.4423 53.2243 12.1818 54.675 11.7542C56.1363 11.3007 57.6677 11.9865 58.5348 12.8675C58.8221 13.1479 59.0163 13.4538 59.1616 13.7452C60.3354 16.8459 59.62 19.3551 59.6736 21.683C59.7841 30.5596 58.5684 39.8231 63.4154 46.6148C64.2835 47.8311 65.2922 48.9505 66.4128 49.9456C68.1354 51.5155 70.7644 52.9109 72.8728 53.7622C73.7495 54.1188 74.0541 54.5219 75.3277 54.6336C75.3226 54.7097 75.3175 54.7859 75.3126 54.8622C76.413 55.0298 77.1336 54.9892 78.3538 55.1089C79.3821 55.2486 82.1199 55.2288 83.0288 55.121C83.5011 55.0843 83.3421 55.2444 83.7833 55.1866C84.5432 55.0937 86.0949 54.5865 87.0837 54.2775C87.6072 54.1235 88.3472 53.931 89.0023 53.7113C89.47 53.5551 89.8886 53.3857 90.155 53.2435C92.4542 52.0346 94.451 50.0472 96.0788 47.8737C96.5377 47.2794 97.1975 46.5343 97.3107 46.3191C97.5328 45.9066 97.4413 45.6973 97.5644 45.411C98.2097 43.9671 99.2457 41.6811 99.6087 40.1206C100.031 38.4208 100.292 36.6343 100.409 34.8225C100.643 31.1865 100.624 27.493 100.528 23.9324C100.465 21.2427 100.207 17.1242 100.111 13.9331L100.109 13.8753C100.105 13.1533 100.078 12.2571 100.154 11.5263C100.247 10.7419 100.411 10.9787 100.538 10.3011C100.62 9.92435 100.695 9.60735 100.783 9.3304L100.799 9.29685C100.891 9.03252 100.98 8.81989 101.098 8.64367C101.568 7.73328 103.463 6.61497 105.131 7.22743C106.76 7.714 107.997 9.20312 108.231 10.7855C108.376 11.6704 108.437 12.4591 108.447 13.0297C108.453 13.4152 108.319 13.7013 108.333 13.9282C108.34 14.043 108.459 14.2973 108.486 14.6575C108.579 15.9324 108.598 17.0595 108.606 18.1394L108.605 18.1122C108.649 19.7047 108.691 21.2414 108.753 23.0633C108.948 28.8649 109.478 35.8334 107.808 42.0476C107.448 43.3951 106.845 44.2028 106.788 44.3857C106.654 44.7901 106.76 45.1179 106.481 45.9484C106.421 46.1257 106.355 46.306 106.285 46.4887C105.286 49.1782 103.06 52.0934 101.3 53.9885C100.394 55.0137 99.1217 56.4489 98.0384 57.2884C97.1974 57.9956 94.9284 59.2084 94.5404 59.5051C94.3108 59.6997 94.2868 59.957 93.9786 60.137ZM106.311 29.4402C106.666 29.6162 106.338 27.7254 106.165 28.4409C106.127 28.6018 106.221 29.3947 106.311 29.4402ZM75.1954 56.7671C75.1907 56.8684 75.1862 56.9698 75.1819 57.0713C75.4477 57.0891 75.713 57.1026 75.978 57.1118C75.845 57.0248 75.7133 56.9367 75.583 56.8476C75.4536 56.8218 75.3245 56.795 75.1954 56.7671ZM210.881 45.1761C211.069 45.5767 211.18 46.2026 211.368 46.686C212.155 48.7172 212.373 49.498 213.067 51.3406C213.266 51.868 213.556 52.5948 213.889 53.4192L213.905 53.458C214.538 55.1412 215.535 57.4175 215.649 59.7233C215.717 60.8378 215.398 62.3284 214.393 63.0378C213.425 63.6888 212.857 63.4753 212.831 63.33C212.831 63.33 212.831 63.3299 212.831 63.3299C212.829 63.3212 212.829 63.3121 212.829 63.3027C212.839 63.212 213.068 63.0787 213.29 62.8835C213.507 62.6962 213.677 62.447 213.662 62.329C213.621 62.0822 212.824 61.2092 212.836 60.8609C213.144 60.1105 212.241 56.4356 211.914 55.7463C211.76 55.3675 211.516 54.942 211.286 54.4612L211.296 54.4863C211.22 54.3365 211.143 54.1794 211.07 54.0152C210.143 51.9246 209.772 50.7816 208.711 48.9919C208.556 48.1679 208.399 47.3393 208.245 46.5165C207.772 45.5487 207.365 43.958 207.11 43.3578C206.901 42.8649 206.663 42.6231 206.449 42.1079C206.208 41.5307 205.979 40.5873 205.533 39.5405C204.802 37.8235 204.363 37.645 203.903 36.6256C203.424 35.5652 202.914 33.8266 202.239 32.507C202.162 32.3918 202.086 32.2784 202.01 32.1669L202.004 32.1521C201.977 32.1117 201.95 32.0706 201.922 32.0289C201.911 32.0863 201.899 32.143 201.887 32.199L201.894 32.2152C201.876 32.3098 201.859 32.4051 201.841 32.5011C201.804 32.4219 201.771 32.3479 201.743 32.2777L201.735 32.2597C201.53 31.7349 201.529 31.3712 201.31 30.8214C201.012 30.0776 200.703 29.7531 200.5 29.2561C200.332 28.8434 200.223 28.2333 199.999 27.7114C199.666 26.9373 199.564 27.1863 199.356 26.7789C199.278 26.6196 197.892 23.5953 197.814 23.4258C197.248 22.1187 197.437 21.9028 197.005 20.8518C195.802 17.9667 194.279 14.9979 192.875 12.73C192.769 12.5651 192.661 12.4071 192.581 12.303L192.562 12.2763C192.366 12.0081 192.183 11.8583 192.048 11.7887C191.913 11.7198 191.775 11.6799 191.518 11.7022C191.798 11.4344 191.818 11.2354 191.596 11.1043C191.382 10.9729 190.91 11.0444 190.723 11.225L190.807 11.1844C190.719 11.3037 190.781 11.4235 191.008 11.5563L190.893 11.6127C190.942 11.6355 190.998 11.6594 191.06 11.6854C191.019 11.6941 190.979 11.7046 190.938 11.7168L191.063 11.6561C190.348 11.9802 189.662 13.0153 188.786 13.8452C188.166 14.4423 187.647 14.7824 186.812 15.7126C186.136 16.4682 185.502 17.3273 184.933 18.0322L184.923 18.044C184.225 18.8903 183.595 19.5205 183.061 19.5211C181.427 21.6049 179.723 23.1601 179.594 24.3093C179.177 24.8505 177.737 25.9171 177.197 26.4601C176.685 26.9744 172.921 31.0562 172.321 31.7377C171.72 32.4186 170.673 33.6147 170.218 34.2316C169.644 35.0061 169.721 35.957 168.004 36.735C166.755 38.2854 166.277 38.807 165.002 40.1513C164.772 40.3946 164.658 40.3457 164.531 40.4942C164.268 40.8018 163.888 41.3787 163.43 41.9312C163.406 41.9592 163.383 41.9867 163.36 42.0136L163.312 42.0667C162.339 42.9696 161.062 42.5087 160.7 41.7001L160.723 41.7433C160.572 41.4437 160.472 41.3207 160.333 41.481C159.889 40.8349 159.445 40.1879 159.003 39.5414C158.931 39.2666 158.859 38.9928 158.787 38.7186C158.51 38.3939 158.236 38.0725 157.96 37.7479C158.679 37.904 156.947 35.5083 157.144 36.4934C156.497 35.1221 155.85 33.7485 155.204 32.3779C155.85 32.2536 153.63 29.4547 153.481 29.8807C153.396 29.73 153.311 29.5796 153.226 29.429C152.623 28.0309 151.817 26.8901 150.997 25.2353C150.176 23.5807 150.314 23.7012 150.282 23.072C150.051 22.7045 149.82 22.3371 149.588 21.9697C148.117 20.7005 148.731 20.2356 147.712 18.4992C147.471 18.0853 147.133 17.6028 146.638 17.0397C146.422 15.7846 144.42 13.1695 142.938 12.3444C142.819 12.2869 142.76 12.329 142.682 12.3398L142.643 12.3238C142.61 12.3206 142.572 12.3145 142.528 12.3044C142.266 12.2352 141.884 12.1687 141.541 12.3082C141.196 12.4379 140.925 12.7193 141.04 12.8231C140.588 13.0427 140.11 13.4389 139.667 13.8883C139.408 14.3348 139.174 14.8075 138.954 15.2936C139.039 15.3401 139.124 15.3866 139.208 15.4331C139.134 15.5008 139.061 15.5749 138.989 15.6559L138.995 15.6442C138.257 16.5037 137.614 17.8904 137.178 18.5475C137.083 18.6901 136.943 18.6693 136.66 19.1188C136.325 19.6486 135.802 20.7099 135.419 21.3434C135.413 21.6689 135.403 22.0017 135.4 22.3232C134.842 23.5468 134.28 23.781 133.889 24.4604C133.817 24.5837 132.646 26.887 132.591 27.0141C132.124 28.0588 132.564 27.9196 130.995 30.8184C130.716 31.3356 130.398 31.7044 130.153 32.1755C129.719 33.0054 128.678 35.6439 128.795 35.9487C128.014 36.8285 126.774 39.6011 126.303 40.368C126.162 40.5949 125.959 40.5719 125.559 41.2969C125.233 41.8888 124.618 43.5106 124.227 44.2724C123.817 45.0674 123.527 45.3054 123.347 45.6596C123.174 46.0009 123.139 46.3824 122.922 46.8474C122.47 47.812 121.973 48.6841 121.546 49.4892L121.537 49.5079C121.296 49.9423 121.072 50.3535 120.89 50.753C120.116 52.404 120.017 54.0468 120.358 55.0363C120.359 55.0481 120.359 55.06 120.359 55.0719L120.351 55.0235C120.362 55.2481 120.363 55.4453 120.418 55.5209C120.489 55.5997 120.447 55.5901 120.615 55.622C120.777 55.6435 121.091 55.5992 121.428 55.4781L121.344 55.5117C122.398 54.8971 123.957 52.2865 124.893 50.2847L124.898 50.2742C125.705 48.5902 126.491 46.9077 127.239 45.2951C128.224 43.1753 131.036 38.0433 129.615 39.1186C129.799 38.3104 132.512 33.0228 132.988 31.996C133.456 30.9686 133.685 30.0864 134.053 29.278C135.173 26.835 136.071 25.1711 137.421 22.1753C137.771 21.4014 138.027 20.5061 138.263 20.0621C138.549 19.5241 139.014 19.0322 139.403 18.347C139.583 18.03 139.798 17.6464 140.026 17.2433L140.04 17.2193C140.3 16.7366 140.991 16.1536 141.812 16.1416C142.612 16.1105 143.396 16.5547 143.771 17.2945L143.72 17.2012C144.564 18.5933 145.5 20.1375 146.055 21.1112C146.214 21.3908 146.138 21.5703 146.333 21.9957C147.087 23.6432 148.136 25.3773 148.384 24.8121C149.321 26.9485 150.637 28.6519 151.751 30.4809C153.927 34.0612 157.679 40.4577 160.108 43.8008L160.086 43.7688C160.245 43.9747 160.404 44.1501 160.557 44.2951C161.229 44.9081 161.613 44.9599 161.971 45.0377C162.353 45.0577 162.603 45.2505 163.544 44.7568C163.738 44.6413 163.938 44.4928 164.143 44.303C164.468 43.9866 164.807 43.6539 165.178 43.2809C166.799 41.6532 168.494 40.3282 169.251 38.6659C170.688 37.1424 171.778 35.7766 172.982 34.6813L172.964 34.7025C173.229 34.4529 173.498 34.217 173.779 33.9957C173.84 33.7562 173.902 33.5167 173.964 33.2772C174.161 33.0307 174.358 32.7845 174.555 32.5381C174.693 32.5236 174.831 32.5092 174.969 32.4948C176.415 30.7589 177.916 28.2846 179.134 26.8086C181.166 24.3291 186.574 18.0747 188.655 15.849C188.83 15.6596 188.975 15.4966 189.097 15.3542L189.038 15.4287C189.475 14.7593 190.528 14.4674 191.141 14.7067C191.778 14.9122 192.115 15.3284 192.295 15.7151L192.316 15.7581C192.388 15.9839 192.419 16.222 192.418 16.6046C192.597 16.9194 192.776 17.2375 192.954 17.5532C193.134 17.7195 193.315 17.8876 193.494 18.0541C194.36 19.9445 195.222 22.2586 196.003 24.0772C197.437 27.3848 199.714 32.3163 200.811 35.7846C201.089 36.653 201.296 37.7883 201.596 38.6269C201.747 39.0487 201.896 39.3514 202.046 39.6257C202.327 40.1267 202.625 40.5468 202.998 41.5399C203.974 44.157 205.559 49.1649 206.575 51.63C206.877 52.3628 207.124 52.6587 207.34 53.1637C207.965 54.6286 208.489 55.9252 209.069 57.2509L209.059 57.2252C209.311 57.7695 209.591 58.2991 209.921 58.7957C210.685 60.7096 210.371 60.6929 210.573 61.4606C210.668 61.7315 210.952 62.2518 211.456 62.6251C211.948 63.011 212.61 63.1644 212.783 63.2617C213.058 63.4123 212.208 63.7739 212.565 63.9365C210.25 64.2099 209.017 62.8122 208.381 61.9823C207.711 61.0513 207.351 60.138 206.98 58.9719C206.865 58.7171 206.756 58.4622 206.651 58.2081L206.643 58.1871C205.201 54.5087 203.685 50.8258 202.224 47.1204C202.188 46.7194 202.153 46.3174 202.118 45.9176C202.118 45.9175 202.119 45.9175 202.119 45.9174C201.649 44.3476 201.135 43.8077 200.761 43.0033C200.407 42.2369 200.035 41.3833 199.665 40.4624C197.097 33.9371 193.309 24.2704 189.969 16.8505L189.988 16.8893C190.053 17.0164 190.227 17.192 190.512 17.2185C190.804 17.2549 191.071 17.0517 191.116 16.9646L191.064 17.0303C189.96 18.2882 188.933 19.473 188.028 20.5343C186.732 22.0448 182.716 27.1291 181.71 28.0714C181.448 28.3139 181.251 28.28 181.006 28.5661C179.005 31.1619 177.013 33.7654 175.028 36.3745L175.014 36.3915C174.96 36.4608 174.905 36.5298 174.851 36.5983C172.004 39.7284 169.22 43.059 166.342 46.2965C165.325 47.4897 163.558 48.4886 161.723 48.1838C159.907 47.9018 158.578 46.692 157.693 45.4444L157.678 45.4225C157.674 45.4168 157.67 45.4111 157.666 45.4054C151.834 36.592 146.602 27.5624 141.231 18.693L141.185 18.6106C141.322 18.8781 141.588 19.0426 141.891 19.042C142.206 19.0533 142.492 18.8041 142.539 18.6952L142.552 18.6739C138.785 25.452 135.684 32.6546 132.52 39.7955C131.073 43.0748 129.368 47.3111 127.818 50.4823C127.644 50.8393 127.481 51.1296 127.323 51.3985L127.328 51.3877C126.876 52.1671 126.475 52.7725 125.863 54.1314C125.788 54.1116 125.712 54.0917 125.637 54.0716C125.248 54.8098 124.915 55.4269 124.506 56.0507C124.044 56.6693 123.765 57.3271 122.447 58.0366L122.363 58.07C122.251 58.1125 122.134 58.1525 122.011 58.1897C121.517 58.3185 120.723 58.5872 119.569 58.2137C118.342 57.8284 117.63 56.4553 117.508 55.5461L117.5 55.5011C117.234 53.6304 117.846 52.1012 118.098 51.406C118.393 50.6734 118.417 50.9979 118.694 50.3416C118.89 49.8874 119.161 49.2296 119.449 48.5275L119.438 48.5513C119.84 47.5094 120.305 46.3353 120.711 45.4672C121.325 44.1447 122.534 41.9983 123.002 40.9838C124.691 37.3173 126.441 33.2955 128.456 29.5044C129.012 28.459 129.874 27.1871 130.04 26.8552C130.363 26.21 130.308 25.9321 130.511 25.4911C131.55 23.2419 133.536 19.9286 134.695 17.8002C135.322 16.6467 135.956 15.4829 136.601 14.318L136.609 14.305C137.21 13.262 137.857 12.1978 138.882 11.2067C139.4 10.7209 140.048 10.2301 140.924 9.97037C141.796 9.69781 142.844 9.81708 143.603 10.1723L143.541 10.1464C147.08 12.4301 147.929 14.8737 149.597 17.3987C150.393 18.7476 151.179 20.1014 151.946 21.441C154.422 25.7518 158.494 32.921 160.64 36.9608C161.103 37.8328 160.804 37.6984 161.215 38.4191C161.67 39.2163 162.032 39.5835 162.253 39.9486C162.379 40.1561 162.517 40.3838 162.665 40.6265L162.696 40.6843C162.577 40.4179 162.258 40.2636 162.116 40.2632C161.959 40.2563 161.847 40.2625 161.655 40.4337L161.593 40.502C163.684 37.9484 166.748 34.285 168.322 32.6267C168.69 32.2387 169.059 32.0436 169.268 31.801C169.374 31.6784 169.535 31.333 169.859 30.9411C172.725 27.4781 174.913 25.0425 177.824 21.7385C179.404 19.9452 181.041 18.0549 182.706 16.1205L182.698 16.1294C184.829 13.7329 186.52 11.3506 189.661 9.07192L189.761 9.02285C190.583 8.65831 191.633 8.42371 192.71 8.70027C193.793 8.96908 194.63 9.73083 195.141 10.4766L195.127 10.4572C196.387 12.3648 197.106 14.1008 197.928 15.8827C198.724 17.6664 198.975 19.0009 199.089 19.2496C199.334 19.7952 199.673 20.0639 200.198 21.1568C201.603 24.0848 203.089 27.9683 204.387 31.1981L204.381 31.184C204.703 31.9591 205.013 32.6932 205.312 33.3702C206.073 35.0981 207.285 37.4059 208.031 39.1033C208.629 40.4598 209.843 43.7426 210.193 44.3089C210.405 44.6523 210.677 44.7446 210.881 45.1761ZM185.799 16.5979C185.727 16.2623 184.743 17.5737 184.716 17.8477L184.708 17.8575C184.703 17.8985 184.718 17.9167 184.761 17.9033L184.769 17.893C184.806 17.8816 184.863 17.8462 184.947 17.7777C185.128 17.6277 185.822 16.7069 185.799 16.5979ZM123.781 53.5056C123.683 53.4738 123.586 53.4417 123.488 53.4092C123.34 53.7241 123.185 54.0343 123.022 54.3354C123.181 54.2152 123.341 54.0872 123.499 53.9575C123.595 53.8082 123.689 53.6579 123.781 53.5056ZM269.284 42.3527C269.368 42.5495 269.329 42.8749 269.395 43.1174C269.667 44.1338 269.691 44.5335 269.909 45.4613C270.24 46.833 271.537 50.8284 270.653 51.0682C270.653 51.0682 270.653 51.0682 270.653 51.0682C270.644 51.0706 270.636 51.0726 270.627 51.0742C270.456 51.1057 270.179 50.8128 269.977 50.8138C269.774 50.815 268.565 51.188 268.363 50.7237C268.08 50.0486 267.916 48.2814 267.794 47.912C267.711 47.6595 267.51 47.3774 267.396 47.0573C267.027 46.0253 266.946 45.4519 266.365 44.5964C266.41 44.1716 266.455 43.7465 266.498 43.321C266.277 42.85 266.258 42.04 266.155 41.744C266.071 41.5013 265.902 41.3954 265.818 41.1414C265.723 40.8566 265.722 40.3747 265.54 39.8591C265.243 39.014 264.871 38.9628 264.669 38.4633C264.585 38.2546 264.522 37.9868 264.454 37.6998L264.45 37.6868C264.355 37.2597 264.251 36.7893 264.06 36.4039C263.998 36.3294 263.936 36.2549 263.875 36.1805C263.812 36.2661 263.75 36.3518 263.688 36.4374C263.546 36.1064 263.667 35.9088 263.574 35.5934C263.465 35.2221 263.25 35.0814 263.175 34.8324C263.113 34.6284 263.155 34.3135 263.066 34.0518C262.936 33.67 262.78 33.8102 262.683 33.6136C262.645 33.5347 262.071 32.0401 262.042 31.9551C261.83 31.3036 262.06 31.1689 261.917 30.6409C261.52 29.177 260.841 27.7627 260.325 26.4613C260.095 25.8804 259.901 25.2584 259.74 24.6565C260.687 25.3711 260.475 23.1465 259.753 24.2532C259.668 23.5503 259.241 23.1786 259.069 22.545C258.957 22.135 258.995 21.8102 258.787 21.2413C258.416 20.2315 257.621 19.2781 258.207 18.7279C257.64 17.5941 257.489 16.4791 256.713 16.2998C256.557 16.0144 256.607 15.098 256.517 14.7407C256.505 14.6935 256.479 14.6037 256.441 14.4832L256.455 14.5166C256.154 13.6201 255.614 11.894 255.416 11.7149C255.241 11.4156 254.874 11.0589 254.652 11.0191C254.518 10.9841 254.352 11.1056 254.218 11.1534L254.195 11.1465C254.132 11.2328 254.198 11.1887 253.881 10.8228C253.32 11.0331 253.035 11.1861 252.349 11.5565C252.223 11.6295 252.14 11.5452 252.071 11.5982C251.929 11.708 251.751 11.966 251.517 12.1894C251.135 12.5555 250.744 12.6034 251.052 12.8297C250.846 13.1221 250.646 13.4225 250.453 13.7265C250.315 13.769 250.177 13.8126 250.038 13.8584C249.97 14.0548 249.904 14.252 249.84 14.4493C249.567 13.9166 248.943 15.1769 249.469 15.0335C248.998 15.451 248.533 15.8887 248.079 16.3367C248.03 16.3841 247.977 16.4384 247.923 16.4928C247.476 16.0446 246.939 17.7453 247.3 17.8241C247.252 17.8912 247.204 17.9585 247.155 18.026C246.601 18.523 246.327 19.1469 245.733 19.8058C245.134 20.4725 245.136 20.3649 244.746 20.4243C244.641 20.6049 244.536 20.7863 244.431 20.9684C244.464 22.3107 243.445 21.3839 242.894 23.2739C242.15 23.4914 241.54 24.8665 241.127 25.7621C241.079 25.8667 241.158 25.9212 241.098 26.0641C240.952 26.4129 240.331 27.1331 240.607 27.2767C240.352 27.5022 240.099 27.7249 239.845 27.9503C239.746 28.2049 239.646 28.4609 239.548 28.7149C239.63 28.7664 239.712 28.8178 239.794 28.8693C239.225 29.1404 238.871 29.9207 238.58 30.2287C238.522 30.29 238.4 30.233 238.23 30.4308C238.03 30.662 237.76 31.1563 237.532 31.4376C237.581 31.6348 237.631 31.832 237.68 32.029C237.404 32.614 236.954 32.5968 236.727 32.9C236.686 32.9546 236.05 34.0196 236.022 34.0809C235.788 34.5805 236.15 34.6225 235.257 35.9293C235.098 36.1621 234.881 36.2946 234.743 36.5097C234.5 36.8886 234.017 38.1801 234.168 38.3959C233.628 38.7033 232.981 40.0163 232.686 40.3413C232.597 40.4387 232.417 40.3657 232.178 40.6862C231.984 40.9481 231.693 41.7405 231.463 42.0813C231.218 42.4429 231.001 42.495 230.893 42.6571C230.791 42.8099 230.818 43.0224 230.691 43.2395C230.294 43.9128 229.757 44.4262 229.449 44.9583C228.998 45.7361 228.945 46.6145 228.732 47.3461C228.619 47.4971 228.458 47.6168 228.363 47.7865C227.914 48.5876 227.433 49.4397 226.957 50.2875L226.938 50.3223C226.257 51.4548 225.602 52.6218 225.045 53.7483L225.018 53.8047C224.94 53.9399 224.874 54.078 224.821 54.2162C224.664 54.567 224.474 55.2586 224.641 55.6239C224.712 55.8056 224.83 55.8955 224.929 55.8812C225.033 55.8691 225.091 55.7483 225.198 55.5564C225.274 55.4995 225.278 55.6645 225.815 55.6836L225.828 55.682C225.933 55.7052 226.071 55.6941 226.237 55.6085C226.399 55.5266 226.551 55.3956 226.614 55.3247C226.878 55.0285 226.947 54.6295 227.134 54.3094C227.554 53.5781 227.913 52.942 228.343 52.0554L228.357 52.0292C228.503 51.7411 228.657 51.4113 228.815 51.0351C228.971 50.6628 229.007 50.1945 229.118 49.9851C229.256 49.7288 229.556 49.5407 229.739 49.2147C230.172 48.4396 230.886 46.9404 231.309 46.1972C231.386 46.0617 231.551 46.086 231.698 45.9107C232.27 45.2295 232.707 44.3596 232.183 44.2778C232.954 43.4229 233.204 42.3878 233.691 41.4579C233.738 41.3676 233.795 41.2613 233.846 41.1664L233.913 41.0565C234.295 40.4807 234.944 39.9561 235.94 39.9265L235.977 39.9267C238.231 39.9588 241.339 40.1282 242.96 40.0214C244.167 39.9411 244.148 39.7139 245.904 39.9934C246.294 40.0556 246.681 40.1331 247.153 40.2084C248.26 40.3854 249.257 40.854 250.13 40.3966C251.356 40.5901 252.341 40.5477 253.234 41.0208C253.347 40.9234 253.459 40.8258 253.572 40.7283C253.723 40.7331 253.874 40.7378 254.025 40.7424C254.067 40.8427 254.11 40.9429 254.152 41.0432C255.233 41.1213 256.621 40.7786 257.533 40.8172C258.367 40.8529 259.912 40.9572 261.382 41.0583L261.33 41.0578C262.019 41.0756 262.395 41.3399 262.673 41.5491C262.953 41.7851 263.134 41.9612 263.366 42.3978L263.48 42.6949C263.679 43.6091 263.829 44.4293 263.905 44.9439C264.019 45.7232 264.231 45.7175 263.911 46.2506C263.98 46.4143 264.048 46.5778 264.115 46.7417C264.232 46.8276 264.348 46.9132 264.464 46.9996C264.687 47.9775 264.792 49.1674 264.991 50.0944C265.296 51.5059 265.89 53.4768 266.244 55.0192L266.233 54.9793C266.305 55.2599 266.374 55.5234 266.433 55.7659C266.521 56.1368 266.532 56.647 266.708 56.9563C266.968 57.3911 267.31 57.3323 267.636 57.6467C267.873 57.8521 268.057 58.03 268.408 58.0991L268.443 58.0993C268.818 58.1556 269.005 58.1365 269.136 58.0702C269.28 58.0036 269.434 57.7244 269.474 57.454C269.517 57.1857 269.404 57.0304 269.401 56.825C269.369 55.9355 269.239 55.0878 268.857 54.1576C268.93 53.04 269.325 53.0257 269.637 52.5908C269.869 52.2603 270.352 51.2916 270.589 51.1273C270.754 51.0093 271.056 51.2316 271.231 51.0774C271.71 52.3217 271.702 52.9778 271.634 54.1677C271.828 55.2296 272.001 56.317 271.85 57.5818C271.764 58.205 271.585 58.929 271.047 59.5896C270.511 60.2644 269.625 60.6213 268.915 60.6795C268.729 60.6211 268.567 60.5499 268.401 60.4708L268.425 60.4709C268.342 60.4351 268.263 60.3964 268.185 60.3551C268.185 60.3549 268.185 60.3547 268.185 60.3544C267.171 60.1299 266.678 60.0897 266.163 59.8121C264.813 58.9899 263.989 57.4063 263.482 55.7707L263.471 55.7332C262.39 51.693 261.756 46.7681 260.971 43.7051C260.949 43.6172 260.921 43.5111 260.887 43.391L260.973 43.6154C261.033 43.7212 261.011 43.6795 261.022 43.6985C261.036 43.7014 261.06 43.779 261.35 43.7963L261.312 43.7959C260.001 43.792 258.215 43.7714 257.741 43.6191C257.572 43.5649 257.531 43.3894 257.35 43.3746C255.725 43.4134 254.1 43.4407 252.477 43.4634C249.162 43.0282 245.718 43.0598 242.377 42.962C240.221 42.8988 238.072 42.8568 235.932 42.8508L235.961 42.851C236.217 42.8439 236.295 42.7489 236.363 42.6654L236.414 42.5807C234.544 46.1384 232.756 49.7818 230.861 53.3833L230.874 53.3583C230.437 54.2116 230.021 55.1413 229.424 56.1016C228.837 56.9962 227.962 58.3057 226.167 58.5551L226.18 58.5536C225.457 58.6453 224.568 58.5901 223.754 58.1123C221.652 56.8595 221.774 54.0747 222.61 52.5651L222.578 52.6309C222.804 52.1267 223.042 51.6519 223.283 51.2267C223.645 50.5914 224.029 50.4573 224.307 49.527C224.378 49.5549 224.448 49.5829 224.519 49.611C224.602 49.415 224.672 49.2341 224.738 49.0595L224.721 49.0898C224.889 48.5916 225.028 48.1286 225.338 47.5333C225.694 46.8478 226.672 45.0723 227.033 44.498C227.219 44.1996 227.276 44.383 227.438 44.0972C227.713 43.6087 228.142 42.4743 228.532 41.8046C228.884 41.1992 229.623 40.2632 229.878 39.7883C230.796 38.0774 231.686 36.1463 232.828 34.4215C233.143 33.945 233.686 33.4183 233.776 33.2641C233.952 32.9624 233.857 32.7801 233.963 32.5693C234.497 31.4978 235.67 30.0414 236.308 29.0644C238.387 25.8763 240.548 22.4787 242.73 19.3724C243.599 18.133 244.827 16.3655 245.978 14.8134L245.984 14.805C246.68 13.8773 247.388 13.0456 247.982 12.4396C248.332 12.0853 248.389 12.3138 248.669 12.0067C248.982 11.6683 249.067 11.3967 249.214 11.2338C250.133 10.4057 251.873 7.80166 255.03 8.45593L255.008 8.44934C255.338 8.55499 255.626 8.69813 255.851 8.84333C256.173 9.05355 256.29 9.34165 256.449 9.47649C256.528 9.54532 256.784 9.63255 257.008 9.87618C258.196 11.2548 258.433 12.5014 258.858 13.4451L258.872 13.4783C259.129 14.1276 259.382 14.7973 259.66 15.5365C261.103 19.3597 262.835 23.7619 264.045 27.8643C264.309 28.7577 264.215 29.457 264.257 29.5807C264.35 29.8523 264.598 29.9665 264.82 30.5062C265.557 32.3018 266.112 34.8531 266.739 36.5803C266.782 36.6996 266.831 36.824 266.884 36.9521L266.88 36.9383C267.217 37.7239 267.711 38.6498 267.985 39.3705C268.24 40.0391 268.636 41.6819 268.835 41.9526C268.956 42.1173 269.191 42.1394 269.284 42.3527ZM258.726 20.5772C259.098 20.5755 258.369 19.4331 258.364 19.964C258.363 20.0834 258.629 20.5774 258.726 20.5772ZM226.27 50.3335C226.363 50.3722 226.456 50.4109 226.549 50.4497C226.577 50.3494 226.606 50.2488 226.635 50.1485L226.65 50.1227C226.668 50.0528 226.686 49.9827 226.705 49.9125C226.633 49.9541 226.561 49.9956 226.49 50.037L226.478 50.0582C226.45 50.073 226.423 50.0878 226.395 50.1027C226.353 50.1796 226.312 50.2565 226.27 50.3335ZM252.501 19.4186C252.447 19.3456 252.526 19.184 252.496 19.0855C252.371 18.674 252.398 18.4893 252.305 18.1087C252.17 17.5392 251.374 16.0119 252.215 15.6722C252.215 15.6722 252.215 15.6722 252.215 15.6722C252.223 15.6688 252.232 15.6656 252.24 15.6625C252.403 15.6028 252.633 15.6672 252.823 15.6141C253.013 15.561 254.179 15.0712 254.324 15.2409C254.527 15.4924 254.495 16.293 254.568 16.44C254.618 16.5397 254.775 16.6254 254.846 16.7511C255.075 17.1581 255.082 17.4095 255.523 17.6868C255.428 17.9001 255.333 18.1134 255.238 18.3267C255.386 18.5027 255.298 18.8841 255.355 19.0028C255.402 19.1001 255.546 19.1136 255.591 19.2168C255.642 19.3323 255.578 19.5615 255.677 19.7687C255.839 20.1089 256.18 20.054 256.298 20.2508C256.42 20.4551 256.371 20.8595 256.585 21.099C256.633 21.1215 256.68 21.144 256.728 21.1665C256.799 21.1127 256.869 21.0588 256.939 21.0049C257.027 21.133 256.886 21.2527 256.93 21.3836C256.981 21.5377 257.164 21.5605 257.2 21.6638C257.229 21.7484 257.146 21.907 257.193 22.0137C257.26 22.1694 257.427 22.071 257.491 22.1451C257.516 22.1748 257.838 22.7743 257.852 22.81C257.955 23.0802 257.717 23.1896 257.771 23.4141C257.922 24.037 258.333 24.5879 258.597 25.1219C258.716 25.361 258.788 25.6248 258.833 25.8885C258.07 25.7071 257.868 26.7389 258.748 26.0849C258.7 26.409 259.032 26.5164 259.074 26.7954C259.101 26.9758 259.002 27.1372 259.085 27.3799C259.234 27.8094 259.777 28.1563 259.11 28.5079C259.397 28.9732 259.28 29.4952 259.962 29.4812C260.042 29.6015 259.776 30.0544 259.77 30.2157C259.767 30.3718 259.928 31.492 259.97 31.6671C260.015 31.8468 260.097 32.1561 260.195 32.2855C260.319 32.45 261.01 32.3898 260.346 32.9433C260.522 33.3123 260.538 33.4512 260.554 33.8377C260.557 33.9075 260.446 33.9475 260.457 33.9854C260.479 34.0635 260.601 34.1716 260.651 34.3064C260.734 34.534 260.532 34.7314 260.889 34.6027C260.993 34.7367 261.096 34.8684 261.201 35.0057C261.145 35.079 261.09 35.152 261.034 35.2248C261.133 35.2844 261.232 35.3437 261.331 35.4026C260.776 35.4515 261.246 35.942 261.499 35.6723C261.469 35.994 261.441 36.3264 261.408 36.6455C260.931 36.7377 261.257 37.0932 261.571 37.1754L261.546 37.0909C261.649 37.1415 261.747 37.1745 261.811 37.1249C261.832 37.1976 261.852 37.2792 261.869 37.3768C261.865 37.5444 261.869 37.7464 261.806 38.0273C261.749 38.3021 261.561 38.6781 261.29 38.9052C260.725 39.3526 260.355 39.3099 260.096 39.3219L260.073 39.3219C259.996 39.3153 259.914 39.3019 259.825 39.2742C259.452 39.1591 259.491 39.0988 259.382 38.8109C259.296 38.8265 259.208 38.842 259.12 38.8574C258.658 39.6387 258.747 38.2786 257.963 38.8732C257.718 38.3765 257.102 38.6294 256.691 38.7747C256.643 38.7915 256.641 38.8874 256.577 38.9163C256.425 38.9857 256.03 38.8581 256.04 39.1675C255.901 39.0765 255.77 38.9855 255.634 38.8945C255.522 38.9495 255.409 39.0044 255.296 39.0594C255.295 39.156 255.295 39.2525 255.294 39.3491C255.074 39.0175 254.721 39.1399 254.545 39.0592C254.511 39.0429 254.505 38.9096 254.398 38.872C254.274 38.8275 254.039 38.8642 253.888 38.8208C253.827 38.9676 253.768 39.1145 253.708 39.2614C253.44 39.3382 253.349 38.9477 253.191 38.9156C253.161 38.91 252.647 38.9318 252.618 38.9398C252.388 39.0029 252.45 39.3355 251.789 39.2563C251.671 39.242 251.578 39.126 251.472 39.1201C251.285 39.1095 250.714 39.3627 250.668 39.6027C250.444 39.2987 249.833 39.4139 249.654 39.3246C249.6 39.2971 249.591 39.1052 249.425 39.0622C249.29 39.0271 248.941 39.1761 248.77 39.1481C248.588 39.1176 248.525 38.9556 248.444 38.9431C248.367 38.9315 248.295 39.0606 248.19 39.0584C247.863 39.0494 247.569 38.8359 247.31 38.8284C246.937 38.8171 246.6 39.1973 246.285 39.3637C246.208 39.3376 246.132 39.2538 246.051 39.2519C245.043 39.2249 243.907 39.1361 242.897 39.0364C242.428 38.9907 241.27 38.4467 241.565 39.3244C241.405 39.4745 240.215 39.0999 239.995 39.0898C239.768 39.0799 239.584 39.2324 239.409 39.231C238.959 39.227 238.62 39.1415 238.145 39.1841L238.191 39.1845C237.394 39.1561 237.036 38.8584 236.678 38.4243C236.078 37.6938 236.222 36.5728 236.405 36.3148C236.465 36.2058 236.538 36.1202 236.619 36.0457L236.522 36.1919C236.615 36.1406 236.747 36.1046 236.812 36.012C237.022 35.7062 237.322 35.0821 237.53 34.7916C237.568 34.7389 237.715 34.7994 237.805 34.7446C238.154 34.5314 238.347 34.1741 237.878 33.9797C238.36 33.7265 238.355 33.2247 238.562 32.847C238.998 32.0485 239.952 30.6871 240.184 29.899C240.33 29.4018 240.131 29.295 240.682 28.7663C240.804 28.6489 240.939 28.5402 241.087 28.3978C241.434 28.0638 242.013 27.9205 241.774 27.354C242.158 26.9831 242.299 26.5839 242.867 26.4878C242.804 26.3947 242.741 26.3015 242.678 26.2082C242.71 26.1531 242.742 26.098 242.774 26.043C242.867 26.0786 242.961 26.1144 243.054 26.1501C243.319 25.7806 243.29 25.0768 243.501 24.7538C243.853 24.2109 244.899 22.9022 245.353 22.4675C245.592 22.2365 245.428 22.1043 245.89 22.1914C245.906 22.1143 245.922 22.0372 245.938 21.9601C245.885 21.8693 245.833 21.7785 245.78 21.6876C246.012 21.3394 246.414 21.0134 246.64 20.6852C247.05 20.0879 247.472 19.0442 248.043 18.5537C248.186 18.4306 248.478 18.362 248.583 18.2163C248.736 18.0045 248.513 17.7604 248.707 17.4907C249.043 17.0234 249.989 16.4079 250.301 15.9664C250.394 15.8352 250.346 15.702 250.405 15.6069C250.652 15.2068 250.899 14.9162 251.04 14.4513C251.168 14.4101 251.282 14.3948 251.386 14.3974L251.219 14.6564C251.677 14.1278 251.97 14.2516 252.157 14.299C252.347 14.3746 252.478 14.4979 252.62 14.6367C252.77 14.7647 252.922 15.0885 252.789 15.3184C252.673 15.5492 252.433 15.6531 252.316 15.7098C252.134 15.7694 251.978 15.9813 251.78 16.0528C251.828 16.285 252.322 16.6578 252.741 16.6076C253.149 16.5663 253.461 16.4177 253.708 15.8791L253.524 16.1638C253.379 16.2353 253.208 16.2854 253 16.3535C252.481 17.0075 251.973 17.6719 251.474 18.3427C251.338 18.3347 251.202 18.327 251.066 18.3194C251.066 18.3192 251.066 18.3191 251.066 18.3189C250.767 18.4968 250.917 18.7815 250.865 18.9599C250.367 20.655 248.097 23.0383 247.028 24.5418C246.796 24.863 246.22 26.0239 245.92 26.154C245.842 26.1873 245.685 26.1097 245.638 26.1688C245.363 26.7879 245.091 27.409 244.822 28.0308C243.861 29.0536 243.303 30.387 242.619 31.5972C241.456 33.6542 240.329 35.7185 239.172 37.7566L239.094 37.8748C239.136 37.8196 239.322 37.5583 239.222 37.1198C239.173 36.9144 239.06 36.7323 238.914 36.6008C238.757 36.4746 238.61 36.3425 238.171 36.3259L238.214 36.3263C239.307 36.3389 240.418 36.358 241.511 36.3906C242.229 36.4122 243.139 36.2976 243.839 36.393C244.133 36.4326 244.249 36.7137 244.637 36.5117C244.64 36.587 244.643 36.6622 244.646 36.7375C244.986 36.652 245.199 36.4842 245.578 36.4725C245.894 36.463 246.734 36.4641 247.014 36.4968C247.16 36.5132 247.103 36.653 247.239 36.6542C247.47 36.6552 247.969 36.4679 248.289 36.4722C248.579 36.4762 249.066 36.6447 249.289 36.6241C250.094 36.5516 250.972 36.3228 251.827 36.3976C252.064 36.4187 252.364 36.6046 252.439 36.6004C252.584 36.5916 252.629 36.4151 252.727 36.3935C253.218 36.2844 253.99 36.5039 254.472 36.5177C256.05 36.5632 257.72 36.5041 259.29 36.5531C259.526 36.5605 259.814 36.5655 260.102 36.5705L260.076 36.5704C260.058 36.5726 260.017 36.5669 259.88 36.6054C259.759 36.6395 259.451 36.769 259.242 37.0985C259.037 37.4269 259.053 37.6972 259.06 37.7984C259.072 37.9101 259.087 37.9308 259.086 37.9302L259.054 37.8236C258.894 37.1595 258.738 36.4921 258.677 36.0051C258.652 35.8102 258.853 35.8082 258.809 35.6491C258.759 35.4704 258.607 35.4144 258.573 35.3352C258.343 34.7861 257.851 33.5774 257.818 33.0031C257.812 32.895 257.935 32.7777 257.916 32.717C257.907 32.6862 257.787 32.6466 257.747 32.5526C257.399 31.7263 257.264 31.0869 257.034 30.2407C256.594 28.6219 255.803 26.8373 255.329 25.138C255.226 24.7683 255.424 24.4207 255.403 24.3705C255.358 24.2606 255.143 24.2553 255.017 24.0453C254.599 23.3466 254.442 22.263 254.088 21.5849C253.913 21.2492 253.495 20.8557 253.314 20.5303C253.17 20.2714 253.021 19.5855 252.869 19.5046C252.778 19.4548 252.56 19.4975 252.501 19.4186ZM259.009 27.6917C258.661 27.7497 259.109 28.1888 259.223 27.9326C259.249 27.875 259.1 27.6767 259.009 27.6917ZM244.712 38.6194C244.715 38.7193 244.719 38.8192 244.722 38.9191C244.796 38.8787 244.87 38.8383 244.943 38.7979C244.903 38.7372 244.863 38.6766 244.823 38.6159C244.786 38.6171 244.749 38.6182 244.712 38.6194ZM317.318 32.3434C317.685 32.3259 318.189 32.4657 318.622 32.4796C319.517 32.5087 320.142 32.5482 320.689 32.579C321.333 32.6134 321.966 32.6379 322.962 32.8142C323.714 32.9783 325.413 33.2438 326.549 34.9487L326.478 34.8488C327.318 36.1417 327.295 36.924 327.456 37.7947C327.567 38.6351 327.604 39.4159 327.603 40.0939C327.595 41.4515 327.447 42.3697 327.125 42.3876C327.125 42.3876 327.125 42.3876 327.124 42.3876C327.116 42.3882 327.107 42.3881 327.097 42.3874C326.922 42.3799 326.698 41.7831 326.497 41.7021C326.296 41.6261 325.039 41.7574 324.914 40.9128C324.786 39.705 324.676 36.6807 324.378 36.5187C324.365 36.4997 324.351 36.4841 324.341 36.476L324.299 36.4175C324.128 36.2051 323.858 36.0798 323.542 35.9433C322.635 35.5832 321.719 35.5537 320.711 35.659C320.338 35.6982 319.95 35.7469 319.521 35.8196C318.83 35.6461 318.159 35.4698 317.477 35.2929C316.586 35.3533 315.241 35.1101 314.701 35.1117C314.258 35.113 313.995 35.2382 313.534 35.2355C313.015 35.2332 312.225 35.0776 311.281 35.0827C309.738 35.0914 309.46 35.4271 308.543 35.4637C308.38 35.4706 308.194 35.471 308.018 35.469C307.159 35.4566 306.007 35.4342 305.146 35.7214C305.02 35.7861 304.899 35.853 304.782 35.9222C304.894 35.9803 305.005 36.0405 305.113 36.1026C304.626 36.2581 304.368 36.1575 303.986 36.3182C303.554 36.5149 303.541 36.7745 303.484 36.8399C303.448 36.8923 303.356 36.8387 303.324 36.9382L303.32 37.0003C303.314 37.0373 303.311 37.0712 303.312 37.1015C303.335 37.3846 303.535 37.2476 303.56 37.2425C303.601 37.2435 303.428 37.128 303.77 37.2593C304.099 37.3629 304.742 37.3967 304.797 37.3993C305.571 37.4518 305.84 37.5965 306.341 37.677C306.463 37.698 306.621 37.7112 306.825 37.711C309.394 37.6959 312.094 37.3435 314.508 37.1548C315.591 37.069 316.719 37.0321 317.808 37.0282C316.128 37.7642 319.931 38.1275 318.47 37.1435C319.207 37.2042 319.786 37.116 320.438 37.0524C320.786 37.0512 321.245 36.9778 322.002 37.4277C322.371 37.6553 322.712 38.09 322.853 38.4665C323.002 38.8466 323.024 39.1469 323.029 39.3842C323.029 39.4107 323.029 39.4367 323.029 39.4621C323.003 40.1411 322.876 40.6757 322.898 41.7045C322.941 43.5722 323.367 45.6378 322.609 46.1967C322.617 46.4234 322.622 46.6404 322.612 46.8945L322.615 46.7978C322.634 47.2354 322.474 47.7471 322.26 48.0744C322.048 48.4091 321.84 48.6029 321.707 48.7423L321.618 48.8246C320.536 49.7424 319.612 50.4106 319.39 51.1248C318.922 51.51 317.414 51.9991 316.805 52.2642C316.276 52.6429 311.716 54.3033 310.93 54.3701C310.498 54.4795 309.88 54.6214 309.312 54.7452L309.331 54.741C308.891 54.8458 308.481 54.9345 308.199 55.0072C307.399 55.2058 306.831 55.9887 305.284 55.2484C303.542 55.3305 302.904 55.2507 301.32 54.8986C301.034 54.8291 301.025 54.7058 300.858 54.6717C300.516 54.6012 299.912 54.5512 299.304 54.3801C298.302 54.0964 297.851 53.6279 297.819 54.0271C297.154 53.836 296.496 53.6061 295.85 53.338C295.668 53.1596 295.49 52.9779 295.317 52.7939C294.959 52.6789 294.602 52.5519 294.246 52.4128C294.891 52.2179 292.626 50.9648 293.106 51.7097C292.099 50.7926 291.202 49.7735 290.43 48.6877C290.984 48.4576 288.748 46.3462 288.629 46.7009C288.547 46.5716 288.465 46.4396 288.386 46.3092C288.152 45.7917 287.902 45.3114 287.65 44.8069C287.304 44.1224 286.952 43.3883 286.684 42.4863C286.246 40.9276 286.387 41.0448 286.522 40.5052C286.406 40.1517 286.298 39.7944 286.198 39.4358C285.047 37.6566 286.339 37.7922 285.521 34.5422C285.948 33.4617 285.771 30.885 285.941 29.1324C285.958 28.9297 285.863 28.9104 285.883 28.6376C285.917 27.9661 286.464 26.3525 286.161 26.3257C286.411 25.7784 286.68 25.2427 286.969 24.7218C287.085 24.2498 287.216 23.7812 287.365 23.3132C287.276 23.2757 287.187 23.2382 287.098 23.2007C287.792 22.4279 288.445 21.027 288.958 20.437C289.058 20.3201 289.182 20.3662 289.489 20.0069C289.723 19.7342 290.062 19.2883 290.416 18.8943C290.61 18.6791 290.801 18.484 290.97 18.3325C291.043 18.0466 291.125 17.7607 291.214 17.4757C292.052 16.6008 292.644 16.6615 293.218 16.2848C293.302 16.1847 295.241 14.9968 295.365 14.9677C296.248 14.5097 295.811 14.1626 298.653 13.3817C299.162 13.2599 299.598 13.2803 300.057 13.1963C300.858 13.0069 303.313 12.5498 303.515 12.3338C304.537 12.5668 307.201 12.6444 307.963 12.8817C308.192 12.9452 308.217 13.1365 308.916 13.3064C309.482 13.4371 310.979 13.6312 311.682 13.8738C312.39 14.1107 312.616 14.3458 312.917 14.473C312.939 14.4818 312.958 14.4895 312.978 14.4971C313.343 14.6413 313.712 14.6704 314.141 14.9103C315.449 15.6713 316.278 16.6146 317.136 17.2753C318.248 18.1495 319.416 18.6834 320.461 19.2625L320.471 19.2709C320.552 19.31 320.628 19.3438 320.705 19.3758C320.865 19.5134 321.009 19.6828 321.206 19.7551C321.648 19.9218 322.077 19.9001 322.326 19.7598C322.572 19.6264 322.759 19.3698 322.809 18.8613L322.808 18.8898C322.888 17.9379 322.393 17.017 321.484 16.1801L321.463 16.1608C320.546 15.2716 319.567 14.4892 318.555 13.817C317.124 12.677 312.898 10.6773 313.791 11.9224C313.195 11.7567 308.741 10.5768 307.82 10.6576C306.935 10.6165 306.238 10.7857 305.549 10.8226C303.475 10.9609 301.968 11.061 299.559 11.9001C298.938 12.1226 298.339 12.5309 297.979 12.6655C297.545 12.8262 297.012 12.8476 296.453 13.0856C295.106 13.6242 292.813 15.0462 291.713 15.8782C291.509 16.0253 291.342 15.9535 291.027 16.1413C289.789 16.8672 288.679 18.038 289.238 18.1864C287.773 19.2629 286.943 20.7623 286.109 22.1664C285.89 22.5343 285.658 22.944 285.426 23.393C283.635 26.5662 282.547 31.8279 282.855 34.5114C283.047 36.4305 283.196 36.3542 283.479 39.1503C283.558 39.771 283.642 40.3904 283.801 41.1376C284.167 42.8742 284.448 44.6007 285.525 45.588C286.329 47.4138 287.315 48.644 287.934 50.0597C288.126 50.1289 288.318 50.1948 288.51 50.2576C288.672 50.4389 288.837 50.6175 289.005 50.7932C288.985 50.9156 288.967 51.0385 288.949 51.1618C290.148 52.4808 292.153 53.5439 293.396 54.2899C295.362 55.8206 301.51 57.7109 303.927 57.6561C304.249 57.6822 304.497 57.6821 304.697 57.6775C305.247 57.6593 305.402 57.6147 305.96 57.8878C306.235 57.831 306.509 57.7669 306.781 57.6965C306.94 57.5776 307.099 57.4561 307.252 57.333C308.815 57.0628 310.703 56.6257 312.141 56.0207C314.559 55.0593 317.702 52.8993 319.897 51.1429L319.791 51.2402C320.253 50.8148 320.757 50.5794 321.556 50.7505C321.95 50.8412 322.395 51.1755 322.59 51.5441C322.793 51.9111 322.815 52.2148 322.816 52.4369C322.816 52.4424 322.816 52.4479 322.815 52.4534C322.776 53.1745 322.616 54.071 322.697 54.7446C322.829 55.6927 323.173 55.9636 323.534 56.7812C323.623 56.9588 323.728 57.1068 323.787 57.168C323.852 57.227 323.828 57.2465 323.966 57.2736C324.292 57.2916 324.457 57.263 324.646 57.1358C324.839 57.0071 325.063 56.6703 325.211 56.246C325.514 55.3872 325.581 54.3466 325.576 53.5898C325.574 53.3056 325.546 53.0845 325.515 52.8878C325.478 52.6519 325.436 52.4522 325.424 52.2091C325.33 50.3524 325.248 48.8106 324.949 47.016C325.133 45.0533 325.541 45.1914 325.905 44.5615C326.178 44.0829 326.795 42.6351 327.05 42.4218C327.229 42.2714 327.502 42.7768 327.696 42.5691C328.004 44.8808 327.899 45.8773 327.724 47.8005C327.83 49.477 327.921 51.1638 327.939 52.8706C327.864 54.7025 328.29 56.8382 326.411 58.9999C325.978 59.2569 325.485 59.4067 325.031 59.4313C325.031 59.4311 325.031 59.4308 325.031 59.4306C324.622 59.5292 324.282 59.5499 323.982 59.5593C322.825 59.5846 322.02 59.0969 321.536 58.5091C320.24 56.7492 320.126 54.634 320.031 52.4567C320.033 52.5468 320.035 52.7164 320.175 52.9602C320.308 53.2059 320.63 53.431 320.875 53.4791C321.374 53.5669 321.566 53.4424 321.81 53.2303L321.709 53.3224C317.329 57.1478 310.636 60.302 304.716 60.2681C303.139 60.2525 301.704 60.0997 300.424 59.8773C298.678 59.7719 293.284 57.882 292.422 56.9611C292.181 56.764 292.198 56.5718 291.928 56.3948C289.413 54.9465 287.169 53.0142 285.317 50.7498C281.889 45.8293 279.765 39.7601 279.903 33.694C279.985 29.6566 280.991 25.6425 282.827 22.046C288.539 10.8815 302.455 5.41603 314.241 8.9901C317.265 9.85898 320.918 11.7733 323.127 13.9802C323.196 14.0469 323.261 14.1123 323.322 14.1765L323.299 14.1554C324.118 15.06 324.515 15.5783 325.31 17.3646C325.244 17.4059 325.177 17.4464 325.109 17.486C325.278 18.026 325.352 18.5357 325.365 19.0221L325.364 19.0473C325.369 20.0835 324.991 21.5567 323.366 22.3216C322.265 22.9348 319.974 22.6318 318.699 21.4918L318.709 21.4999C317.903 20.8678 317.16 20.2705 316.772 19.9484C316.31 19.5655 316.573 19.5931 316.134 19.2494C315.387 18.6685 313.648 17.5502 312.68 17.0608C312.501 16.9673 312.303 16.8677 312.12 16.7935C311.096 16.3924 309.8 15.9542 309.111 15.8309C305.99 15.2382 302.519 15.3628 299.383 16.1461C298.514 16.3483 297.375 16.6027 297.12 16.7271C296.62 16.9596 296.553 17.1942 296.242 17.3805C295.023 18.0962 293.344 19.2161 292.182 20.4639L292.188 20.4564C291.838 20.8271 291.532 21.1998 291.282 21.5446C287.767 26.4246 287.095 33.59 288.578 39.4619C288.885 40.6824 289.377 42.1384 290.102 43.5505C291.551 46.5444 294.174 49.1458 296.157 50.407C296.788 50.8194 296.52 50.8865 297.086 51.1892C297.72 51.5152 298.129 51.5423 298.436 51.6589C300.543 52.6572 305.619 52.9739 307.767 52.5612C308.18 52.5174 308.503 52.605 308.749 52.5503C308.772 52.5453 308.799 52.5358 308.83 52.523L308.85 52.5186C308.995 52.4625 309.23 52.3404 309.549 52.2571C312.974 51.3377 315.306 50.2822 318.176 48.2824C318.785 47.8495 319.391 47.3804 319.989 46.8809L319.901 46.9619C320.044 46.8204 320.117 46.7319 320.12 46.7228C320.122 46.71 320.092 46.803 320.097 46.8156L320.1 46.7192C320.167 44.5175 320.059 41.9778 320.007 39.4835C320.007 39.4545 319.997 39.4617 320.023 39.5486C320.043 39.6305 320.146 39.8119 320.279 39.9096C320.563 40.0983 320.558 40.0154 320.46 40.032C317.135 40.1381 313.642 40.3549 310.359 40.4482C308.764 40.4971 307.64 40.2364 307.416 40.246C307.083 40.2603 306.82 40.3655 306.361 40.4464C306.149 40.4831 305.893 40.5154 305.557 40.5246C304.733 40.5333 303.813 40.5458 302.69 40.1553C302.14 39.9536 301.465 39.575 301.017 38.8831C300.565 38.1926 300.49 37.4019 300.544 36.7888L300.541 36.842C300.551 35.97 301.069 35.0716 301.648 34.598C302.225 34.1011 302.82 33.8407 303.37 33.6409C304.479 33.2556 305.485 33.1192 306.388 33.0063C306.881 32.9475 307.428 32.8864 307.999 32.8418C309.3 32.7427 310.678 32.6329 311.764 32.6105C312.995 32.5863 315.889 32.7439 316.433 32.6411C316.766 32.5793 316.921 32.3636 317.318 32.3434ZM322.748 42.8318C322.397 42.6167 322.714 44.9217 322.892 44.0537C322.933 43.857 322.84 42.887 322.748 42.8318ZM323.352 18.2649C323.256 18.2967 323.159 18.3269 323.063 18.3556C323.122 18.5305 323.164 18.715 323.189 18.9095L323.19 18.889C323.194 18.9263 323.198 18.963 323.2 18.999C323.222 18.9659 323.243 18.931 323.264 18.8944L323.263 18.9134C323.31 18.8217 323.353 18.7281 323.392 18.6305C323.386 18.5074 323.372 18.3856 323.352 18.2649ZM381.225 58.0985C380.94 58.2636 380.467 58.338 380.112 58.4841C378.616 59.0837 378.021 59.1928 376.623 59.5654C374.59 60.2952 368.223 61.0268 368.236 59.9866C368.236 59.9866 368.236 59.9866 368.236 59.9865C368.236 59.9776 368.236 59.9686 368.238 59.9595C368.259 59.7872 368.778 59.5897 368.847 59.3905C368.917 59.191 368.83 57.9348 369.516 57.8298C370.511 57.7133 372.95 57.6937 373.481 57.547C373.842 57.4649 374.261 57.2554 374.712 57.1218C376.159 56.6817 376.95 56.5047 378.095 55.7212C378.658 55.6735 379.223 55.6065 379.79 55.5196C380.404 55.1497 381.461 54.8219 381.832 54.5849C382.137 54.3942 382.248 54.174 382.558 53.9701C382.904 53.7407 383.519 53.503 384.118 53.0303C385.093 52.2473 385.032 51.8327 385.554 51.3168C386.091 50.7806 387.067 50.0706 387.611 49.2507C387.663 49.1341 387.713 49.0173 387.762 48.9002C387.641 48.9127 387.521 48.9241 387.401 48.9343C387.683 48.5424 387.946 48.4916 388.223 48.1411C388.545 47.7277 388.566 47.4139 388.766 47.1285C388.929 46.8954 389.257 46.6419 389.447 46.3213C389.723 45.8523 389.497 45.8542 389.613 45.5871C389.682 45.4911 390.56 43.5447 390.583 43.4252C390.616 43.3496 390.648 43.2808 390.679 43.2177C390.984 42.581 391.232 42.5415 391.484 41.9138C392.244 39.9907 392.502 37.8427 392.691 35.9238C392.777 35.0645 392.888 34.1691 392.997 33.3058C393.553 34.7385 394.3 31.7146 393.178 32.7887C393.39 31.8273 393.137 31.1221 393.207 30.1988C393.25 29.6007 393.401 29.1859 393.396 28.3235C393.387 26.7915 392.92 25.1234 393.646 24.6529C393.451 22.844 393.641 21.251 392.957 20.6221C392.895 20.1521 393.23 18.9242 393.262 18.3897C393.276 18.1539 393.286 17.1805 393.306 16.1443L393.306 16.1191C393.356 14.9541 393.384 13.7329 393.376 13.4052C393.37 12.7879 393.323 11.7161 393.22 11.2126C393.096 10.5987 392.444 10.2584 392.922 9.16616C392.945 9.12605 392.97 9.09081 392.996 9.05287C392.693 8.24643 392.433 7.945 391.74 7.51158C391.61 7.44645 391.624 7.33111 391.538 7.3098C391.356 7.26616 391.059 7.33279 390.83 7.42715C390.463 7.56668 390.093 7.70205 390.416 7.8927C390.346 8.02077 390.287 8.16838 390.239 8.33561L390.256 8.30013C390.223 8.45143 390.2 8.64353 390.191 8.85316C390.092 8.97583 389.997 9.11698 389.907 9.26885C389.96 9.52118 390.026 9.77693 390.101 10.036C389.539 9.69699 389.903 11.6345 390.203 10.9902C390.183 11.2457 390.168 11.5005 390.144 11.8171L390.142 11.7605C390.095 12.5443 390.05 13.3295 390.006 14.1157C389.376 14.0022 390.055 16.4119 390.383 16.1894C390.388 16.3091 390.394 16.4288 390.4 16.5486C390.288 17.605 390.472 18.5625 390.416 19.8498C390.357 21.137 390.289 21.0189 390.017 21.419C390.044 21.7194 390.07 22.0215 390.095 22.3223C390.919 23.8903 389.57 23.6349 390.183 26.3439C389.692 27.2121 389.92 29.3444 390.002 30.7741C390.012 30.9399 390.108 30.9467 390.127 31.1684C390.166 31.6191 390.032 32.6307 390.157 32.9533C390.184 33.0224 390.221 33.0599 390.275 33.0554C390.151 33.5353 390.019 34.011 389.876 34.4821C389.889 34.8819 389.894 35.2821 389.893 35.6847C389.989 35.6966 390.085 35.7084 390.18 35.7203C389.745 36.4707 389.632 37.7292 389.409 38.3219C389.365 38.4392 389.231 38.4352 389.104 38.7991C388.957 39.2248 388.771 40.0404 388.567 40.5384C388.645 40.7816 388.72 41.0258 388.791 41.2743C388.546 42.2238 388.049 42.3991 387.804 42.9083C387.776 43.0053 387.002 44.7032 386.946 44.7882C386.593 45.5339 387.079 45.5426 385.64 47.5141C385.375 47.8587 385.07 48.066 384.821 48.3658C384.409 48.9125 383.123 50.5821 383.133 50.8626C382.318 51.2456 380.549 52.6746 379.904 52.9146C379.715 52.9929 379.581 52.8571 379.024 53.1111C378.646 53.286 377.833 53.7928 377.209 54.0603C377.083 54.1148 376.97 54.1596 376.872 54.1928C376.242 54.4017 375.966 54.3201 375.684 54.4023C375.417 54.4783 375.211 54.6796 374.844 54.7844C373.698 55.1083 372.604 55.1148 371.687 55.2491C370.363 55.4418 369.201 55.9012 368.047 56.0764C367.762 56.0521 367.484 55.9657 367.186 55.9556C363.502 55.8557 359.399 54.7095 356.209 52.857C354.635 52.0935 351.713 48.9974 352.026 50.3716C351.455 50.1687 349.024 47.2506 348.426 46.1649C348.363 46.0687 348.314 45.9939 348.277 45.9388C347.812 45.2497 347.339 44.7555 347.022 44.1732C346.093 42.4064 345.681 41.0617 344.969 38.7863C344.789 38.1974 344.479 37.5863 344.417 37.2263C344.341 36.7928 344.443 36.3008 344.379 35.743C344.207 34.4131 343.993 31.9537 344.007 30.6979C344.008 30.4679 344.164 30.3848 344.208 30.0576C344.381 28.784 344.387 27.3768 343.881 27.6197C344.186 26.005 343.97 24.517 343.985 23.0431C343.995 22.0936 344.021 20.913 344.016 19.6652C344.044 17.9992 344.219 16.5568 344.181 15.2222C344.203 13.9367 343.771 12.7473 343.704 12.9314C343.704 12.9327 343.705 12.934 343.705 12.9354C343.298 12.6426 343.112 12.7028 342.982 12.7116C342.836 12.7546 342.858 12.6728 342.506 12.8167C342.348 12.9026 342.144 13.0713 341.983 13.4162C341.981 13.4212 341.979 13.4262 341.976 13.4313L342 13.3442C341.713 14.264 341.277 15.7793 341.519 16.6746C341.557 16.8383 341.606 16.998 341.67 17.1537C341.544 18.9535 341.613 20.3738 341.168 21.6858C341.269 21.8425 341.37 21.9987 341.471 22.1552C341.47 22.3727 341.47 22.5898 341.471 22.8066C341.372 22.8732 341.273 22.9398 341.174 23.0065C341.129 24.5628 341.533 26.5195 341.568 27.8091C341.546 29.9924 341.966 35.4816 342.429 37.4469C342.625 38.5019 342.851 38.4915 342.613 39.2047C342.713 39.4256 342.815 39.6466 342.919 39.8635C343.057 39.9757 343.195 40.0865 343.333 40.1958C343.339 40.2132 343.345 40.2306 343.352 40.248C343.796 41.5042 344.326 43.0083 344.953 44.1264C346.071 46.2284 348.463 48.8601 350.103 50.558C350.506 50.9939 350.943 51.6303 351.403 51.9962C352.076 52.5243 352.432 52.3947 353.313 52.9972C354.801 54.066 357.745 55.9504 359.456 56.4533C359.955 56.615 360.225 56.5716 360.572 56.6626C362.032 57.0345 363.251 57.2977 364.698 57.3025C366.191 57.7907 366.043 58.1492 366.51 58.5896C366.861 58.9224 368.032 59.6508 368.215 59.9106C368.338 60.0979 367.882 60.3405 368.054 60.5467C365.991 60.6917 365.115 60.4112 363.525 59.8824C360.506 59.4136 357.563 58.4565 354.841 57.0665C354.646 56.8389 354.455 56.6095 354.269 56.3779C354.269 56.3776 354.269 56.3774 354.269 56.3772C353.322 55.7001 352.763 55.6781 352.196 55.388C348.116 53.4662 342.637 47.3782 340.769 41.1663C340.061 39.0184 339.649 36.9705 339.385 35.2748C339.1 33.8782 338.597 29.3078 338.791 28.3457C338.831 28.0957 339.002 28.022 339.003 27.7587C338.841 25.4095 338.777 23.065 338.703 20.7397C338.796 19.3968 338.846 18.0465 338.85 16.6935C338.896 15.2879 338.951 14.1587 339.216 12.6692L339.23 12.6166C339.564 11.4039 340.471 10.1434 341.922 9.71574C343.383 9.26224 344.914 9.94808 345.782 10.8291C346.069 11.1095 346.263 11.4153 346.408 11.7068C347.582 14.8075 346.867 17.3166 346.92 19.6446C347.031 28.5212 345.815 37.7847 350.662 44.5764C351.53 45.7927 352.539 46.9121 353.66 47.9072C355.382 49.4771 358.011 50.8725 360.12 51.7238C360.996 52.0804 361.301 52.4835 362.575 52.5951C362.569 52.6713 362.564 52.7475 362.559 52.8237C363.66 52.9913 364.38 52.9508 365.601 53.0705C366.629 53.2102 369.367 53.1904 370.276 53.0826C370.748 53.0459 370.589 53.206 371.03 53.1482C371.79 53.0553 373.342 52.548 374.331 52.2391C374.854 52.0851 375.594 51.8926 376.249 51.6728C376.717 51.5167 377.135 51.3473 377.402 51.205C379.701 49.9962 381.698 48.0088 383.326 45.8352C383.784 45.241 384.444 44.4959 384.558 44.2807C384.78 43.8682 384.688 43.6588 384.811 43.3726C385.456 41.9286 386.493 39.6427 386.855 38.0822C387.278 36.3824 387.539 34.5959 387.656 32.7841C387.89 29.148 387.871 25.4546 387.775 21.894C387.712 19.2043 387.454 15.0858 387.358 11.8947L387.356 11.8369C387.352 11.1148 387.324 10.2187 387.401 9.48791C387.493 8.70345 387.658 8.94027 387.785 8.26266C387.867 7.88593 387.942 7.56893 388.03 7.29198L388.046 7.25843C388.138 6.9941 388.226 6.78147 388.344 6.60525C388.814 5.69486 390.71 4.57655 392.378 5.18901C394.007 5.67558 395.244 7.1647 395.478 8.7471C395.623 9.63194 395.684 10.4206 395.694 10.9912C395.7 11.3768 395.566 11.6629 395.58 11.8898C395.587 12.0046 395.706 12.2588 395.733 12.6191C395.826 13.894 395.845 15.0211 395.853 16.101L395.852 16.0737C395.896 17.6663 395.937 19.2029 396 21.0249C396.195 26.8265 396.725 33.795 395.054 40.0092C394.695 41.3567 394.092 42.1643 394.035 42.3472C393.901 42.7516 394.007 43.0795 393.728 43.9099C393.667 44.0873 393.602 44.2676 393.531 44.4503C392.533 47.1397 390.307 50.055 388.546 51.9501C387.64 52.9753 386.368 54.4105 385.285 55.25C384.444 55.9571 382.175 57.17 381.787 57.4667C381.558 57.6613 381.534 57.9186 381.225 58.0985ZM393.558 27.4017C393.913 27.5778 393.585 25.687 393.412 26.4025C393.374 26.5634 393.468 27.3563 393.558 27.4017ZM362.442 54.7287C362.437 54.83 362.433 54.9314 362.429 55.0328C362.695 55.0507 362.96 55.0642 363.225 55.0734C363.092 54.9864 362.96 54.8983 362.83 54.8092C362.7 54.7834 362.571 54.7566 362.442 54.7287ZM427.961 10.6011C427.638 10.6714 427.164 10.6062 426.78 10.6534C425.174 10.849 424.566 10.8419 423.111 10.9939C420.966 11.2079 414.575 12.311 414.646 11.4858C414.646 11.4858 414.646 11.4858 414.646 11.4858C414.644 11.4772 414.641 11.4685 414.639 11.4597C414.54 11.2992 415.041 10.9907 415.069 10.7896C415.104 10.5847 414.813 9.34494 415.594 9.13797C416.726 8.84627 419.436 8.78548 420.036 8.68605C420.445 8.61766 420.923 8.43396 421.45 8.33911C423.116 8.0382 424.011 7.99886 425.477 7.47746C426.101 7.55612 426.731 7.63358 427.358 7.71098C428.135 7.52396 429.361 7.56779 429.838 7.4865C430.229 7.41999 430.44 7.25776 430.848 7.19207C431.306 7.11751 432.032 7.15302 432.861 7.00714C434.224 6.76734 434.415 6.39326 435.225 6.22321C436.062 6.04704 437.414 6.01638 438.469 5.71357C438.598 5.65361 438.725 5.59371 438.851 5.53386C438.742 5.46714 438.632 5.40041 438.522 5.33367C439.043 5.20373 439.325 5.32977 439.809 5.2455C440.403 5.14131 440.656 4.92614 441.05 4.85069C441.154 4.83081 441.271 4.82242 441.395 4.81712C441.591 4.81804 441.823 4.81595 442.024 4.73906C442.453 4.56397 442.277 4.42086 442.463 4.29026C442.496 4.26889 442.885 4.01598 443.051 3.78306C443.227 3.53587 443.15 3.51616 443.159 3.51821C443.156 3.51889 443.214 3.48397 443.247 3.39244L443.256 3.41545C443.322 3.39973 443.403 3.34576 443.311 3.25066C443.121 3.01983 442.248 2.84575 441.874 2.97613L441.769 2.99235C440.435 3.2113 439.107 3.51496 437.862 3.77209C436.923 3.96635 435.933 4.12796 434.982 4.26198C436.352 3.33085 432.955 3.43615 434.383 4.22916C433.304 4.28145 432.612 4.70236 431.607 4.85244C430.956 4.94975 430.482 4.89706 429.562 5.08763C427.931 5.42661 426.23 6.20363 425.606 5.57667C423.715 6.10882 422.001 6.20184 421.443 6.99083C421.224 7.05619 420.826 7.0706 420.412 7.07061L420.424 7.06801C419.904 7.07543 419.349 7.05805 419.038 7.09369C418.49 7.15252 414.455 7.82784 413.823 7.9999C413.178 8.14637 412.066 8.44142 411.574 8.66508C411.341 8.76763 411.163 8.94624 410.974 9.10884L411.03 9.08694C410.776 9.36393 410.6 9.50707 409.87 9.52883C409.254 10.3505 409.153 10.7557 408.88 11.9518C408.838 12.1739 408.72 12.1902 408.708 12.3258C408.683 12.6027 408.742 13.0839 408.738 13.6059L408.739 13.5653C408.739 13.5707 408.739 13.5761 408.739 13.5815C408.763 14.4504 408.525 14.9545 408.902 14.851C408.974 15.4275 409.049 16.0001 409.127 16.5722C409.058 16.7752 408.99 16.9802 408.923 17.1842C409.011 17.4882 409.099 17.7945 409.189 18.1001C408.628 17.7548 409.025 19.9121 409.315 19.1971C409.242 20.3167 409.176 21.4379 409.115 22.5601C408.483 22.4342 409.165 25.0182 409.494 24.7798C409.5 24.9074 409.507 25.0352 409.513 25.163C409.408 26.2911 409.603 27.3114 409.576 28.6825C409.549 30.0538 409.481 29.9302 409.222 30.3634C409.259 30.6832 409.296 31.0045 409.333 31.3243C410.229 32.9579 408.85 32.752 409.652 35.5988C409.223 36.5569 409.644 38.8109 409.902 40.3122C409.931 40.4868 410.027 40.4831 410.073 40.7141C410.185 41.2825 410.165 42.7492 410.47 42.6772C410.442 42.9461 410.414 43.213 410.386 43.4776L410.385 43.4647C410.362 43.7093 410.339 43.9545 410.316 44.1999C410.406 44.6076 410.495 45.0144 410.586 45.4204C410.682 45.4103 410.778 45.4001 410.874 45.3899C410.614 46.2446 410.859 47.5261 410.849 48.1677C410.847 48.2959 410.716 48.3368 410.724 48.7339C410.731 49.1981 410.874 50.0462 410.91 50.5944C411.086 50.7851 411.262 50.974 411.44 51.1606C411.666 52.1055 411.346 52.5051 411.423 53.0733C411.426 53.1794 411.86 54.9957 411.906 55.0852C411.949 55.2121 411.994 55.3094 412.039 55.3935L412.045 55.4188C412.147 55.5867 412.259 55.674 412.411 55.8522C412.58 56.0267 412.708 56.27 413.26 56.6407C413.502 56.7948 413.712 57.0011 414.019 57.0972C414.536 57.3162 416.494 57.192 416.66 56.9352C417.148 57.1428 418.208 57.1552 419.126 57.1575C419.645 57.1606 420.112 57.156 420.356 57.1841C420.556 57.2072 420.604 57.3987 421.22 57.4267C421.718 57.45 423 57.2647 423.635 57.2733C424.309 57.2834 424.554 57.4378 424.856 57.441C425.141 57.4438 425.401 57.3066 425.789 57.2968C427.003 57.2682 428.108 57.4483 429.07 57.4303C429.984 57.4137 430.82 57.2334 431.628 57.0656C432.044 56.9779 432.443 56.8898 432.831 56.8227C433.112 56.8418 433.388 56.9166 433.68 56.9058C434.413 56.8787 435.161 56.8352 435.874 56.745C436.23 56.6994 436.577 56.6414 436.877 56.5643C437.024 56.5267 437.159 56.4827 437.251 56.444C437.342 56.4115 437.387 56.3561 437.293 56.4543L437.26 56.4935C437.562 56.1392 437.609 55.861 437.562 55.7106C437.532 55.5345 437.21 55.1879 436.704 54.9463L436.741 54.9631C436.316 54.7616 435.492 54.6597 434.756 54.6277C433.761 54.5635 431.705 54.509 430.583 54.689L430.599 54.6872C429.916 54.8012 429.586 54.9677 430.061 55.2448C429.466 55.4829 425.016 55.5473 424.172 55.5848C423.329 55.6401 422.669 55.8371 422.002 55.8741C420.377 55.9452 419.229 55.9731 417.337 55.8506L417.278 55.8424C416.845 55.7805 416.375 55.7347 415.74 55.5846C415.234 55.4387 414.295 55.3124 413.64 54.2428L413.597 54.1528C413.489 53.97 413.396 53.7694 413.346 53.6084C413.147 52.958 413.262 52.3832 413.202 51.7785C413.15 51.2152 413.087 50.4988 413.022 49.7444L413.024 49.7701C412.901 48.5723 412.797 47.2918 412.763 46.4794C412.753 46.2347 412.905 46.1419 412.932 45.793C413.04 44.4348 412.949 42.934 412.461 43.2255C412.657 41.4884 412.327 39.9118 412.244 38.3183C412.211 37.6834 412.18 36.9498 412.15 36.1577L412.149 36.1034C412.073 34.9088 413.272 33.6175 414.541 33.6801L414.493 33.6812C417.764 33.6067 421.497 33.6179 423.615 33.4453C425.463 33.2985 425.414 33.0738 428.136 33.2488C428.74 33.2876 429.341 33.3414 430.075 33.3874C431.794 33.4956 433.367 33.8988 434.673 33.3846C436.582 33.496 438.089 33.3861 439.511 33.7888C439.677 33.6827 439.826 33.5769 440 33.4702C440.127 33.4661 440.248 33.462 440.364 33.4578L440.346 33.4583C440.416 33.4546 440.482 33.4485 440.547 33.4399C440.603 33.5323 440.662 33.6231 440.725 33.7118C441.281 33.6471 441.755 33.2029 441.802 32.8614C441.834 32.6944 441.771 32.6046 441.733 32.6118C441.692 32.6173 441.695 32.6512 441.645 32.6065C441.594 32.5622 441.4 32.4399 441.001 32.3788C439.324 32.1152 436.809 32.0433 434.813 32.0852L434.788 32.0864C433.719 32.0897 432.772 32.0899 432.133 32.0792C430.935 32.0593 430.879 32.2723 430.18 31.8702C429.91 31.9119 429.649 31.9534 429.381 31.9951C429.218 32.097 429.053 32.1989 428.892 32.3006C427.359 32.3718 425.532 32.3068 424.072 32.3744C421.408 32.497 417.428 32.9448 414.735 32.8855C414.54 32.8819 414.401 32.8687 414.159 32.8486C412.959 32.7054 412.417 32.0613 412.338 30.9315L412.341 31.0201C412.354 30.7496 412.359 30.4864 412.341 30.2482C412.27 29.2875 411.931 29.0753 411.852 27.8544C411.765 26.4465 411.807 24.2396 411.886 22.2859L411.888 22.3429C411.89 21.3818 411.892 20.513 411.857 19.8552C411.827 19.2662 411.697 18.996 411.67 18.5888C411.558 16.8842 411.524 15.4875 411.317 13.8355C411.459 12.9644 411.638 12.5382 411.842 12.241L411.845 12.2057C412.068 11.953 412.277 11.8544 412.556 11.5757C412.745 11.3553 413.259 10.9937 413.677 11.0843C414.092 11.1357 414.438 11.3245 414.541 11.4343C414.67 11.5954 414.396 11.9127 414.571 12.081C414.428 12.1378 414.337 12.1959 414.33 12.2129C414.32 12.2346 414.407 12.1764 414.446 12.11C414.519 11.9544 414.427 12.1602 414.382 12.4694L414.387 12.4186C414.304 12.9978 414.193 13.7562 414.051 14.6517C414.113 17.1679 414.208 19.7111 414.337 22.2142L414.339 22.2685C414.346 22.8534 414.367 23.4575 414.391 24.0599C414.288 24.3466 414.187 24.6343 414.087 24.924C414.087 24.924 414.086 24.924 414.086 24.924C414.01 26.1309 414.329 26.6252 414.43 27.2682C414.595 28.3019 414.744 29.51 414.896 30.8194L414.901 30.9133C414.894 30.6012 414.789 30.4651 414.7 30.3614C414.602 30.2659 414.473 30.1474 414.139 30.1344C420.439 29.6903 429.216 29.569 434.687 29.4267L434.667 29.4276C434.769 29.4232 434.871 29.4191 434.971 29.4152C436.158 29.3551 439.446 29.2125 441.378 29.5517C441.995 29.6427 442.507 29.8591 442.766 30.0337C443.086 30.2548 443.078 30.4507 443.378 30.7175C444.543 31.6115 444.496 33.5428 443.668 34.529C442.878 35.5959 441.615 36.0949 440.443 36.1694L440.43 36.1697C439.811 36.2103 439.197 36.2467 438.565 36.2821C433.417 36.0848 428.107 36.3307 422.931 36.4132C420.148 36.4607 417.31 36.4922 414.597 36.587L414.561 36.5878C414.643 36.5946 414.824 36.538 414.923 36.4305C415.024 36.3245 415.066 36.2156 415.069 36.0827L415.068 36.0413C415.294 40.5601 415.489 45.0816 415.913 49.4945L415.915 49.5171C416.037 50.7642 416.096 52.2595 416.415 52.9216L416.38 52.8483C416.298 52.6906 416.218 52.6686 416.273 52.6957C416.32 52.7212 416.447 52.7699 416.598 52.8101C416.906 52.8935 417.309 52.9603 417.727 53.0256L417.67 53.0178C421.275 53.2071 425.444 52.7558 429.333 52.3755C429.649 52.3418 429.981 52.3031 430.312 52.2614L430.334 52.259C432.579 52.0882 434.953 51.4868 437.817 52.4543L437.86 52.4733C438.184 52.6297 438.503 52.817 438.804 53.0489C439.946 54.0003 440.573 55.3314 439.848 57.4007C439.771 57.3869 439.694 57.3719 439.618 57.3557C439.49 57.6323 439.346 57.8697 439.195 58.0833L439.167 58.1167C438.431 58.8931 437.951 58.9591 437.435 59.1695C436.927 59.3407 436.409 59.4569 435.792 59.5336C434.895 59.6569 433.005 59.7377 431.647 59.7305C431.109 59.7319 430.638 59.735 430.338 59.732C429.803 59.7275 430 59.5832 429.499 59.5943C428.642 59.6141 426.81 59.8567 425.622 59.8896C424.546 59.9192 422.724 59.8063 421.894 59.8483C421.005 59.8935 420.085 59.9518 419.146 59.9995C417 60.0384 414.576 60.5669 411.814 59.1072C410.669 58.5162 409.948 56.8557 409.89 56.5289C409.804 56.3005 409.74 56.142 409.675 55.9943L409.684 56.0282C409.564 55.8021 409.44 55.6684 409.364 55.424C408.769 53.5811 408.541 50.6299 408.364 48.82C408.185 47.1127 408.049 45.3846 407.904 43.6685L407.903 43.6505C407.595 39.4087 407.242 35.0836 406.997 30.9382C406.771 27.2588 406.41 21.1296 406.456 17.7062C406.464 16.9706 406.663 17.1592 406.648 16.5418C406.632 15.856 406.495 15.4889 406.479 15.1662C406.457 14.7282 406.433 14.1837 406.412 13.5818L406.412 13.5294C406.431 12.4576 406.4 11.0681 406.948 9.58759C407.462 8.06902 408.923 6.90637 409.977 6.55312L410.033 6.53128C410.315 6.43752 410.574 6.36262 410.798 6.30531C411.206 6.20161 411.536 6.26419 411.772 6.19598C411.892 6.16197 412.134 5.9855 412.507 5.87596C415.23 5.08861 417.37 4.73349 419.796 4.23398C420.306 4.13176 420.839 4.02441 421.38 3.91491C427.525 2.68637 434.558 0.928032 441.207 0.136379C441.279 0.128446 441.35 0.121544 441.418 0.115593L441.335 0.128553C443.234 -0.0912421 444.134 0.810679 444.369 0.90639C444.816 1.19377 445.383 1.1685 446.007 2.3349L446.013 2.35101C446.05 2.43454 446.085 2.52252 446.116 2.61885C446.587 3.82304 445.926 5.45854 445.009 6.18941C444.099 6.99169 443.041 7.41313 441.951 7.62537C440.347 7.92231 438.751 8.17045 437.442 8.43392C436.065 8.71122 434.198 9.25872 432.839 9.51816C431.755 9.72759 429.165 9.99951 428.698 10.1791C428.413 10.2884 428.309 10.5241 427.961 10.6011ZM428.548 5.12278C428.669 4.74017 426.716 5.44127 427.51 5.46845C427.687 5.4746 428.517 5.22151 428.548 5.12278ZM437.82 56.6996C437.73 56.6541 437.641 56.6072 437.552 56.5587C437.535 56.6009 437.516 56.6429 437.494 56.6857L437.52 56.6553C437.587 56.6356 437.52 56.7366 437.415 56.8133C437.529 56.8286 437.63 56.8387 437.705 56.8547C437.716 56.8446 437.723 56.8367 437.723 56.8355L437.704 56.8581C437.745 56.8058 437.784 56.753 437.82 56.6996Z" fill="#000478"/>
</svg>
