<svg width="1090" height="598" viewBox="0 0 1090 598" fill="none" xmlns="http://www.w3.org/2000/svg">
<path opacity="0.5" d="M942.706 199.3C942.706 170.843 919.637 147.773 891.18 147.773C862.722 147.773 839.653 170.843 839.653 199.3V420.961C839.653 518.145 760.87 596.928 663.686 596.928C566.502 596.928 487.718 518.145 487.718 420.961V148.261C487.718 148.191 487.714 148.146 487.712 148.122C487.71 148.105 487.708 148.094 487.707 148.089C487.698 148.07 487.661 148.001 487.575 147.916C487.487 147.828 487.418 147.791 487.401 147.783C487.396 147.782 487.385 147.781 487.369 147.779C487.345 147.777 487.3 147.773 487.23 147.773C487.169 147.773 487.136 147.778 487.124 147.78C487.11 147.783 487.098 147.786 487.085 147.79C487.055 147.8 487.002 147.823 486.94 147.869C486.878 147.915 486.84 147.96 486.822 147.985C486.814 147.996 486.808 148.007 486.802 148.02L486.765 148.119L367.144 543.697C345.817 614.221 245.807 613.201 225.703 542.674L225.471 541.842L146.801 254.753V597.9H0V130.021C2.76984e-06 58.2119 58.2119 0 130.021 0L131.392 0.00683594C188.938 0.607758 239.26 38.9954 255.049 94.3369L255.419 95.6582L300.03 258.46L346.247 105.628L346.694 104.175C365.934 42.821 422.814 0.971881 487.23 0.97168C568.576 0.97168 634.52 66.9154 634.52 148.261V420.961C634.52 437.069 647.578 450.127 663.686 450.127C679.793 450.127 692.851 437.069 692.852 420.961V199.3C692.852 89.7661 781.646 0.971684 891.18 0.97168C1000.71 0.97168 1089.51 89.7663 1089.51 199.3V593.525H942.706V199.3Z" fill="#ECEBF3"/>
</svg>
