<svg width="594" height="326" viewBox="0 0 594 326" fill="none" xmlns="http://www.w3.org/2000/svg">
<path opacity="0.23" d="M513.964 108.666C513.964 93.1504 501.386 80.5722 485.871 80.5722C470.356 80.5722 457.779 93.1505 457.779 108.666V229.525C457.779 282.514 414.826 325.47 361.842 325.47C308.857 325.47 265.904 282.514 265.904 229.525V80.8379C265.904 80.8 265.902 80.7753 265.901 80.7623C265.9 80.7529 265.899 80.7471 265.898 80.7442C265.893 80.7339 265.873 80.6965 265.826 80.6499C265.778 80.602 265.74 80.5818 265.731 80.5775C265.728 80.577 265.722 80.5762 265.714 80.5754C265.701 80.5741 265.676 80.5722 265.638 80.5722C265.605 80.5722 265.587 80.5748 265.58 80.5759C265.573 80.5772 265.566 80.5789 265.559 80.5812C265.543 80.5867 265.514 80.5993 265.48 80.6244C265.446 80.6496 265.425 80.6739 265.416 80.6877C265.411 80.6937 265.408 80.6994 265.404 80.7064L265.384 80.7607L200.167 296.446C188.54 334.899 134.014 334.342 123.053 295.888L122.927 295.435L80.0358 138.902V326H0V70.8925C1.51012e-06 31.7395 31.7371 0 70.8872 0L71.6347 0.00372724C103.009 0.331375 130.445 21.2619 139.053 51.4364L139.254 52.1568L163.577 140.923L188.774 57.5927L189.018 56.8004C199.508 23.3478 230.518 0.52991 265.638 0.5298C309.988 0.5298 345.94 36.485 345.94 80.8379V229.525C345.94 238.308 353.06 245.428 361.842 245.428C370.624 245.428 377.743 238.308 377.743 229.525V108.666C377.743 48.9442 426.154 0.529802 485.871 0.5298C545.589 0.5298 594 48.9443 594 108.666V323.615H513.964V108.666Z" fill="#BEE0C7"/>
</svg>
