<svg width="55" height="53" viewBox="0 0 55 53" fill="none" xmlns="http://www.w3.org/2000/svg">
<path d="M26.3578 42.1226C26.2272 42.3671 25.9385 42.6474 25.762 42.9219C25.0217 44.0713 24.6972 44.466 24.0122 45.4965C22.9964 47.0244 20.2336 51.7154 19.6594 51.359C19.6594 51.359 19.6593 51.359 19.6593 51.359C19.6537 51.3555 19.6483 51.3515 19.6431 51.347C19.5438 51.2629 19.6686 50.7955 19.5812 50.6603C19.4936 50.5252 18.6676 50.0727 18.9696 49.4863C19.4133 48.6397 20.8247 46.8242 21.0839 46.3866C21.261 46.0874 21.4142 45.6788 21.6358 45.2932C22.3503 44.0499 22.7991 43.4459 23.283 42.2265C23.6594 41.8523 24.0359 41.4782 24.4123 41.104C24.7196 40.5016 25.3955 39.7192 25.604 39.3667C25.775 39.0775 25.7966 38.8593 25.9774 38.5596C26.0869 38.3775 26.2563 38.1601 26.4463 37.9015L27.0165 37.007L27.5575 37.9015C27.6827 38.1431 27.8279 38.4112 28.0069 38.6857C28.646 39.6669 28.9704 39.7107 29.3682 40.2905C29.7807 40.8918 30.2618 41.9265 30.8277 42.6692C30.9128 42.7536 30.9978 42.838 31.0829 42.9224C31.0922 42.8183 31.1015 42.7142 31.1108 42.6101C31.3826 42.9924 31.3795 43.2313 31.6045 43.598C31.8691 44.0294 32.109 44.1844 32.2882 44.474C32.4349 44.7113 32.5514 45.0843 32.7475 45.3884C33.0329 45.832 33.0921 45.6595 33.2643 45.8866C33.3327 45.9774 34.5035 47.7148 34.5668 47.8146C35.0455 48.5747 34.9224 48.7432 35.286 49.3606C35.4886 49.7043 35.6992 50.0455 35.9147 50.3838L34.239 50.0529C35.5228 49.1036 36.7544 48.0801 37.9178 47.1823C38.5677 46.6807 39.2686 46.1888 39.9502 45.7351C39.1947 46.8906 41.7329 45.5339 40.4148 45.5301C41.2174 45.0867 41.6185 44.5395 42.339 44.0631C42.8051 43.7552 43.1812 43.6162 43.8259 43.1475C44.9694 42.3153 46.0452 41.1625 46.6979 41.3719C46.9312 41.1818 47.1642 41.0039 47.3908 40.8356L47.2345 42.2281C46.3767 41.2815 45.727 40.4501 45.1037 40.3461C44.7984 40.0445 44.2908 39.0295 44.003 38.6432C43.7307 38.2779 41.5258 35.5769 41.1545 35.1444C40.7832 34.7118 40.1296 33.9579 39.7802 33.6259C39.3419 33.2083 38.6843 33.2259 38.4176 32.0299C37.9564 31.5451 37.6615 31.221 37.3771 30.8837L36.4711 29.8307L37.802 29.5085C38.1748 29.4221 38.5528 29.3473 39.0832 29.2451C39.29 29.2053 39.3347 29.2844 39.4537 29.2542C39.6989 29.1917 40.1001 29.0228 40.5358 28.9037C41.2523 28.708 41.7085 28.7822 41.5588 28.5296C42.0216 28.363 42.4844 28.1965 42.9472 28.0299C43.1271 28.0402 43.307 28.0506 43.4869 28.0609C43.7259 27.9389 43.965 27.8169 44.2041 27.6949C44.0067 28.1659 45.7328 27.4782 45.0953 27.399C46.0359 27.2466 46.9765 27.0943 47.9171 26.9419C47.9031 27.4236 49.9499 26.4796 49.7069 26.2815C49.8122 26.2551 49.9175 26.2286 50.0229 26.2022C50.861 26.1008 51.5979 25.8459 52.5428 25.646L51.8732 26.8605C51.8379 26.7344 51.8033 26.6044 51.77 26.4697C51.4909 25.342 51.5674 25.4315 51.6613 25.0306C51.5655 24.7749 51.4697 24.5193 51.3739 24.2637C50.3764 23.0831 51.4168 23.0113 50.234 20.8191C50.3417 19.9612 49.5624 18.1852 49.0615 17.0026C49.0033 16.8649 48.9347 16.8845 48.8526 16.7027C48.6526 16.2579 48.3579 15.053 48.1522 15.1642C48.0833 14.7364 48.0144 14.3085 47.9455 13.8807C47.7977 13.5607 47.6498 13.2406 47.502 12.9206C47.4343 12.9445 47.3666 12.9683 47.2988 12.9922C47.3079 12.5471 47.158 12.003 47.0116 11.5222L48.1435 12.0335C47.8293 12.1628 47.5437 12.2877 47.3321 12.3535C47.2276 12.3858 47.1667 12.3043 46.8459 12.4137C46.4706 12.5411 45.8068 12.8603 45.3626 13.0188C45.2382 13.1921 45.1138 13.3654 44.9894 13.5388C44.2406 13.9276 43.8541 13.7794 43.3916 13.955C43.3084 13.9867 41.8266 14.6505 41.7488 14.691C41.111 15.0203 41.3952 15.1661 39.4733 15.9401C39.1311 16.0778 38.8234 16.1179 38.5161 16.2471C37.9732 16.4753 36.4215 17.3576 36.3644 17.5772C35.8827 17.6278 34.9934 17.9986 34.2788 18.2986L32.607 18.999L32.7683 17.2188C32.8062 16.798 32.8384 16.4329 32.8768 16.2367C32.91 16.0689 33.0551 16.0419 33.1265 15.5237C33.1845 15.1037 33.1565 14.0078 33.2178 13.474C33.2834 12.9075 33.4188 12.7141 33.4473 12.4602C33.4741 12.2203 33.3953 11.9909 33.4217 11.6633C33.5058 10.6404 33.7341 9.7262 33.8008 8.9178C33.8976 7.7487 33.6938 6.69314 33.6443 5.70466C33.682 5.46326 33.7621 5.22948 33.7828 4.97489C33.8635 3.98775 33.9517 2.96132 34.0443 1.92007L35.0567 3.01558C32.7672 2.99294 30.4052 2.95489 28.2295 2.91281C26.7583 2.88465 23.0997 2.49607 24.0762 3.14443C23.5649 3.25798 19.8474 2.99658 19.1403 2.99264C19.0747 2.99228 19.0103 2.99295 18.9471 2.99447L19.9385 1.92173C20.0019 2.53639 20.1374 3.03525 20.1787 3.53764C20.3157 5.2089 20.3251 6.39263 20.5867 8.41942C20.6545 8.94287 20.8363 9.49512 20.8593 9.80647C20.8866 10.1815 20.7857 10.5954 20.8156 11.0817C20.8879 12.2408 21.1019 14.3947 21.1666 15.5071C21.1781 15.7102 21.0671 15.7906 21.0536 16.0835C21.0354 16.4739 21.0365 16.879 21.0602 17.2327L21.1621 18.7477L19.7949 18.1371C19.1731 17.8592 18.68 17.7433 18.7181 18.0274C17.4696 17.2562 16.1601 16.9002 14.9204 16.3767C12.4544 15.3345 8.12841 13.3801 5.67889 12.4528L7.42671 11.6632C7.38324 11.8219 7.3431 11.9729 7.30669 12.1151C6.91837 13.6322 7.09002 13.6458 6.24221 15.7899C6.05404 16.2658 5.85593 16.7361 5.62831 17.3136C5.09443 18.667 4.38887 19.8386 4.40181 21.0065C3.81194 22.5107 3.48063 23.7536 2.80793 24.7934C2.83712 24.9512 2.86632 25.109 2.89551 25.2668C2.83627 25.4554 2.77702 25.6441 2.71778 25.8328C2.62937 25.8689 2.54095 25.9051 2.45253 25.9412C2.35281 26.2346 2.26199 26.5499 2.17707 26.8756L1.47307 25.5987C2.6536 25.8263 3.96029 25.9705 4.86771 26.2033C6.8151 26.7024 11.8043 28.0926 13.6273 28.6582C14.5952 28.9585 14.6865 28.8205 15.1688 29.2747C15.3937 29.3089 15.6186 29.343 15.8434 29.3772C15.9816 29.3476 16.1197 29.3179 16.2578 29.2883L17.9614 29.7432L16.7972 31.0339C16.7928 31.0502 16.7885 31.0665 16.7841 31.0828C15.928 32.0589 14.828 33.1423 14.0112 34.0712C12.523 35.7639 10.4309 38.4315 8.8393 40.0458C8.44009 40.4505 7.86234 40.887 7.49619 41.3051C7.1567 41.6926 7.05397 41.9577 6.84966 42.2989L6.67571 40.7488C6.88056 40.8458 7.11321 40.9733 7.41635 41.1901C8.85519 42.2194 11.3632 44.374 12.7317 45.3352C13.138 45.6208 13.3783 45.6838 13.662 45.8768C14.8521 46.685 15.8052 47.3817 17.0043 48.0764C18.0699 49.1298 17.792 49.2963 17.9883 49.8083C18.1376 50.1956 18.6949 51.2456 18.7014 51.4951C18.706 51.6704 18.2791 51.5836 18.3101 51.7953C16.8 50.8567 16.2747 50.3112 15.2331 49.2932C13.0711 47.7436 10.9091 46.194 8.74712 44.6444C8.59992 44.4349 8.45272 44.2253 8.30552 44.0157C8.30563 44.0156 8.30573 44.0154 8.30584 44.0153C7.53409 43.3391 7.05673 43.2607 6.58133 42.9781C6.25033 42.7813 5.90001 42.5651 5.53314 42.332L4.73152 41.7691L5.38459 41.0082C7.85231 37.8482 11.884 33.4253 15.2867 29.7032L15.7613 31.2391C13.9027 30.7294 12.1771 30.2548 10.7377 29.8745C9.52796 29.5549 5.55574 28.6603 4.75732 28.3167C4.55066 28.2275 4.52261 28.087 4.29482 28.0232C3.20831 27.7883 2.12179 27.5535 1.03528 27.3186L0.240889 27.1273L0.489013 26.3277C0.763652 25.3635 1.03829 24.3993 1.31293 23.4351C2.83 19.4048 4.04971 15.1266 5.3569 10.9914L5.64016 10.0787L6.54305 10.4556C6.58293 10.4725 6.62279 10.4894 6.66263 10.5063C11.3097 12.4781 15.9383 14.4384 20.5469 16.3992L19.1724 17.3817C18.7369 12.2649 18.3118 7.16652 17.9093 2.08193L17.8074 0.973659L18.9471 0.958934C20.5441 0.958581 22.1395 0.960327 23.7336 0.964559C25.9852 0.970746 28.8425 0.873933 31.0467 0.936361C31.9667 0.962244 32.35 1.16975 33.5585 1.0151C33.5712 1.071 33.5839 1.12691 33.5966 1.18282C34.1445 1.14776 34.5896 1.09658 35.0567 1.05368L36.0683 1.04061L36.0001 2.07448C36.0056 2.50829 36.0027 2.96025 35.9641 3.52716C35.8964 4.52065 35.6974 7.14757 35.6068 8.02306C35.5602 8.4772 35.4695 8.29948 35.4365 8.72367C35.3809 9.44999 35.4024 11.0129 35.3233 12.015C35.2516 12.9227 35.0108 14.4436 34.9731 15.1429C34.9334 15.8731 34.9021 16.6229 34.8712 17.3849L33.4411 16.3626C35.1251 15.5561 36.8716 14.7131 38.6359 13.9867C39.3224 13.7044 40.2523 13.4496 40.4641 13.3539C40.8776 13.1664 40.9495 12.9919 41.2227 12.8552C42.6104 12.1616 44.8887 11.3462 46.2847 10.7489C46.6496 10.5928 47.0159 10.4355 47.3836 10.2772L48.4484 9.8001L48.8318 10.9314C50.2413 15.3004 51.7669 19.8496 53.1447 24.1665C53.3415 24.7832 53.5674 25.484 53.8089 26.2323L54.1757 27.3147L53.0448 27.6182C50.1417 28.3521 46.5382 29.2676 44.3132 29.753C43.7074 29.8852 43.8319 29.7047 43.3277 29.8331C42.7686 29.9754 42.4898 30.1469 42.2305 30.221C41.2921 30.4896 39.7597 30.9216 38.2634 31.3211L38.7806 29.6473C39.7273 30.6971 40.6362 31.7324 41.1563 32.3947C41.3639 32.6592 41.44 32.9165 41.5732 33.067C41.6404 33.1433 41.8501 33.2648 42.0671 33.4992C43.983 35.5685 45.308 37.1406 47.1143 39.2309C47.6114 39.8061 48.123 40.3916 48.6453 40.9852L49.3277 41.7399L48.491 42.3603C44.6685 45.1156 40.5249 48.2238 36.6267 50.9549C36.168 51.2763 35.7494 51.5143 35.4184 51.6873L34.6975 52.2218L34.2025 51.4471C34.0286 51.0495 33.934 50.776 33.8847 50.6989C33.6837 50.3838 33.4299 50.2599 32.9991 49.6366C31.5679 47.5633 29.9161 44.5999 28.5894 42.6064C27.9341 41.6215 26.9148 40.3419 26.265 39.3756C26.1766 39.2441 26.0714 39.0797 25.9564 38.8959L28.0475 38.8959C27.4938 39.7944 26.6325 41.1061 26.5112 41.4331C26.422 41.6726 26.4989 41.8569 26.3578 42.1226ZM44.5878 42.7523C44.6056 43.0599 45.8902 41.8666 45.2793 42.1355C45.1417 42.196 44.583 42.6726 44.5878 42.7523ZM33.8941 2.58083C33.91 2.65505 33.926 2.72927 33.9419 2.80349C34.1703 2.77261 34.3988 2.74172 34.6272 2.71084C34.4988 2.66622 34.3704 2.62161 34.242 2.57699C34.1261 2.57827 34.0101 2.57955 33.8941 2.58083Z" fill="#000478"/>
</svg>
