<svg width="60" height="60" viewBox="0 0 60 60" fill="none" xmlns="http://www.w3.org/2000/svg">
<path d="M30.0011 0.960938C13.9011 0.960938 0.834473 14.0276 0.834473 30.1276C0.834473 46.2276 13.9011 59.2943 30.0011 59.2943C46.1011 59.2943 59.1678 46.2276 59.1678 30.1276C59.1678 14.0276 46.1011 0.960938 30.0011 0.960938ZM43.5345 20.7943C43.097 25.4026 41.2011 36.6026 40.2386 41.7651C39.8303 43.9526 39.0136 44.6818 38.2553 44.7693C36.5636 44.9151 35.2803 43.6609 33.647 42.5818C31.0803 40.8901 29.622 39.8401 27.1428 38.2068C24.2553 36.3109 26.122 35.2609 27.7845 33.5693C28.222 33.1318 35.6886 26.3359 35.8345 25.7234C35.8547 25.6307 35.852 25.5344 35.8266 25.4429C35.8012 25.3514 35.7538 25.2675 35.6886 25.1984C35.5136 25.0526 35.2803 25.1109 35.0761 25.1401C34.8136 25.1984 30.7303 27.9109 22.7678 33.2776C21.6011 34.0651 20.5511 34.4734 19.6178 34.4443C18.5678 34.4151 16.5845 33.8609 15.097 33.3651C13.2595 32.7818 11.8303 32.4609 11.947 31.4401C12.0053 30.9151 12.7345 30.3901 14.1053 29.8359C22.622 26.1318 28.2803 23.6818 31.1095 22.5151C39.2178 19.1318 40.8803 18.5484 41.9886 18.5484C42.222 18.5484 42.7761 18.6068 43.1261 18.8984C43.4178 19.1318 43.5053 19.4526 43.5345 19.6859C43.5053 19.8609 43.5636 20.3859 43.5345 20.7943Z" fill="#0D6327"/>
</svg>
