<svg width="48" height="48" viewBox="0 0 48 48" fill="none" xmlns="http://www.w3.org/2000/svg">
<path d="M6.58382 29.0977C6.58384 29.7278 6.67767 30.3576 6.9012 31.1064L6.96566 31.3193C7.91369 34.1478 10.524 36.0477 13.4588 36.0479H40.0741L38.4227 41.3584C37.955 43.1641 36.2866 44.3896 34.4608 44.3896C34.1045 44.3894 33.7499 44.3427 33.4051 44.252L5.05452 36.5762C2.86774 35.9661 1.56458 33.6773 2.13655 31.4697L6.58382 16.46V29.0977ZM41.4159 3.61133C43.9424 3.61133 45.9998 5.69085 45.9998 8.24512V28.6338C45.9998 31.1881 43.9424 33.2686 41.4159 33.2686H13.9149C11.3889 33.2684 9.33187 31.188 9.33187 28.6338V8.24512C9.33187 5.69095 11.3889 3.61151 13.9149 3.61133H41.4159ZM13.9149 7.31836C13.4092 7.31854 12.9989 7.73347 12.9989 8.24512V25.7402L18.0584 20.627C19.3107 19.3593 21.3514 19.3593 22.6053 20.627L24.8241 22.8643L31.6336 14.6006C32.2422 13.863 33.1334 13.437 34.0828 13.4316C35.0378 13.4537 35.9265 13.843 36.5409 14.5713L42.3328 21.4033V8.24512C42.3328 7.73336 41.9221 7.31836 41.4159 7.31836H13.9149ZM18.5008 9.17188C20.5231 9.17188 22.1678 10.8344 22.1678 12.8789C22.1677 14.9233 20.5231 16.5859 18.5008 16.5859C16.4788 16.5857 14.8349 14.9231 14.8348 12.8789C14.8348 10.8346 16.4787 9.17208 18.5008 9.17188Z" fill="#9896A5"/>
</svg>
