<svg width="56" height="56" viewBox="0 0 56 56" fill="none" xmlns="http://www.w3.org/2000/svg">
<path fill-rule="evenodd" clip-rule="evenodd" d="M28 0C12.5356 0 0 12.5356 0 28C0 33.292 1.47 38.248 4.0264 42.4704L1.5288 50.96C1.3854 51.4474 1.37596 51.9645 1.50148 52.4568C1.62701 52.9492 1.88285 53.3986 2.24213 53.7579C2.6014 54.1171 3.05083 54.373 3.54317 54.4985C4.03551 54.624 4.55257 54.6146 5.04 54.4712L13.5296 51.9736C17.8941 54.6138 22.8991 56.0065 28 56C43.4644 56 56 43.4644 56 28C56 12.5356 43.4644 0 28 0ZM21.6664 34.3364C27.3308 39.998 32.7376 40.7456 34.6472 40.8156C37.5508 40.922 40.3788 38.7044 41.4792 36.1312C41.6169 35.8108 41.6667 35.4595 41.6234 35.1135C41.5801 34.7675 41.4453 34.4393 41.2328 34.1628C39.6984 32.2028 37.6236 30.7944 35.5964 29.3944C35.1734 29.101 34.653 28.9832 34.1449 29.0657C33.6368 29.1483 33.1805 29.4247 32.872 29.8368L31.192 32.3988C31.1032 32.536 30.9656 32.6343 30.807 32.6738C30.6484 32.7133 30.4808 32.6911 30.338 32.6116C29.1984 31.9592 27.538 30.8504 26.3452 29.6576C25.1524 28.4648 24.1108 26.88 23.5256 25.8132C23.4548 25.6773 23.4348 25.5206 23.4692 25.3712C23.5036 25.2219 23.5901 25.0897 23.7132 24.9984L26.3004 23.0776C26.6707 22.7573 26.9097 22.3115 26.9718 21.8259C27.0338 21.3402 26.9143 20.8487 26.6364 20.4456C25.382 18.6088 23.9204 16.2736 21.8008 14.7252C21.5267 14.5282 21.2063 14.4054 20.8708 14.3686C20.5352 14.3318 20.1959 14.3823 19.8856 14.5152C17.3096 15.6184 15.0808 18.4464 15.1872 21.3556C15.2572 23.2652 16.0048 28.672 21.6664 34.3364Z" fill="#0D6327"/>
</svg>
