<svg width="1920" height="641" viewBox="0 0 1920 641" fill="none" xmlns="http://www.w3.org/2000/svg">
<g clip-path="url(#clip0_2084_7836)">
<rect width="2017.73" height="640" transform="translate(-76.3669 0.660156)" fill="white"/>
<path d="M39.2288 56.709H92.4739V0.660156H95.2766V56.709H148.523V0.660156H151.325V56.709H204.571V0.660156H207.373V56.709H260.618V0.660156H263.421V56.709H316.667V0.660156H319.47V56.709H372.715V0.660156H375.518V56.709H428.763V0.660156H431.566V56.709H484.812V0.660156H487.615V56.709H540.86V0.660156H543.662V56.709H596.907V0.660156H599.71V56.709H652.956V0.660156H655.759V56.709H709.004V0.660156H711.807V56.709H765.052V0.660156H767.855V56.709H821.1V0.660156H823.903V56.709H877.149V0.660156H879.951V56.709H933.197V0.660156H935.999V56.709H989.244V0.660156H992.047V56.709H1045.29V0.660156H1048.1V56.709H1101.34V0.660156H1104.14V56.709H1157.39V0.660156H1160.19V56.709H1213.44V0.660156H1216.24V56.709H1269.49V0.660156H1272.29V56.709H1325.53V0.660156H1328.34V56.709H1381.58V0.660156H1384.39V56.709H1437.63V0.660156H1440.43V56.709H1493.68V0.660156H1496.48V56.709H1549.73V0.660156H1552.53V56.709H1605.78V0.660156H1608.58V56.709H1661.82V0.660156H1664.63V56.709H1717.87V0.660156H1720.67V56.709H1773.92V0.660156H1776.72V56.709H1829.97V0.660156H1832.77V56.709H1886.02V0.660156H1888.82V56.709H1942.06V0.660156H1944.87V56.709H1998.81L1998.81 59.5117H1944.87V112.757H1998.81L1998.81 115.56H1944.87V168.806H1998.81L1998.81 171.608H1944.87V224.854H1998.81L1998.81 227.656H1944.87V280.901H1998.81L1998.81 283.704H1944.87V336.95H1998.81L1998.81 339.753H1944.87V392.998H1998.81L1998.81 395.801H1944.87V449.047H1998.81L1998.81 451.85H1944.87V505.095H1998.81L1998.81 507.897H1944.87V561.143H1998.81L1998.81 563.945H1944.87V617.191H1998.81L1998.81 619.994H1944.87V673.239H1998.81L1998.81 676.042H1944.87V729.287L1998.81 729.288L1998.81 732.091L1944.87 732.09V785.336H1998.81L1998.81 788.139H1944.87V841.384H1998.81L1998.81 844.187H1944.87V897.433H1998.81L1998.81 900.235H1944.87V953.48H1998.81L1998.81 956.283H1944.87V1009.53H1998.81L1998.81 1012.33H1944.87V1065.58H1998.81L1998.81 1068.38H1944.87V1121.62H1998.81L1998.81 1124.43H1944.87V1177.67H1998.81L1998.81 1180.48H1944.87V1233.72H1998.81L1998.81 1236.52H1944.87V1289.77H1998.81L1998.81 1292.57H1944.87V1345.82L1998.81 1345.82L1998.81 1348.62L1944.87 1348.62V1401.86H1942.06L1942.06 1348.62H1888.82V1401.86H1886.02V1348.62H1832.77V1401.86H1829.97L1829.97 1348.62H1776.72V1401.86H1773.92L1773.92 1348.62H1720.67V1401.86H1717.87V1348.62H1664.63V1401.86H1661.82V1348.62H1608.58V1401.86H1605.78V1348.62H1552.53V1401.86H1549.73V1348.62H1496.48V1401.86H1493.68V1348.62H1440.43V1401.86H1437.63V1348.62H1384.39V1401.86H1381.58L1381.58 1348.62H1328.34L1328.34 1401.86H1325.53V1348.62H1272.29V1401.86H1269.49V1348.62H1216.24V1401.86H1213.44V1348.62H1160.19V1401.86H1157.39V1348.62H1104.14V1401.86H1101.34V1348.62H1048.1V1401.86H1045.29V1348.62H992.047V1401.86H989.244V1348.62H935.998L935.999 1401.86H933.197V1348.62H879.951V1401.86H877.149V1348.62H823.903V1401.86H821.1V1348.62H767.855V1401.86H765.052V1348.62H711.807V1401.86H709.004L709.003 1348.62H655.759V1401.86H652.956V1348.62H599.71V1401.86H596.907V1348.62H543.662V1401.86H540.86V1348.62H487.614L487.615 1401.86H484.812V1348.62H431.565L431.566 1401.86H428.763V1348.62H375.518V1401.86H372.715L372.714 1348.62H319.47V1401.86H316.667V1348.62H263.421V1401.86H260.618V1348.62H207.373V1401.86H204.571L204.57 1348.62H151.325V1401.86H148.523V1348.62H95.2766V1401.86H92.4739L92.4729 1348.62H39.2288V1401.86H36.426V1348.62H-20.325V1345.82H36.426V1292.57H-20.325V1289.77H36.426V1236.52H-20.325V1233.72H36.426V1180.48H-20.325V1177.67H36.426V1124.43H-20.325V1121.62H36.426V1068.38H-20.325V1065.58H36.426V1012.33H-20.325V1009.53H36.426V956.283H-20.325V953.48H36.426V900.235H-20.325V897.433H36.426V844.187H-20.325V841.384H36.426V788.139H-20.325V785.336H36.426V732.09H-20.325V729.287H36.426V676.042H-20.325V673.239H36.426V619.994H-20.325V617.191H36.426V563.945H-20.325V561.143H36.426V507.897H-20.325V505.095H36.426V451.85H-20.325V449.047H36.426V395.801H-20.325V392.998H36.426V339.753H-20.325V336.95H36.426V283.704H-20.325V280.901H36.426V227.656H-20.325V224.854H36.426V171.608H-20.325V168.806H36.426V115.56H-20.325V112.757H36.426V59.5117H-20.325V56.709H36.426V0.660156H39.2288V56.709ZM1888.82 1345.82H1942.06V1292.57H1888.82V1345.82ZM1832.77 1345.82H1886.02V1292.57H1832.77V1345.82ZM1776.72 1345.82H1829.97V1292.57H1776.72V1345.82ZM1720.67 1345.82H1773.92V1292.57H1720.67V1345.82ZM1664.63 1345.82H1717.87L1717.87 1292.57H1664.63V1345.82ZM1608.58 1345.82H1661.82L1661.82 1292.57H1608.58V1345.82ZM1552.53 1345.82H1605.78V1292.57H1552.53V1345.82ZM1496.48 1345.82H1549.73V1292.57H1496.48V1345.82ZM1440.43 1345.82H1493.68V1292.57H1440.43L1440.43 1345.82ZM1384.39 1345.82H1437.63V1292.57H1384.39V1345.82ZM1328.34 1345.82H1381.58V1292.57H1328.34V1345.82ZM1272.29 1345.82H1325.53V1292.57H1272.29V1345.82ZM1216.24 1345.82H1269.49V1292.57H1216.24V1345.82ZM1160.19 1345.82H1213.44V1292.57H1160.19V1345.82ZM1104.14 1345.82H1157.39V1292.57H1104.14V1345.82ZM1048.1 1345.82H1101.34V1292.57H1048.1V1345.82ZM992.047 1345.82H1045.29V1292.57H992.047V1345.82ZM935.998 1345.82H989.244V1292.57H935.998V1345.82ZM879.951 1345.82H933.197V1292.57H879.951V1345.82ZM823.903 1345.82H877.148L877.149 1292.57H823.903V1345.82ZM767.855 1345.82H821.1V1292.57H767.855V1345.82ZM711.807 1345.82H765.052V1292.57H711.807V1345.82ZM655.759 1345.82H709.004V1292.57H655.759V1345.82ZM599.71 1345.82H652.956V1292.57H599.71V1345.82ZM543.662 1345.82H596.907V1292.57H543.662V1345.82ZM487.614 1345.82H540.86V1292.57H487.614V1345.82ZM431.565 1345.82H484.812V1292.57H431.565V1345.82ZM375.518 1345.82H428.763V1292.57H375.518V1345.82ZM319.47 1345.82H372.714V1292.57H319.47V1345.82ZM263.421 1345.82H316.667V1292.57H263.421V1345.82ZM207.373 1345.82H260.618V1292.57H207.373V1345.82ZM151.324 1345.82H204.57V1292.57H151.325L151.324 1345.82ZM95.2766 1345.82H148.523V1292.57H95.2766V1345.82ZM39.2288 1345.82H92.4729V1292.57H39.2288V1345.82ZM39.2288 1289.77H92.4729V1236.52H39.2288V1289.77ZM95.2766 1289.77H148.523V1236.52H95.2766V1289.77ZM151.325 1289.77H204.57V1236.52H151.325V1289.77ZM207.373 1289.77H260.618V1236.52H207.373V1289.77ZM263.421 1289.77H316.667V1236.52H263.421V1289.77ZM319.47 1289.77H372.714V1236.52H319.47V1289.77ZM375.518 1289.77H428.763V1236.52H375.518V1289.77ZM431.565 1289.77H484.812V1236.52H431.565V1289.77ZM487.614 1289.77H540.86V1236.52H487.614V1289.77ZM543.662 1289.77H596.907V1236.52H543.662V1289.77ZM599.71 1289.77H652.956V1236.52H599.71V1289.77ZM655.759 1289.77H709.004V1236.52H655.759V1289.77ZM711.807 1289.77H765.052V1236.52H711.807V1289.77ZM767.855 1289.77H821.1V1236.52H767.855V1289.77ZM823.903 1289.77H877.149V1236.52H823.903V1289.77ZM879.951 1289.77H933.197V1236.52H879.951V1289.77ZM935.998 1289.77H989.244V1236.52H935.998V1289.77ZM992.047 1289.77H1045.29V1236.52H992.047V1289.77ZM1048.1 1289.77H1101.34V1236.52H1048.1V1289.77ZM1104.14 1289.77H1157.39V1236.52H1104.14V1289.77ZM1160.19 1289.77H1213.44V1236.52H1160.19V1289.77ZM1216.24 1289.77H1269.49V1236.52H1216.24V1289.77ZM1272.29 1289.77H1325.53V1236.52H1272.29V1289.77ZM1328.34 1289.77H1381.58V1236.52H1328.34V1289.77ZM1384.39 1289.77H1437.63V1236.52H1384.39V1289.77ZM1440.43 1289.77H1493.68V1236.52H1440.43V1289.77ZM1496.48 1289.77H1549.73V1236.52H1496.48V1289.77ZM1552.53 1289.77H1605.78V1236.52H1552.53V1289.77ZM1608.58 1289.77H1661.82V1236.52H1608.58V1289.77ZM1664.63 1289.77H1717.87V1236.52H1664.63V1289.77ZM1720.67 1289.77H1773.92V1236.52H1720.67V1289.77ZM1776.72 1289.77H1829.97V1236.52H1776.72V1289.77ZM1832.77 1289.77H1886.02V1236.52H1832.77V1289.77ZM1888.82 1289.77H1942.06V1236.52H1888.82V1289.77ZM39.2288 1233.72H92.4729V1180.48H39.2288V1233.72ZM95.2766 1233.72H148.523V1180.48H95.2766V1233.72ZM151.325 1233.72H204.57V1180.48H151.325V1233.72ZM207.373 1233.72H260.618V1180.48H207.373V1233.72ZM263.421 1233.72H316.667V1180.48H263.421V1233.72ZM319.47 1233.72H372.714V1180.48H319.47V1233.72ZM375.518 1233.72H428.763V1180.48H375.518V1233.72ZM431.565 1233.72H484.812V1180.48H431.565V1233.72ZM487.614 1233.72H540.86V1180.48H487.614V1233.72ZM543.662 1233.72H596.907V1180.48H543.662V1233.72ZM599.71 1233.72H652.956V1180.48H599.71V1233.72ZM655.759 1233.72H709.004V1180.48H655.759V1233.72ZM711.807 1233.72H765.052V1180.48H711.807V1233.72ZM767.855 1233.72H821.1V1180.48H767.855V1233.72ZM823.903 1233.72H877.149V1180.48H823.903V1233.72ZM879.951 1233.72H933.197V1180.48H879.951V1233.72ZM935.998 1233.72H989.244V1180.48H935.998V1233.72ZM992.047 1233.72H1045.29V1180.48H992.047V1233.72ZM1048.1 1233.72H1101.34V1180.48H1048.1V1233.72ZM1104.14 1233.72H1157.39V1180.48H1104.14V1233.72ZM1160.19 1233.72H1213.44V1180.48H1160.19V1233.72ZM1216.24 1233.72H1269.49V1180.48H1216.24V1233.72ZM1272.29 1233.72H1325.53V1180.48H1272.29V1233.72ZM1328.34 1233.72H1381.58V1180.48H1328.34V1233.72ZM1384.39 1233.72H1437.63V1180.48H1384.39V1233.72ZM1440.43 1233.72H1493.68V1180.48H1440.43V1233.72ZM1496.48 1233.72H1549.73V1180.48H1496.48V1233.72ZM1552.53 1233.72H1605.78V1180.48H1552.53V1233.72ZM1608.58 1233.72H1661.82V1180.48H1608.58V1233.72ZM1664.63 1233.72H1717.87V1180.48H1664.63V1233.72ZM1720.67 1233.72H1773.92V1180.48H1720.67V1233.72ZM1776.72 1233.72H1829.97V1180.48H1776.72V1233.72ZM1832.77 1233.72H1886.02V1180.48H1832.77V1233.72ZM1888.82 1233.72H1942.06V1180.48H1888.82V1233.72ZM39.2288 1177.67H92.4729V1124.43H39.2288V1177.67ZM95.2766 1177.67H148.523V1124.43H95.2766V1177.67ZM151.325 1177.67H204.57V1124.43H151.325V1177.67ZM207.373 1177.67H260.618V1124.43H207.373V1177.67ZM263.421 1177.67H316.667V1124.43H263.421V1177.67ZM319.47 1177.67H372.714V1124.43H319.47V1177.67ZM375.518 1177.67H428.763V1124.43H375.518V1177.67ZM431.565 1177.67H484.812V1124.43H431.565V1177.67ZM487.614 1177.67H540.86V1124.43H487.614V1177.67ZM543.662 1177.67H596.907V1124.43H543.662V1177.67ZM599.71 1177.67H652.956V1124.43H599.71V1177.67ZM655.759 1177.67H709.004V1124.43H655.759V1177.67ZM711.807 1177.67H765.052V1124.43H711.807V1177.67ZM767.855 1177.67H821.1V1124.43H767.855V1177.67ZM823.903 1177.67H877.149V1124.43H823.903V1177.67ZM879.951 1177.67H933.197V1124.43H879.951V1177.67ZM935.998 1177.67H989.244V1124.43H935.998V1177.67ZM992.047 1177.67H1045.29V1124.43H992.047V1177.67ZM1048.1 1177.67H1101.34V1124.43H1048.1V1177.67ZM1104.14 1177.67H1157.39V1124.43H1104.14V1177.67ZM1160.19 1177.67H1213.44V1124.43H1160.19V1177.67ZM1216.24 1177.67H1269.49V1124.43H1216.24V1177.67ZM1272.29 1177.67H1325.53V1124.43H1272.29V1177.67ZM1328.34 1177.67H1381.58V1124.43H1328.34V1177.67ZM1384.39 1177.67H1437.63V1124.43H1384.39V1177.67ZM1440.43 1177.67H1493.68V1124.43H1440.43V1177.67ZM1496.48 1177.67H1549.73V1124.43H1496.48V1177.67ZM1552.53 1177.67H1605.78V1124.43H1552.53V1177.67ZM1608.58 1177.67H1661.82V1124.43H1608.58V1177.67ZM1664.63 1177.67H1717.87V1124.43H1664.63V1177.67ZM1720.67 1177.67H1773.92V1124.43H1720.67V1177.67ZM1776.72 1177.67H1829.97V1124.43H1776.72V1177.67ZM1832.77 1177.67H1886.02V1124.43H1832.77V1177.67ZM1888.82 1177.67H1942.06V1124.43H1888.82V1177.67ZM39.2288 1121.62H92.4729V1068.38H39.2288V1121.62ZM95.2766 1121.62H148.523V1068.38H95.2766V1121.62ZM151.325 1121.62H204.57V1068.38H151.325V1121.62ZM207.373 1121.62H260.618V1068.38H207.373V1121.62ZM263.421 1121.62H316.667V1068.38H263.421V1121.62ZM319.47 1121.62H372.714V1068.38H319.47V1121.62ZM375.518 1121.62H428.763V1068.38H375.518V1121.62ZM431.565 1121.62H484.812V1068.38H431.565V1121.62ZM487.614 1121.62H540.86V1068.38H487.614V1121.62ZM543.662 1121.62H596.907V1068.38H543.662V1121.62ZM599.71 1121.62H652.956V1068.38H599.71V1121.62ZM655.759 1121.62H709.004V1068.38H655.759V1121.62ZM711.807 1121.62H765.052V1068.38H711.807V1121.62ZM767.855 1121.62H821.1V1068.38H767.855V1121.62ZM823.903 1121.62H877.149V1068.38H823.903V1121.62ZM879.951 1121.62H933.197V1068.38H879.951V1121.62ZM935.998 1121.62H989.244V1068.38H935.998V1121.62ZM992.047 1121.62H1045.29V1068.38H992.047V1121.62ZM1048.1 1121.62H1101.34V1068.38H1048.1V1121.62ZM1104.14 1121.62H1157.39V1068.38H1104.14V1121.62ZM1160.19 1121.62H1213.44V1068.38H1160.19V1121.62ZM1216.24 1121.62H1269.49V1068.38H1216.24V1121.62ZM1272.29 1121.62H1325.53V1068.38H1272.29V1121.62ZM1328.34 1121.62H1381.58V1068.38H1328.34V1121.62ZM1384.39 1121.62H1437.63V1068.38H1384.39V1121.62ZM1440.43 1121.62H1493.68V1068.38H1440.43V1121.62ZM1496.48 1121.62H1549.73V1068.38H1496.48V1121.62ZM1552.53 1121.62H1605.78V1068.38H1552.53V1121.62ZM1608.58 1121.62H1661.82V1068.38H1608.58V1121.62ZM1664.63 1121.62H1717.87V1068.38H1664.63V1121.62ZM1720.67 1121.62H1773.92V1068.38H1720.67V1121.62ZM1776.72 1121.62H1829.97V1068.38H1776.72V1121.62ZM1832.77 1121.62H1886.02V1068.38H1832.77V1121.62ZM1888.82 1121.62H1942.06V1068.38H1888.82V1121.62ZM39.2288 1065.58H92.4729V1012.33H39.2288V1065.58ZM95.2766 1065.58H148.523V1012.33H95.2766V1065.58ZM151.325 1065.58H204.57V1012.33H151.325V1065.58ZM207.373 1065.58H260.618V1012.33H207.373V1065.58ZM263.421 1065.58H316.667V1012.33H263.421V1065.58ZM319.47 1065.58H372.714V1012.33H319.47V1065.58ZM375.518 1065.58H428.763V1012.33H375.518V1065.58ZM431.565 1065.58H484.812V1012.33H431.565V1065.58ZM487.614 1065.58H540.86V1012.33H487.614V1065.58ZM543.662 1065.58H596.907V1012.33H543.662V1065.58ZM599.71 1065.58H652.956V1012.33H599.71V1065.58ZM655.759 1065.58H709.004V1012.33H655.759V1065.58ZM711.807 1065.58H765.052V1012.33H711.807V1065.58ZM767.855 1065.58H821.1V1012.33H767.855V1065.58ZM823.903 1065.58H877.149V1012.33H823.903V1065.58ZM879.951 1065.58H933.197V1012.33H879.951V1065.58ZM935.998 1065.58H989.244V1012.33H935.998V1065.58ZM992.047 1065.58H1045.29V1012.33H992.047V1065.58ZM1048.1 1065.58H1101.34V1012.33H1048.1V1065.58ZM1104.14 1065.58H1157.39V1012.33H1104.14V1065.58ZM1160.19 1065.58H1213.44V1012.33H1160.19V1065.58ZM1216.24 1065.58H1269.49V1012.33H1216.24V1065.58ZM1272.29 1065.58H1325.53V1012.33H1272.29V1065.58ZM1328.34 1065.58H1381.58V1012.33H1328.34V1065.58ZM1384.39 1065.58H1437.63V1012.33H1384.39V1065.58ZM1440.43 1065.58H1493.68V1012.33H1440.43V1065.58ZM1496.48 1065.58H1549.73V1012.33H1496.48V1065.58ZM1552.53 1065.58H1605.78V1012.33H1552.53V1065.58ZM1608.58 1065.58H1661.82V1012.33H1608.58V1065.58ZM1664.63 1065.58H1717.87V1012.33H1664.63V1065.58ZM1720.67 1065.58H1773.92V1012.33H1720.67V1065.58ZM1776.72 1065.58H1829.97V1012.33H1776.72V1065.58ZM1832.77 1065.58H1886.02V1012.33H1832.77V1065.58ZM1888.82 1065.58H1942.06V1012.33H1888.82V1065.58ZM39.2288 1009.53H92.4729V956.283H39.2288V1009.53ZM95.2766 1009.53H148.523V956.283H95.2766V1009.53ZM151.325 1009.53H204.57V956.283H151.325V1009.53ZM207.373 1009.53H260.618V956.283H207.373V1009.53ZM263.421 1009.53H316.667V956.283H263.421V1009.53ZM319.47 1009.53H372.714V956.283H319.47V1009.53ZM375.518 1009.53H428.763V956.283H375.518V1009.53ZM431.565 1009.53H484.812V956.283H431.565V1009.53ZM487.614 1009.53H540.86V956.283H487.614V1009.53ZM543.662 1009.53H596.907V956.283H543.662V1009.53ZM599.71 1009.53H652.956V956.283H599.71V1009.53ZM655.759 1009.53H709.004V956.283H655.759V1009.53ZM711.807 1009.53H765.052V956.283H711.807V1009.53ZM767.855 1009.53H821.1V956.283H767.855V1009.53ZM823.903 1009.53H877.149V956.283H823.903V1009.53ZM879.951 1009.53H933.197V956.283H879.951V1009.53ZM935.998 1009.53H989.244V956.283H935.998V1009.53ZM992.047 1009.53H1045.29V956.283H992.047V1009.53ZM1048.1 1009.53H1101.34V956.283H1048.1V1009.53ZM1104.14 1009.53H1157.39V956.283H1104.14V1009.53ZM1160.19 1009.53H1213.44V956.283H1160.19V1009.53ZM1216.24 1009.53H1269.49V956.283H1216.24V1009.53ZM1272.29 1009.53H1325.53V956.283H1272.29V1009.53ZM1328.34 1009.53H1381.58V956.283H1328.34V1009.53ZM1384.39 1009.53H1437.63V956.283H1384.39V1009.53ZM1440.43 1009.53H1493.68V956.283H1440.43V1009.53ZM1496.48 1009.53H1549.73V956.283H1496.48V1009.53ZM1552.53 1009.53H1605.78V956.283H1552.53V1009.53ZM1608.58 1009.53H1661.82V956.283H1608.58V1009.53ZM1664.63 1009.53H1717.87V956.283H1664.63V1009.53ZM1720.67 1009.53H1773.92V956.283H1720.67V1009.53ZM1776.72 1009.53H1829.97V956.283H1776.72V1009.53ZM1832.77 1009.53H1886.02V956.283H1832.77V1009.53ZM1888.82 1009.53H1942.06V956.283H1888.82V1009.53ZM39.2288 953.48H92.4729V900.235H39.2288V953.48ZM95.2766 953.48H148.523V900.235H95.2766V953.48ZM151.325 953.48H204.57V900.235H151.325V953.48ZM207.373 953.48H260.618V900.235H207.373V953.48ZM263.421 953.48H316.667V900.235H263.421V953.48ZM319.47 953.48H372.714V900.235H319.47V953.48ZM375.518 953.48H428.763V900.235H375.518V953.48ZM431.565 953.48H484.812V900.235H431.565V953.48ZM487.614 953.48H540.86V900.235H487.614V953.48ZM543.662 953.48H596.907V900.235H543.662V953.48ZM599.71 953.48H652.956V900.235H599.71V953.48ZM655.759 953.48H709.004V900.235H655.759V953.48ZM711.807 953.48H765.052V900.235H711.807V953.48ZM767.855 953.48H821.1V900.235H767.855V953.48ZM823.903 953.48H877.149V900.235H823.903V953.48ZM879.951 953.48H933.197V900.235H879.951V953.48ZM935.998 953.48H989.244V900.235H935.998V953.48ZM992.047 953.48H1045.29V900.235H992.047V953.48ZM1048.1 953.48H1101.34V900.235H1048.1V953.48ZM1104.14 953.48H1157.39V900.235H1104.14V953.48ZM1160.19 953.48H1213.44V900.235H1160.19V953.48ZM1216.24 953.48H1269.49V900.235H1216.24V953.48ZM1272.29 953.48H1325.53V900.235H1272.29V953.48ZM1328.34 953.48H1381.58V900.235H1328.34V953.48ZM1384.39 953.48H1437.63V900.235H1384.39V953.48ZM1440.43 953.48H1493.68V900.235H1440.43V953.48ZM1496.48 953.48H1549.73V900.235H1496.48V953.48ZM1552.53 953.48H1605.78V900.235H1552.53V953.48ZM1608.58 953.48H1661.82V900.235H1608.58V953.48ZM1664.63 953.48H1717.87V900.235H1664.63V953.48ZM1720.67 953.48H1773.92V900.235H1720.67V953.48ZM1776.72 953.48H1829.97V900.235H1776.72V953.48ZM1832.77 953.48H1886.02V900.235H1832.77V953.48ZM1888.82 953.48H1942.06V900.235H1888.82V953.48ZM39.2288 897.433H92.4729V844.187H39.2288V897.433ZM95.2766 897.433H148.523V844.187H95.2766V897.433ZM151.325 897.433H204.57V844.187H151.325V897.433ZM207.373 897.433H260.618V844.187H207.373V897.433ZM263.421 897.433H316.667V844.187H263.421V897.433ZM319.47 897.433H372.714V844.187H319.47V897.433ZM375.518 897.433H428.763V844.187H375.518V897.433ZM431.565 897.433H484.812V844.187H431.565V897.433ZM487.614 897.433H540.86V844.187H487.614V897.433ZM543.662 897.433H596.907V844.187H543.662V897.433ZM599.71 897.433H652.956V844.187H599.71V897.433ZM655.759 897.433H709.004V844.187H655.759V897.433ZM711.807 897.433H765.052V844.187H711.807V897.433ZM767.855 897.433H821.1V844.187H767.855V897.433ZM823.903 897.433H877.149V844.187H823.903V897.433ZM879.951 897.433H933.197V844.187H879.951V897.433ZM935.998 897.433H989.244V844.187H935.998V897.433ZM992.047 897.433H1045.29V844.187H992.047V897.433ZM1048.1 897.433H1101.34V844.187H1048.1V897.433ZM1104.14 897.433H1157.39V844.187H1104.14V897.433ZM1160.19 897.433H1213.44V844.187H1160.19V897.433ZM1216.24 897.433H1269.49V844.187H1216.24V897.433ZM1272.29 897.433H1325.53V844.187H1272.29V897.433ZM1328.34 897.433H1381.58V844.187H1328.34V897.433ZM1384.39 897.433H1437.63V844.187H1384.39V897.433ZM1440.43 897.433H1493.68V844.187H1440.43V897.433ZM1496.48 897.433H1549.73V844.187H1496.48V897.433ZM1552.53 897.433H1605.78V844.187H1552.53V897.433ZM1608.58 897.433H1661.82V844.187H1608.58V897.433ZM1664.63 897.433H1717.87V844.187H1664.63V897.433ZM1720.67 897.433H1773.92V844.187H1720.67V897.433ZM1776.72 897.433H1829.97V844.187H1776.72V897.433ZM1832.77 897.433H1886.02V844.187H1832.77V897.433ZM1888.82 897.433H1942.06V844.187H1888.82V897.433ZM39.2288 841.384H92.4729V788.139H39.2288V841.384ZM95.2766 841.384H148.523V788.139H95.2766V841.384ZM151.325 841.384H204.57V788.139H151.325V841.384ZM207.373 841.384H260.618V788.139H207.373V841.384ZM263.421 841.384H316.667V788.139H263.421V841.384ZM319.47 841.384H372.714V788.139H319.47V841.384ZM375.518 841.384H428.763V788.139H375.518V841.384ZM431.565 841.384H484.812V788.139H431.565V841.384ZM487.614 841.384H540.86V788.139H487.614V841.384ZM543.662 841.384H596.907V788.139H543.662V841.384ZM599.71 841.384H652.956V788.139H599.71V841.384ZM655.759 841.384H709.004V788.139H655.759V841.384ZM711.807 841.384H765.052V788.139H711.807V841.384ZM767.855 841.384H821.1V788.139H767.855V841.384ZM823.903 841.384H877.149V788.139H823.903V841.384ZM879.951 841.384H933.197V788.139H879.951V841.384ZM935.998 841.384H989.244V788.139H935.998V841.384ZM992.047 841.384H1045.29V788.139H992.047V841.384ZM1048.1 841.384H1101.34V788.139H1048.1V841.384ZM1104.14 841.384H1157.39V788.139H1104.14V841.384ZM1160.19 841.384H1213.44V788.139H1160.19V841.384ZM1216.24 841.384H1269.49V788.139H1216.24V841.384ZM1272.29 841.384H1325.53V788.139H1272.29V841.384ZM1328.34 841.384H1381.58V788.139H1328.34V841.384ZM1384.39 841.384H1437.63V788.139H1384.39V841.384ZM1440.43 841.384H1493.68V788.139H1440.43V841.384ZM1496.48 841.384H1549.73V788.139H1496.48V841.384ZM1552.53 841.384H1605.78V788.139H1552.53V841.384ZM1608.58 841.384H1661.82V788.139H1608.58V841.384ZM1664.63 841.384H1717.87V788.139H1664.63V841.384ZM1720.67 841.384H1773.92V788.139H1720.67V841.384ZM1776.72 841.384H1829.97V788.139H1776.72V841.384ZM1832.77 841.384H1886.02V788.139H1832.77V841.384ZM1888.82 841.384H1942.06V788.139H1888.82V841.384ZM39.2288 785.336H92.4729V732.09H39.2288V785.336ZM95.2766 785.336H148.523V732.09H95.2766V785.336ZM151.325 785.336H204.57V732.09H151.325V785.336ZM207.373 785.336H260.618V732.09H207.373V785.336ZM263.421 785.336H316.667V732.09H263.421V785.336ZM319.47 785.336H372.714V732.09H319.47V785.336ZM375.518 785.336H428.763V732.09H375.518V785.336ZM431.565 785.336H484.812V732.09H431.565V785.336ZM487.614 785.336H540.86V732.09H487.614V785.336ZM543.662 785.336H596.907V732.09H543.662V785.336ZM599.71 785.336H652.956V732.09H599.71V785.336ZM655.759 785.336H709.004V732.09H655.759V785.336ZM711.807 785.336H765.052V732.09H711.807V785.336ZM767.855 785.336H821.1V732.09H767.855V785.336ZM823.903 785.336H877.149V732.09H823.903V785.336ZM879.951 785.336H933.197V732.09H879.951V785.336ZM935.998 785.336H989.244V732.09H935.998V785.336ZM992.047 785.336H1045.29V732.09H992.047V785.336ZM1048.1 785.336H1101.34V732.09H1048.1V785.336ZM1104.14 785.336H1157.39V732.09H1104.14V785.336ZM1160.19 785.336H1213.44V732.09H1160.19V785.336ZM1216.24 785.336H1269.49V732.09H1216.24V785.336ZM1272.29 785.336H1325.53V732.09H1272.29V785.336ZM1328.34 785.336H1381.58V732.09H1328.34V785.336ZM1384.39 785.336H1437.63V732.09H1384.39V785.336ZM1440.43 785.336H1493.68V732.09H1440.43V785.336ZM1496.48 785.336H1549.73V732.09H1496.48V785.336ZM1552.53 785.336H1605.78V732.09H1552.53V785.336ZM1608.58 785.336H1661.82V732.09H1608.58V785.336ZM1664.63 785.336H1717.87V732.09H1664.63V785.336ZM1720.67 785.336H1773.92V732.09H1720.67V785.336ZM1776.72 785.336H1829.97V732.09H1776.72V785.336ZM1832.77 785.336H1886.02V732.09H1832.77V785.336ZM1888.82 785.336H1942.06V732.09H1888.82V785.336ZM39.2288 729.287H92.4739V676.042H39.2288V729.287ZM95.2766 729.287H148.523V676.042H95.2766V729.287ZM151.325 729.287H204.571V676.042H151.325V729.287ZM207.373 729.287H260.618V676.042H207.373V729.287ZM263.421 729.287H316.667V676.042H263.421V729.287ZM319.47 729.287H372.715V676.042H319.47V729.287ZM375.518 729.287H428.762L428.763 676.042H375.518V729.287ZM431.566 729.287H484.812V676.042H431.566V729.287ZM487.615 729.287H540.86V676.042H487.615V729.287ZM543.662 729.287H596.907V676.042H543.662V729.287ZM599.71 729.287H652.956V676.042H599.71V729.287ZM655.759 729.287H709.004V676.042H655.759V729.287ZM711.807 729.287H765.051L765.052 676.042H711.807V729.287ZM767.855 729.287H821.099L821.1 676.042H767.855V729.287ZM823.903 729.287H877.149V676.042H823.903V729.287ZM879.951 729.287H933.197V676.042H879.951V729.287ZM935.999 729.287H989.244V676.042H935.999V729.287ZM992.047 729.287H1045.29V676.042H992.047V729.287ZM1048.1 729.287H1101.34V676.042H1048.1V729.287ZM1104.14 729.287H1157.39V676.042H1104.14V729.287ZM1160.19 729.287H1213.44V676.042H1160.19V729.287ZM1216.24 729.287H1269.49V676.042H1216.24V729.287ZM1272.29 729.287H1325.53V676.042H1272.29V729.287ZM1328.34 729.287H1381.58V676.042H1328.34V729.287ZM1384.39 729.287H1437.63V676.042H1384.39V729.287ZM1440.43 729.287H1493.68V676.042H1440.43V729.287ZM1496.48 729.287H1549.73V676.042H1496.48L1496.48 729.287ZM1552.53 729.287H1605.78V676.042H1552.53V729.287ZM1608.58 729.287H1661.82L1661.82 676.042H1608.58V729.287ZM1664.63 729.287H1717.87V676.042H1664.63V729.287ZM1720.67 729.287H1773.92V676.042H1720.67V729.287ZM1776.72 729.287H1829.97V676.042H1776.72V729.287ZM1832.77 729.287H1886.02V676.042H1832.77V729.287ZM1888.82 729.287H1942.06V676.042H1888.82V729.287ZM39.2288 673.239H92.4739V619.994H39.2288V673.239ZM95.2766 673.239H148.523V619.994H95.2766V673.239ZM151.325 673.239H204.571V619.994H151.325V673.239ZM207.373 673.239H260.618V619.994H207.373V673.239ZM263.421 673.239H316.667V619.994H263.421V673.239ZM319.47 673.239H372.715V619.994H319.47V673.239ZM375.518 673.239H428.763V619.994H375.518V673.239ZM431.566 673.239H484.812V619.994H431.566V673.239ZM487.615 673.239H540.86V619.994H487.615V673.239ZM543.662 673.239H596.907V619.994H543.662V673.239ZM599.71 673.239H652.956V619.994H599.71V673.239ZM655.759 673.239H709.004V619.994H655.759V673.239ZM711.807 673.239H765.052V619.994H711.807V673.239ZM767.855 673.239H821.1V619.994H767.855V673.239ZM823.903 673.239H877.149V619.994H823.903V673.239ZM879.951 673.239H933.197V619.994H879.951V673.239ZM935.999 673.239H989.244V619.994H935.999V673.239ZM992.047 673.239H1045.29V619.994H992.047V673.239ZM1048.1 673.239H1101.34V619.994H1048.1V673.239ZM1104.14 673.239H1157.39V619.994H1104.14V673.239ZM1160.19 673.239H1213.44V619.994H1160.19V673.239ZM1216.24 673.239H1269.49V619.994H1216.24V673.239ZM1272.29 673.239H1325.53V619.994H1272.29V673.239ZM1328.34 673.239H1381.58V619.994H1328.34V673.239ZM1384.39 673.239H1437.63V619.994H1384.39V673.239ZM1440.43 673.239H1493.68V619.994H1440.43V673.239ZM1496.48 673.239H1549.73V619.994H1496.48V673.239ZM1552.53 673.239H1605.78V619.994H1552.53V673.239ZM1608.58 673.239H1661.82V619.994H1608.58V673.239ZM1664.63 673.239H1717.87V619.994H1664.63V673.239ZM1720.67 673.239H1773.92V619.994H1720.67V673.239ZM1776.72 673.239H1829.97V619.994H1776.72V673.239ZM1832.77 673.239H1886.02V619.994H1832.77V673.239ZM1888.82 673.239H1942.06V619.994H1888.82V673.239ZM39.2288 617.191H92.4739V563.945H39.2288V617.191ZM95.2766 617.191H148.523V563.945H95.2766V617.191ZM151.325 617.191H204.571V563.945H151.325V617.191ZM207.373 617.191H260.618V563.945H207.373V617.191ZM263.421 617.191H316.667V563.945H263.421V617.191ZM319.47 617.191H372.715V563.945H319.47V617.191ZM375.518 617.191H428.763V563.945H375.518V617.191ZM431.566 617.191H484.812V563.945H431.566V617.191ZM487.615 617.191H540.86V563.945H487.615V617.191ZM543.662 617.191H596.907V563.945H543.662V617.191ZM599.71 617.191H652.956V563.945H599.71V617.191ZM655.759 617.191H709.004V563.945H655.759V617.191ZM711.807 617.191H765.052V563.945H711.807V617.191ZM767.855 617.191H821.1V563.945H767.855V617.191ZM823.903 617.191H877.149V563.945H823.903V617.191ZM879.951 617.191H933.197V563.945H879.951V617.191ZM935.999 617.191H989.244V563.945H935.999V617.191ZM992.047 617.191H1045.29V563.945H992.047V617.191ZM1048.1 617.191H1101.34V563.945H1048.1V617.191ZM1104.14 617.191H1157.39V563.945H1104.14V617.191ZM1160.19 617.191H1213.44V563.945H1160.19V617.191ZM1216.24 617.191H1269.49V563.945H1216.24V617.191ZM1272.29 617.191H1325.53V563.945H1272.29V617.191ZM1328.34 617.191H1381.58V563.945H1328.34V617.191ZM1384.39 617.191H1437.63V563.945H1384.39V617.191ZM1440.43 617.191H1493.68V563.945H1440.43V617.191ZM1496.48 617.191H1549.73V563.945H1496.48V617.191ZM1552.53 617.191H1605.78V563.945H1552.53V617.191ZM1608.58 617.191H1661.82V563.945H1608.58V617.191ZM1664.63 617.191H1717.87V563.945H1664.63V617.191ZM1720.67 617.191H1773.92V563.945H1720.67V617.191ZM1776.72 617.191H1829.97V563.945H1776.72V617.191ZM1832.77 617.191H1886.02V563.945H1832.77V617.191ZM1888.82 617.191H1942.06V563.945H1888.82V617.191ZM39.2288 561.143H92.4739V507.897H39.2288V561.143ZM95.2766 561.143H148.523V507.897H95.2766V561.143ZM151.325 561.143H204.571V507.897H151.325V561.143ZM207.373 561.143H260.618V507.897H207.373V561.143ZM263.421 561.143H316.667V507.897H263.421V561.143ZM319.47 561.143H372.715V507.897H319.47V561.143ZM375.518 561.143H428.763V507.897H375.518V561.143ZM431.566 561.143H484.812V507.897H431.566V561.143ZM487.615 561.143H540.86V507.897H487.615V561.143ZM543.662 561.143H596.907V507.897H543.662V561.143ZM599.71 561.143H652.956V507.897H599.71V561.143ZM655.759 561.143H709.004V507.897H655.759V561.143ZM711.807 561.143H765.052V507.897H711.807V561.143ZM767.855 561.143H821.1V507.897H767.855V561.143ZM823.903 561.143H877.149V507.897H823.903V561.143ZM879.951 561.143H933.197V507.897H879.951V561.143ZM935.999 561.143H989.244V507.897H935.999V561.143ZM992.047 561.143H1045.29V507.897H992.047V561.143ZM1048.1 561.143H1101.34V507.897H1048.1V561.143ZM1104.14 561.143H1157.39V507.897H1104.14V561.143ZM1160.19 561.143H1213.44V507.897H1160.19V561.143ZM1216.24 561.143H1269.49V507.897H1216.24V561.143ZM1272.29 561.143H1325.53V507.897H1272.29V561.143ZM1328.34 561.143H1381.58V507.897H1328.34V561.143ZM1384.39 561.143H1437.63V507.897H1384.39V561.143ZM1440.43 561.143H1493.68V507.897H1440.43V561.143ZM1496.48 561.143H1549.73V507.897H1496.48V561.143ZM1552.53 561.143H1605.78V507.897H1552.53V561.143ZM1608.58 561.143H1661.82V507.897H1608.58V561.143ZM1664.63 561.143H1717.87V507.897H1664.63V561.143ZM1720.67 561.143H1773.92V507.897H1720.67V561.143ZM1776.72 561.143H1829.97V507.897H1776.72V561.143ZM1832.77 561.143H1886.02V507.897H1832.77V561.143ZM1888.82 561.143H1942.06V507.897H1888.82V561.143ZM39.2288 505.095H92.4739V451.85H39.2288V505.095ZM95.2766 505.095H148.523V451.85H95.2766V505.095ZM151.325 505.095H204.571V451.85H151.325V505.095ZM207.373 505.095H260.618V451.85H207.373V505.095ZM263.421 505.095H316.667V451.85H263.421V505.095ZM319.47 505.095H372.715V451.85H319.47V505.095ZM375.518 505.095H428.763V451.85H375.518V505.095ZM431.566 505.095H484.812V451.85H431.566V505.095ZM487.615 505.095H540.86V451.85H487.615V505.095ZM543.662 505.095H596.907V451.85H543.662V505.095ZM599.71 505.095H652.956V451.85H599.71V505.095ZM655.759 505.095H709.004V451.85H655.759V505.095ZM711.807 505.095H765.052V451.85H711.807V505.095ZM767.855 505.095H821.1V451.85H767.855V505.095ZM823.903 505.095H877.149V451.85H823.903V505.095ZM879.951 505.095H933.197V451.85H879.951V505.095ZM935.999 505.095H989.244V451.85H935.999V505.095ZM992.047 505.095H1045.29V451.85H992.047V505.095ZM1048.1 505.095H1101.34V451.85H1048.1V505.095ZM1104.14 505.095H1157.39V451.85H1104.14V505.095ZM1160.19 505.095H1213.44V451.85H1160.19V505.095ZM1216.24 505.095H1269.49V451.85H1216.24V505.095ZM1272.29 505.095H1325.53V451.85H1272.29V505.095ZM1328.34 505.095H1381.58V451.85H1328.34V505.095ZM1384.39 505.095H1437.63V451.85H1384.39V505.095ZM1440.43 505.095H1493.68V451.85H1440.43V505.095ZM1496.48 505.095H1549.73V451.85H1496.48V505.095ZM1552.53 505.095H1605.78V451.85H1552.53V505.095ZM1608.58 505.095H1661.82V451.85H1608.58V505.095ZM1664.63 505.095H1717.87V451.85H1664.63V505.095ZM1720.67 505.095H1773.92V451.85H1720.67V505.095ZM1776.72 505.095H1829.97V451.85H1776.72V505.095ZM1832.77 505.095H1886.02V451.85H1832.77V505.095ZM1888.82 505.095H1942.06V451.85H1888.82V505.095ZM39.2288 449.047H92.4739V395.801H39.2288V449.047ZM95.2766 449.047H148.523V395.801H95.2766V449.047ZM151.325 449.047H204.571V395.801H151.325V449.047ZM207.373 449.047H260.618V395.801H207.373V449.047ZM263.421 449.047H316.667V395.801H263.421V449.047ZM319.47 449.047H372.715V395.801H319.47V449.047ZM375.518 449.047H428.763V395.801H375.518V449.047ZM431.566 449.047H484.812V395.801H431.566V449.047ZM487.615 449.047H540.86V395.801H487.615V449.047ZM543.662 449.047H596.907V395.801H543.662V449.047ZM599.71 449.047H652.956V395.801H599.71V449.047ZM655.759 449.047H709.004V395.801H655.759V449.047ZM711.807 449.047H765.052V395.801H711.807V449.047ZM767.855 449.047H821.1V395.801H767.855V449.047ZM823.903 449.047H877.149V395.801H823.903V449.047ZM879.951 449.047H933.197V395.801H879.951V449.047ZM935.999 449.047H989.244V395.801H935.999V449.047ZM992.047 449.047H1045.29V395.801H992.047V449.047ZM1048.1 449.047H1101.34V395.801H1048.1V449.047ZM1104.14 449.047H1157.39V395.801H1104.14V449.047ZM1160.19 449.047H1213.44V395.801H1160.19V449.047ZM1216.24 449.047H1269.49V395.801H1216.24V449.047ZM1272.29 449.047H1325.53V395.801H1272.29V449.047ZM1328.34 449.047H1381.58V395.801H1328.34V449.047ZM1384.39 449.047H1437.63V395.801H1384.39V449.047ZM1440.43 449.047H1493.68V395.801H1440.43V449.047ZM1496.48 449.047H1549.73V395.801H1496.48V449.047ZM1552.53 449.047H1605.78V395.801H1552.53V449.047ZM1608.58 449.047H1661.82V395.801H1608.58V449.047ZM1664.63 449.047H1717.87V395.801H1664.63V449.047ZM1720.67 449.047H1773.92V395.801H1720.67V449.047ZM1776.72 449.047H1829.97V395.801H1776.72V449.047ZM1832.77 449.047H1886.02V395.801H1832.77V449.047ZM1888.82 449.047H1942.06V395.801H1888.82V449.047ZM39.2288 392.998H92.4739V339.753H39.2288V392.998ZM95.2766 392.998H148.523V339.753H95.2766V392.998ZM151.325 392.998H204.571V339.753H151.325V392.998ZM207.373 392.998H260.618V339.753H207.373V392.998ZM263.421 392.998H316.667V339.753H263.421V392.998ZM319.47 392.998H372.715V339.753H319.47V392.998ZM375.518 392.998H428.763V339.753H375.518V392.998ZM431.566 392.998H484.812V339.753H431.566V392.998ZM487.615 392.998H540.86V339.753H487.615V392.998ZM543.662 392.998H596.907V339.753H543.662V392.998ZM599.71 392.998H652.956V339.753H599.71V392.998ZM655.759 392.998H709.004V339.753H655.759V392.998ZM711.807 392.998H765.052V339.753H711.807V392.998ZM767.855 392.998H821.1V339.753H767.855V392.998ZM823.903 392.998H877.149V339.753H823.903V392.998ZM879.951 392.998H933.197V339.753H879.951V392.998ZM935.999 392.998H989.244V339.753H935.999V392.998ZM992.047 392.998H1045.29V339.753H992.047V392.998ZM1048.1 392.998H1101.34V339.753H1048.1V392.998ZM1104.14 392.998H1157.39V339.753H1104.14V392.998ZM1160.19 392.998H1213.44V339.753H1160.19V392.998ZM1216.24 392.998H1269.49V339.753H1216.24V392.998ZM1272.29 392.998H1325.53V339.753H1272.29V392.998ZM1328.34 392.998H1381.58V339.753H1328.34V392.998ZM1384.39 392.998H1437.63V339.753H1384.39V392.998ZM1440.43 392.998H1493.68V339.753H1440.43V392.998ZM1496.48 392.998H1549.73V339.753H1496.48V392.998ZM1552.53 392.998H1605.78V339.753H1552.53V392.998ZM1608.58 392.998H1661.82V339.753H1608.58V392.998ZM1664.63 392.998H1717.87V339.753H1664.63V392.998ZM1720.67 392.998H1773.92V339.753H1720.67V392.998ZM1776.72 392.998H1829.97V339.753H1776.72V392.998ZM1832.77 392.998H1886.02V339.753H1832.77V392.998ZM1888.82 392.998H1942.06V339.753H1888.82V392.998ZM39.2288 336.95H92.4739V283.704H39.2288V336.95ZM95.2766 336.95H148.523V283.704H95.2766V336.95ZM151.325 336.95H204.571V283.704H151.325V336.95ZM207.373 336.95H260.618V283.704H207.373V336.95ZM263.421 336.95H316.667V283.704H263.421V336.95ZM319.47 336.95H372.715V283.704H319.47V336.95ZM375.518 336.95H428.763V283.704H375.518V336.95ZM431.566 336.95H484.812V283.704H431.566V336.95ZM487.615 336.95H540.86V283.704H487.615V336.95ZM543.662 336.95H596.907V283.704H543.662V336.95ZM599.71 336.95H652.956V283.704H599.71V336.95ZM655.759 336.95H709.004V283.704H655.759V336.95ZM711.807 336.95H765.052V283.704H711.807V336.95ZM767.855 336.95H821.1V283.704H767.855V336.95ZM823.903 336.95H877.149V283.704H823.903V336.95ZM879.951 336.95H933.197V283.704H879.951V336.95ZM935.999 336.95H989.244V283.704H935.999V336.95ZM992.047 336.95H1045.29V283.704H992.047V336.95ZM1048.1 336.95H1101.34V283.704H1048.1V336.95ZM1104.14 336.95H1157.39V283.704H1104.14V336.95ZM1160.19 336.95H1213.44V283.704H1160.19V336.95ZM1216.24 336.95H1269.49V283.704H1216.24V336.95ZM1272.29 336.95H1325.53V283.704H1272.29V336.95ZM1328.34 336.95H1381.58V283.704H1328.34V336.95ZM1384.39 336.95H1437.63V283.704H1384.39V336.95ZM1440.43 336.95H1493.68V283.704H1440.43V336.95ZM1496.48 336.95H1549.73V283.704H1496.48V336.95ZM1552.53 336.95H1605.78V283.704H1552.53V336.95ZM1608.58 336.95H1661.82V283.704H1608.58V336.95ZM1664.63 336.95H1717.87V283.704H1664.63V336.95ZM1720.67 336.95H1773.92V283.704H1720.67V336.95ZM1776.72 336.95H1829.97V283.704H1776.72V336.95ZM1832.77 336.95H1886.02V283.704H1832.77V336.95ZM1888.82 336.95H1942.06V283.704H1888.82V336.95ZM39.2288 280.901H92.4739V227.656H39.2288V280.901ZM95.2766 280.901H148.523V227.656H95.2766V280.901ZM151.325 280.901H204.571V227.656H151.325V280.901ZM207.373 280.901H260.618V227.656H207.373V280.901ZM263.421 280.901H316.667V227.656H263.421V280.901ZM319.47 280.901H372.715V227.656H319.47V280.901ZM375.518 280.901H428.763V227.656H375.518V280.901ZM431.566 280.901H484.812V227.656H431.566V280.901ZM487.615 280.901H540.86V227.656H487.615V280.901ZM543.662 280.901H596.907V227.656H543.662V280.901ZM599.71 280.901H652.956V227.656H599.71V280.901ZM655.759 280.901H709.004V227.656H655.759V280.901ZM711.807 280.901H765.052V227.656H711.807V280.901ZM767.855 280.901H821.1V227.656H767.855V280.901ZM823.903 280.901H877.149V227.656H823.903V280.901ZM879.951 280.901H933.197V227.656H879.951V280.901ZM935.999 280.901H989.244V227.656H935.999V280.901ZM992.047 280.901H1045.29V227.656H992.047V280.901ZM1048.1 280.901H1101.34V227.656H1048.1V280.901ZM1104.14 280.901H1157.39V227.656H1104.14V280.901ZM1160.19 280.901H1213.44V227.656H1160.19V280.901ZM1216.24 280.901H1269.49V227.656H1216.24V280.901ZM1272.29 280.901H1325.53V227.656H1272.29V280.901ZM1328.34 280.901H1381.58V227.656H1328.34V280.901ZM1384.39 280.901H1437.63V227.656H1384.39V280.901ZM1440.43 280.901H1493.68V227.656H1440.43V280.901ZM1496.48 280.901H1549.73V227.656H1496.48V280.901ZM1552.53 280.901H1605.78V227.656H1552.53V280.901ZM1608.58 280.901H1661.82V227.656H1608.58V280.901ZM1664.63 280.901H1717.87V227.656H1664.63V280.901ZM1720.67 280.901H1773.92V227.656H1720.67V280.901ZM1776.72 280.901H1829.97V227.656H1776.72V280.901ZM1832.77 280.901H1886.02V227.656H1832.77V280.901ZM1888.82 280.901H1942.06V227.656H1888.82V280.901ZM39.2288 224.854H92.4739V171.608H39.2288V224.854ZM95.2766 224.854H148.523V171.608H95.2766V224.854ZM151.325 224.854H204.571V171.608H151.325V224.854ZM207.373 224.854H260.618V171.608H207.373V224.854ZM263.421 224.854H316.667V171.608H263.421V224.854ZM319.47 224.854H372.715V171.608H319.47V224.854ZM375.518 224.854H428.763V171.608H375.518V224.854ZM431.566 224.854H484.812V171.608H431.566V224.854ZM487.615 224.854H540.86V171.608H487.615V224.854ZM543.662 224.854H596.907V171.608H543.662V224.854ZM599.71 224.854H652.956V171.608H599.71V224.854ZM655.759 224.854H709.004V171.608H655.759V224.854ZM711.807 224.854H765.052V171.608H711.807V224.854ZM767.855 224.854H821.1V171.608H767.855V224.854ZM823.903 224.854H877.149V171.608H823.903V224.854ZM879.951 224.854H933.197V171.608H879.951V224.854ZM935.999 224.854H989.244V171.608H935.999V224.854ZM992.047 224.854H1045.29V171.608H992.047V224.854ZM1048.1 224.854H1101.34V171.608H1048.1V224.854ZM1104.14 224.854H1157.39V171.608H1104.14V224.854ZM1160.19 224.854H1213.44V171.608H1160.19V224.854ZM1216.24 224.854H1269.49V171.608H1216.24V224.854ZM1272.29 224.854H1325.53V171.608H1272.29V224.854ZM1328.34 224.854H1381.58V171.608H1328.34V224.854ZM1384.39 224.854H1437.63V171.608H1384.39V224.854ZM1440.43 224.854H1493.68V171.608H1440.43V224.854ZM1496.48 224.854H1549.73V171.608H1496.48V224.854ZM1552.53 224.854H1605.78V171.608H1552.53V224.854ZM1608.58 224.854H1661.82V171.608H1608.58V224.854ZM1664.63 224.854H1717.87V171.608H1664.63V224.854ZM1720.67 224.854H1773.92V171.608H1720.67V224.854ZM1776.72 224.854H1829.97V171.608H1776.72V224.854ZM1832.77 224.854H1886.02V171.608H1832.77V224.854ZM1888.82 224.854H1942.06V171.608H1888.82V224.854ZM39.2288 168.806H92.4739V115.56H39.2288V168.806ZM95.2766 168.806H148.523V115.56H95.2766V168.806ZM151.325 168.806H204.571V115.56H151.325V168.806ZM207.373 168.806H260.618V115.56H207.373V168.806ZM263.421 168.806H316.667V115.56H263.421V168.806ZM319.47 168.806H372.715V115.56H319.47V168.806ZM375.518 168.806H428.763V115.56H375.518V168.806ZM431.566 168.806H484.812V115.56H431.566V168.806ZM487.615 168.806H540.86V115.56H487.615V168.806ZM543.662 168.806H596.907V115.56H543.662V168.806ZM599.71 168.806H652.956V115.56H599.71V168.806ZM655.759 168.806H709.004V115.56H655.759V168.806ZM711.807 168.806H765.052V115.56H711.807V168.806ZM767.855 168.806H821.1V115.56H767.855V168.806ZM823.903 168.806H877.149V115.56H823.903V168.806ZM879.951 168.806H933.197V115.56H879.951V168.806ZM935.999 168.806H989.244V115.56H935.999V168.806ZM992.047 168.806H1045.29V115.56H992.047V168.806ZM1048.1 168.806H1101.34V115.56H1048.1V168.806ZM1104.14 168.806H1157.39V115.56H1104.14V168.806ZM1160.19 168.806H1213.44V115.56H1160.19V168.806ZM1216.24 168.806H1269.49V115.56H1216.24V168.806ZM1272.29 168.806H1325.53V115.56H1272.29V168.806ZM1328.34 168.806H1381.58V115.56H1328.34V168.806ZM1384.39 168.806H1437.63V115.56H1384.39V168.806ZM1440.43 168.806H1493.68V115.56H1440.43V168.806ZM1496.48 168.806H1549.73V115.56H1496.48V168.806ZM1552.53 168.806H1605.78V115.56H1552.53V168.806ZM1608.58 168.806H1661.82V115.56H1608.58V168.806ZM1664.63 168.806H1717.87V115.56H1664.63V168.806ZM1720.67 168.806H1773.92V115.56H1720.67V168.806ZM1776.72 168.806H1829.97V115.56H1776.72V168.806ZM1832.77 168.806H1886.02V115.56H1832.77V168.806ZM1888.82 168.806H1942.06V115.56H1888.82V168.806ZM39.2288 112.757H92.4739V59.5117H39.2288V112.757ZM95.2766 112.757H148.523V59.5117H95.2766V112.757ZM151.325 112.757H204.571V59.5117H151.325V112.757ZM207.373 112.757H260.618V59.5117H207.373V112.757ZM263.421 112.757H316.667V59.5117H263.421V112.757ZM319.47 112.757H372.715V59.5117H319.47V112.757ZM375.518 112.757H428.763V59.5117H375.518V112.757ZM431.566 112.757H484.812V59.5117H431.566V112.757ZM487.615 112.757H540.86V59.5117H487.615V112.757ZM543.662 112.757H596.907V59.5117H543.662V112.757ZM599.71 112.757H652.956V59.5117H599.71V112.757ZM655.759 112.757H709.004V59.5117H655.759V112.757ZM711.807 112.757H765.052V59.5117H711.807V112.757ZM767.855 112.757H821.1V59.5117H767.855V112.757ZM823.903 112.757H877.149V59.5117H823.903V112.757ZM879.951 112.757H933.197V59.5117H879.951V112.757ZM935.999 112.757H989.244V59.5117H935.999V112.757ZM992.047 112.757H1045.29V59.5117H992.047V112.757ZM1048.1 112.757H1101.34V59.5117H1048.1V112.757ZM1104.14 112.757H1157.39V59.5117H1104.14V112.757ZM1160.19 112.757H1213.44V59.5117H1160.19V112.757ZM1216.24 112.757H1269.49V59.5117H1216.24V112.757ZM1272.29 112.757H1325.53V59.5117H1272.29V112.757ZM1328.34 112.757H1381.58V59.5117H1328.34V112.757ZM1384.39 112.757H1437.63V59.5117H1384.39V112.757ZM1440.43 112.757H1493.68V59.5117H1440.43V112.757ZM1496.48 112.757H1549.73V59.5117H1496.48V112.757ZM1552.53 112.757H1605.78V59.5117H1552.53V112.757ZM1608.58 112.757H1661.82V59.5117H1608.58V112.757ZM1664.63 112.757H1717.87V59.5117H1664.63V112.757ZM1720.67 112.757H1773.92V59.5117H1720.67V112.757ZM1776.72 112.757H1829.97V59.5117H1776.72V112.757ZM1832.77 112.757H1886.02V59.5117H1832.77V112.757ZM1888.82 112.757H1942.06V59.5117H1888.82V112.757Z" fill="#ECEBF3"/>
<rect x="-76.3669" y="0.660156" width="2017.73" height="56.0482" fill="url(#paint0_linear_2084_7836)"/>
<rect width="2017.73" height="56.0482" transform="matrix(1 0 0 -1 -76.3667 640.66)" fill="url(#paint1_linear_2084_7836)"/>
</g>
<defs>
<linearGradient id="paint0_linear_2084_7836" x1="932.5" y1="0.660158" x2="932.5" y2="56.7083" gradientUnits="userSpaceOnUse">
<stop stop-color="white"/>
<stop offset="1" stop-color="white" stop-opacity="0"/>
</linearGradient>
<linearGradient id="paint1_linear_2084_7836" x1="1008.87" y1="1.67037e-06" x2="1008.87" y2="56.0482" gradientUnits="userSpaceOnUse">
<stop stop-color="white"/>
<stop offset="1" stop-color="white" stop-opacity="0"/>
</linearGradient>
<clipPath id="clip0_2084_7836">
<rect width="2017.73" height="640" fill="white" transform="translate(-76.3669 0.660156)"/>
</clipPath>
</defs>
</svg>
