<svg width="110" height="18" viewBox="0 0 110 18" fill="none" xmlns="http://www.w3.org/2000/svg">
<path d="M7.832 17H1.54V1.16H7.667C8.393 1.16 9.075 1.248 9.713 1.424C10.3583 1.6 10.9193 1.864 11.396 2.216C11.8727 2.56067 12.2503 2.997 12.529 3.525C12.8077 4.04567 12.947 4.65433 12.947 5.351C12.947 5.86433 12.8737 6.319 12.727 6.715C12.5877 7.10367 12.408 7.441 12.188 7.727C11.9753 8.00567 11.7407 8.22933 11.484 8.398C11.2273 8.56667 10.9817 8.68767 10.747 8.761C11.0477 8.81233 11.3557 8.92967 11.671 9.113C11.9937 9.29633 12.287 9.54567 12.551 9.861C12.815 10.169 13.0313 10.5503 13.2 11.005C13.376 11.4523 13.464 11.973 13.464 12.567C13.464 13.337 13.3137 14.0043 13.013 14.569C12.7123 15.1263 12.3053 15.5847 11.792 15.944C11.2787 16.3033 10.681 16.571 9.999 16.747C9.317 16.9157 8.59467 17 7.832 17ZM7.733 3.954H4.554V7.463H7.733C8.03367 7.463 8.316 7.43733 8.58 7.386C8.85133 7.32733 9.086 7.232 9.284 7.1C9.482 6.968 9.636 6.792 9.746 6.572C9.86333 6.34467 9.922 6.05867 9.922 5.714C9.922 5.36933 9.86333 5.08333 9.746 4.856C9.636 4.62867 9.482 4.449 9.284 4.317C9.086 4.185 8.85133 4.09333 8.58 4.042C8.316 3.98333 8.03367 3.954 7.733 3.954ZM7.832 14.206C8.15467 14.206 8.47367 14.184 8.789 14.14C9.10433 14.0887 9.38667 13.9933 9.636 13.854C9.88533 13.7073 10.087 13.502 10.241 13.238C10.395 12.974 10.472 12.6293 10.472 12.204C10.472 11.7787 10.395 11.4377 10.241 11.181C10.087 10.917 9.88533 10.7153 9.636 10.576C9.38667 10.4293 9.10433 10.334 8.789 10.29C8.47367 10.2387 8.15467 10.213 7.832 10.213H4.554V14.206H7.832ZM22.1012 17.33C21.1479 17.33 20.2752 17.1907 19.4832 16.912C18.6912 16.6333 18.0092 16.2153 17.4372 15.658C16.8726 15.0933 16.4326 14.393 16.1172 13.557C15.8092 12.7137 15.6552 11.7347 15.6552 10.62V1.16H18.6692V10.488C18.6692 11.8593 18.9442 12.875 19.4942 13.535C20.0442 14.1877 20.9132 14.514 22.1012 14.514C23.2892 14.514 24.1582 14.1877 24.7082 13.535C25.2582 12.875 25.5332 11.8593 25.5332 10.488V1.16H28.5472V10.62C28.5472 11.7347 28.3896 12.7137 28.0742 13.557C27.7662 14.393 27.3262 15.0933 26.7542 15.658C26.1896 16.2153 25.5112 16.6333 24.7192 16.912C23.9346 17.1907 23.0619 17.33 22.1012 17.33ZM31.6181 17V1.16H34.6321L39.5381 11.291L44.4441 1.16H47.4581V17H44.4441V7.1L40.7811 14.679H38.2951L34.6321 7.1V17H31.6181ZM63.6799 17H60.5229L59.4779 13.7H53.5709L52.5259 17H49.3689L54.5059 1.16H58.5429L63.6799 17ZM58.5869 10.906L56.5299 4.394L54.4619 10.906H58.5869ZM76.1552 15.097C75.9866 15.4417 75.7519 15.7533 75.4512 16.032C75.1506 16.3033 74.8022 16.538 74.4062 16.736C74.0102 16.9267 73.5739 17.0733 73.0972 17.176C72.6206 17.2787 72.1182 17.33 71.5902 17.33C70.5049 17.33 69.5112 17.1467 68.6092 16.78C67.7146 16.406 66.9446 15.867 66.2992 15.163C65.6539 14.4517 65.1552 13.5863 64.8032 12.567C64.4512 11.5403 64.2752 10.378 64.2752 9.08C64.2752 7.85533 64.4586 6.737 64.8252 5.725C65.1919 4.713 65.7089 3.844 66.3762 3.118C67.0436 2.392 67.8392 1.831 68.7632 1.435C69.6872 1.03167 70.7029 0.83 71.8102 0.83C73.7169 0.83 75.2606 1.281 76.4412 2.183C77.6292 3.085 78.4762 4.44533 78.9822 6.264L75.9242 6.704C75.8142 6.22733 75.6419 5.802 75.4072 5.428C75.1726 5.04667 74.8829 4.724 74.5382 4.46C74.1936 4.196 73.7976 3.99433 73.3502 3.855C72.9102 3.71567 72.4299 3.646 71.9092 3.646C71.2126 3.646 70.5892 3.77067 70.0392 4.02C69.4892 4.262 69.0199 4.614 68.6312 5.076C68.2499 5.538 67.9566 6.10633 67.7512 6.781C67.5459 7.45567 67.4432 8.222 67.4432 9.08C67.4432 9.938 67.5349 10.7043 67.7182 11.379C67.9089 12.0537 68.1912 12.6257 68.5652 13.095C68.9392 13.557 69.4049 13.909 69.9622 14.151C70.5196 14.393 71.1649 14.514 71.8982 14.514C72.4262 14.514 72.9249 14.4407 73.3942 14.294C73.8636 14.1473 74.2779 13.9273 74.6372 13.634C74.9966 13.3333 75.2899 12.9593 75.5172 12.512C75.7446 12.0647 75.8766 11.5367 75.9132 10.928H70.9302V8.134H79.1692V17H76.1552V15.097ZM88.0368 17.33C87.0834 17.33 86.2108 17.1907 85.4188 16.912C84.6268 16.6333 83.9448 16.2153 83.3728 15.658C82.8081 15.0933 82.3681 14.393 82.0528 13.557C81.7448 12.7137 81.5908 11.7347 81.5908 10.62V1.16H84.6048V10.488C84.6048 11.8593 84.8798 12.875 85.4298 13.535C85.9798 14.1877 86.8488 14.514 88.0368 14.514C89.2248 14.514 90.0938 14.1877 90.6438 13.535C91.1938 12.875 91.4688 11.8593 91.4688 10.488V1.16H94.4828V10.62C94.4828 11.7347 94.3251 12.7137 94.0098 13.557C93.7018 14.393 93.2618 15.0933 92.6898 15.658C92.1251 16.2153 91.4468 16.6333 90.6548 16.912C89.8701 17.1907 88.9974 17.33 88.0368 17.33ZM97.5537 17V1.16H107.916V3.954H100.568V7.342H106.596V10.136H100.568V14.206H107.916V17H97.5537Z" fill="#2A211C"/>
</svg>
